<ttFont>
    <TTGlyph name=".notdef" xMin="50" yMin="0" xMax="1074" yMax="1280">
      <contour>
        <pt x="50" y="0" on="1"/>
        <pt x="50" y="1280" on="1"/>
        <pt x="1074" y="1280" on="1"/>
        <pt x="1074" y="0" on="1"/>
      </contour>
      <contour>
        <pt x="82" y="32" on="1"/>
        <pt x="1042" y="32" on="1"/>
        <pt x="1042" y="1248" on="1"/>
        <pt x="82" y="1248" on="1"/>
      </contour>
    </TTGlyph>
    <TTGlyph name="A" xMin="-117" yMin="0" xMax="1305" yMax="1430">
      <contour>
        <pt x="85" y="0" on="1"/>
        <pt x="-117" y="0" on="1"/>
        <pt x="776" y="1430" on="1"/>
        <pt x="981" y="1430" on="1"/>
        <pt x="1305" y="0" on="1"/>
        <pt x="1110" y="0" on="1"/>
        <pt x="1015" y="450" on="1"/>
        <pt x="542" y="450" on="1"/>
        <pt x="623" y="600" on="1"/>
        <pt x="983" y="600" on="1"/>
        <pt x="846" y="1248" on="1"/>
      </contour>
    </TTGlyph>
    <TTGlyph name="AE" xMin="-117" yMin="0" xMax="1924" yMax="1430">
      <contour>
        <pt x="800" y="600" on="1"/>
        <pt x="828" y="450" on="1"/>
        <pt x="369" y="450" on="1"/>
        <pt x="85" y="0" on="1"/>
        <pt x="-117" y="0" on="1"/>
        <pt x="776" y="1430" on="1"/>
        <pt x="1924" y="1430" on="1"/>
        <pt x="1894" y="1280" on="1"/>
        <pt x="1006" y="1280" on="1"/>
        <pt x="1120" y="800" on="1"/>
        <pt x="1763" y="800" on="1"/>
        <pt x="1733" y="650" on="1"/>
        <pt x="1159" y="650" on="1"/>
        <pt x="1285" y="150" on="1"/>
        <pt x="1688" y="150" on="1"/>
        <pt x="1658" y="0" on="1"/>
        <pt x="1120" y="0" on="1"/>
        <pt x="844" y="1238" on="1"/>
        <pt x="450" y="600" on="1"/>
      </contour>
    </TTGlyph>
    <TTGlyph name="Aacute" xMin="-117" yMin="0" xMax="1305" yMax="1810">
      <component glyphName="A" x="0" y="0" flags="0x200"/>
      <component glyphName="acute" x="602" y="380" flags="0x0"/>
    </TTGlyph>
    <TTGlyph name="Abreve" xMin="-117" yMin="0" xMax="1305" yMax="1810">
      <component glyphName="A" x="0" y="0" flags="0x200"/>
      <component glyphName="breve" x="431" y="380" flags="0x0"/>
    </TTGlyph>
    <TTGlyph name="Acircumflex" xMin="-117" yMin="0" xMax="1305" yMax="1810">
      <component glyphName="A" x="0" y="0" flags="0x200"/>
      <component glyphName="circumflex" x="436" y="380" flags="0x0"/>
    </TTGlyph>
    <TTGlyph name="Adieresis" xMin="-117" yMin="0" xMax="1305" yMax="1810">
      <component glyphName="A" x="0" y="0" flags="0x200"/>
      <component glyphName="dieresis" x="419" y="380" flags="0x0"/>
    </TTGlyph>
    <TTGlyph name="Agrave" xMin="-117" yMin="0" xMax="1305" yMax="1810">
      <component glyphName="A" x="0" y="0" flags="0x200"/>
      <component glyphName="grave" x="367" y="380" flags="0x0"/>
    </TTGlyph>
    <TTGlyph name="Alpha" xMin="-117" yMin="0" xMax="1305" yMax="1430">
      <component glyphName="A" x="0" y="0" flags="0x200"/>
    </TTGlyph>
    <TTGlyph name="Alphatonos" xMin="-117" yMin="0" xMax="1305" yMax="1430">
      <component glyphName="tonos" x="0" y="0" flags="0x0"/>
      <component glyphName="Alpha" x="0" y="0" flags="0x200"/>
    </TTGlyph>
    <TTGlyph name="Amacron" xMin="-117" yMin="0" xMax="1305" yMax="1810">
      <component glyphName="A" x="0" y="0" flags="0x200"/>
      <component glyphName="macron" x="446" y="380" flags="0x0"/>
    </TTGlyph>
    <TTGlyph name="Aogonek" xMin="-117" yMin="-426" xMax="1305" yMax="1430">
      <contour>
        <pt x="85" y="0" on="1"/>
        <pt x="-117" y="0" on="1"/>
        <pt x="776" y="1430" on="1"/>
        <pt x="981" y="1430" on="1"/>
        <pt x="1305" y="0" on="1"/>
        <pt x="1078" y="-126" on="0"/>
        <pt x="1057" y="-228" on="1"/>
        <pt x="1044" y="-296" on="0"/>
        <pt x="1129" y="-296" on="1"/>
        <pt x="1214" y="-296" on="0"/>
        <pt x="1270" y="-276" on="1"/>
        <pt x="1244" y="-406" on="1"/>
        <pt x="1179" y="-426" on="0"/>
        <pt x="1091" y="-426" on="1"/>
        <pt x="860" y="-426" on="0"/>
        <pt x="894" y="-253" on="1"/>
        <pt x="921" y="-122" on="0"/>
        <pt x="1110" y="0" on="1"/>
        <pt x="1015" y="450" on="1"/>
        <pt x="542" y="450" on="1"/>
        <pt x="623" y="600" on="1"/>
        <pt x="983" y="600" on="1"/>
        <pt x="846" y="1248" on="1"/>
      </contour>
    </TTGlyph>
    <TTGlyph name="Aring" xMin="-117" yMin="0" xMax="1305" yMax="1835">
      <contour>
        <pt x="894" y="1490" on="1"/>
        <pt x="1028" y="1490" on="0"/>
        <pt x="1055" y="1627" on="1"/>
        <pt x="1082" y="1761" on="0"/>
        <pt x="948" y="1761" on="1"/>
        <pt x="810" y="1761" on="0"/>
        <pt x="783" y="1627" on="1"/>
        <pt x="756" y="1490" on="0"/>
      </contour>
      <contour>
        <pt x="85" y="0" on="1"/>
        <pt x="-117" y="0" on="1"/>
        <pt x="776" y="1430" on="1"/>
        <pt x="779" y="1430" on="1"/>
        <pt x="662" y="1470" on="0"/>
        <pt x="693" y="1625" on="1"/>
        <pt x="735" y="1835" on="0"/>
        <pt x="963" y="1835" on="1"/>
        <pt x="1187" y="1835" on="0"/>
        <pt x="1145" y="1625" on="1"/>
        <pt x="1114" y="1469" on="0"/>
        <pt x="981" y="1429" on="1"/>
        <pt x="1305" y="0" on="1"/>
        <pt x="1110" y="0" on="1"/>
        <pt x="1015" y="450" on="1"/>
        <pt x="542" y="450" on="1"/>
        <pt x="623" y="600" on="1"/>
        <pt x="983" y="600" on="1"/>
        <pt x="846" y="1248" on="1"/>
      </contour>
    </TTGlyph>
    <TTGlyph name="Atilde" xMin="-117" yMin="0" xMax="1305" yMax="1810">
      <component glyphName="A" x="0" y="0" flags="0x200"/>
      <component glyphName="tilde" x="426" y="380" flags="0x0"/>
    </TTGlyph>
    <TTGlyph name="B" xMin="28" yMin="0" xMax="1332" yMax="1430">
      <contour>
        <pt x="28" y="0" on="1"/>
        <pt x="314" y="1430" on="1"/>
        <pt x="924" y="1430" on="1"/>
        <pt x="1332" y="1430" on="0"/>
        <pt x="1265" y="1097" on="1"/>
        <pt x="1217" y="853" on="0"/>
        <pt x="930" y="748" on="1"/>
        <pt x="1203" y="695" on="0"/>
        <pt x="1149" y="423" on="1"/>
        <pt x="1064" y="0" on="0"/>
        <pt x="617" y="0" on="1"/>
      </contour>
      <contour>
        <pt x="636" y="150" on="1"/>
        <pt x="892" y="150" on="0"/>
        <pt x="944" y="410" on="1"/>
        <pt x="995" y="663" on="0"/>
        <pt x="652" y="663" on="1"/>
        <pt x="572" y="663" on="1"/>
        <pt x="596" y="784" on="1"/>
        <pt x="1017" y="839" on="0"/>
        <pt x="1065" y="1080" on="1"/>
        <pt x="1105" y="1280" on="0"/>
        <pt x="877" y="1280" on="1"/>
        <pt x="469" y="1280" on="1"/>
        <pt x="243" y="150" on="1"/>
      </contour>
    </TTGlyph>
    <TTGlyph name="Beta" xMin="28" yMin="0" xMax="1332" yMax="1430">
      <component glyphName="B" x="0" y="0" flags="0x200"/>
    </TTGlyph>
    <TTGlyph name="C" xMin="-44" yMin="-10" xMax="1384" yMax="1440">
      <contour>
        <pt x="1118" y="50" on="1"/>
        <pt x="921" y="-10" on="0"/>
        <pt x="706" y="-10" on="1"/>
        <pt x="-44" y="-10" on="0"/>
        <pt x="105" y="735" on="1"/>
        <pt x="246" y="1440" on="0"/>
        <pt x="996" y="1440" on="1"/>
        <pt x="1211" y="1440" on="0"/>
        <pt x="1384" y="1380" on="1"/>
        <pt x="1352" y="1220" on="1"/>
        <pt x="1181" y="1290" on="0"/>
        <pt x="986" y="1290" on="1"/>
        <pt x="401" y="1290" on="0"/>
        <pt x="290" y="735" on="1"/>
        <pt x="171" y="140" on="0"/>
        <pt x="756" y="140" on="1"/>
        <pt x="951" y="140" on="0"/>
        <pt x="1150" y="210" on="1"/>
      </contour>
    </TTGlyph>
    <TTGlyph name="Cacute" xMin="-44" yMin="-10" xMax="1384" yMax="1810">
      <component glyphName="C" x="0" y="0" flags="0x200"/>
      <component glyphName="acute" x="581" y="380" flags="0x0"/>
    </TTGlyph>
    <TTGlyph name="Ccaron" xMin="-44" yMin="-10" xMax="1384" yMax="1810">
      <component glyphName="C" x="0" y="0" flags="0x200"/>
      <component glyphName="caron" x="476" y="380" flags="0x0"/>
    </TTGlyph>
    <TTGlyph name="Ccedilla" xMin="-29" yMin="-422" xMax="1384" yMax="1440">
      <contour>
        <pt x="562" y="-2" on="1"/>
        <pt x="-29" y="66" on="0"/>
        <pt x="105" y="735" on="1"/>
        <pt x="246" y="1440" on="0"/>
        <pt x="996" y="1440" on="1"/>
        <pt x="1211" y="1440" on="0"/>
        <pt x="1384" y="1380" on="1"/>
        <pt x="1352" y="1220" on="1"/>
        <pt x="1181" y="1290" on="0"/>
        <pt x="986" y="1290" on="1"/>
        <pt x="401" y="1290" on="0"/>
        <pt x="290" y="735" on="1"/>
        <pt x="171" y="140" on="0"/>
        <pt x="756" y="140" on="1"/>
        <pt x="951" y="140" on="0"/>
        <pt x="1150" y="210" on="1"/>
        <pt x="1118" y="50" on="1"/>
        <pt x="921" y="-10" on="0"/>
        <pt x="706" y="-10" on="1"/>
        <pt x="690" y="-10" on="1"/>
        <pt x="640" y="-77" on="1"/>
        <pt x="854" y="-77" on="0"/>
        <pt x="820" y="-249" on="1"/>
        <pt x="785" y="-422" on="0"/>
        <pt x="544" y="-422" on="1"/>
        <pt x="436" y="-422" on="0"/>
        <pt x="338" y="-372" on="1"/>
        <pt x="360" y="-264" on="1"/>
        <pt x="458" y="-314" on="0"/>
        <pt x="566" y="-314" on="1"/>
        <pt x="674" y="-314" on="0"/>
        <pt x="687" y="-249" on="1"/>
        <pt x="700" y="-185" on="0"/>
        <pt x="617" y="-185" on="1"/>
        <pt x="434" y="-185" on="1"/>
      </contour>
    </TTGlyph>
    <TTGlyph name="Ccircumflex" xMin="-44" yMin="-10" xMax="1384" yMax="1810">
      <component glyphName="C" x="0" y="0" flags="0x200"/>
      <component glyphName="circumflex" x="515" y="380" flags="0x0"/>
    </TTGlyph>
    <TTGlyph name="Cdotaccent" xMin="-44" yMin="-10" xMax="1384" yMax="1810">
      <component glyphName="C" x="0" y="0" flags="0x200"/>
      <component glyphName="dotaccent" x="693" y="380" flags="0x0"/>
    </TTGlyph>
    <TTGlyph name="Chi" xMin="-117" yMin="0" xMax="1519" yMax="1430">
      <component glyphName="X" x="0" y="0" flags="0x200"/>
    </TTGlyph>
    <TTGlyph name="D" xMin="28" yMin="0" xMax="1544" yMax="1430">
      <contour>
        <pt x="578" y="150" on="1"/>
        <pt x="1103" y="150" on="0"/>
        <pt x="1224" y="754" on="1"/>
        <pt x="1329" y="1280" on="0"/>
        <pt x="804" y="1280" on="1"/>
        <pt x="469" y="1280" on="1"/>
        <pt x="243" y="150" on="1"/>
      </contour>
      <contour>
        <pt x="28" y="0" on="1"/>
        <pt x="314" y="1430" on="1"/>
        <pt x="834" y="1430" on="1"/>
        <pt x="1544" y="1430" on="0"/>
        <pt x="1409" y="754" on="1"/>
        <pt x="1258" y="0" on="0"/>
        <pt x="548" y="0" on="1"/>
      </contour>
    </TTGlyph>
    <TTGlyph name="Dcaron" xMin="28" yMin="0" xMax="1544" yMax="1810">
      <component glyphName="D" x="0" y="0" flags="0x200"/>
      <component glyphName="caron" x="405" y="380" flags="0x0"/>
    </TTGlyph>
    <TTGlyph name="Dcroat" xMin="-62" yMin="0" xMax="1524" yMax="1430">
      <component glyphName="Eth" x="-20" y="0" flags="0x200"/>
    </TTGlyph>
    <TTGlyph name="Delta" xMin="-117" yMin="0" xMax="1305" yMax="1430">
      <contour>
        <pt x="-117" y="0" on="1"/>
        <pt x="776" y="1430" on="1"/>
        <pt x="982" y="1430" on="1"/>
        <pt x="1305" y="0" on="1"/>
      </contour>
      <contour>
        <pt x="1079" y="150" on="1"/>
        <pt x="844" y="1238" on="1"/>
        <pt x="177" y="150" on="1"/>
      </contour>
    </TTGlyph>
    <TTGlyph name="E" xMin="28" yMin="0" xMax="1249" yMax="1430">
      <contour>
        <pt x="1249" y="1430" on="1"/>
        <pt x="1219" y="1280" on="1"/>
        <pt x="469" y="1280" on="1"/>
        <pt x="373" y="800" on="1"/>
        <pt x="1088" y="800" on="1"/>
        <pt x="1058" y="650" on="1"/>
        <pt x="343" y="650" on="1"/>
        <pt x="243" y="150" on="1"/>
        <pt x="1008" y="150" on="1"/>
        <pt x="978" y="0" on="1"/>
        <pt x="28" y="0" on="1"/>
        <pt x="314" y="1430" on="1"/>
      </contour>
    </TTGlyph>
    <TTGlyph name="Eacute" xMin="28" yMin="0" xMax="1249" yMax="1810">
      <component glyphName="E" x="0" y="0" flags="0x200"/>
      <component glyphName="acute" x="471" y="380" flags="0x0"/>
    </TTGlyph>
    <TTGlyph name="Ebreve" xMin="28" yMin="0" xMax="1249" yMax="1810">
      <component glyphName="E" x="0" y="0" flags="0x200"/>
      <component glyphName="breve" x="340" y="380" flags="0x0"/>
    </TTGlyph>
    <TTGlyph name="Ecaron" xMin="28" yMin="0" xMax="1249" yMax="1810">
      <component glyphName="E" x="0" y="0" flags="0x200"/>
      <component glyphName="caron" x="355" y="380" flags="0x0"/>
    </TTGlyph>
    <TTGlyph name="Ecircumflex" xMin="28" yMin="0" xMax="1249" yMax="1810">
      <component glyphName="E" x="0" y="0" flags="0x200"/>
      <component glyphName="circumflex" x="355" y="380" flags="0x0"/>
    </TTGlyph>
    <TTGlyph name="Edieresis" xMin="28" yMin="0" xMax="1249" yMax="1810">
      <component glyphName="E" x="0" y="0" flags="0x200"/>
      <component glyphName="dieresis" x="318" y="380" flags="0x0"/>
    </TTGlyph>
    <TTGlyph name="Edotaccent" xMin="28" yMin="0" xMax="1249" yMax="1810">
      <component glyphName="E" x="0" y="0" flags="0x200"/>
      <component glyphName="dotaccent" x="503" y="380" flags="0x0"/>
    </TTGlyph>
    <TTGlyph name="Egrave" xMin="28" yMin="0" xMax="1249" yMax="1810">
      <component glyphName="E" x="0" y="0" flags="0x200"/>
      <component glyphName="grave" x="326" y="380" flags="0x0"/>
    </TTGlyph>
    <TTGlyph name="Emacron" xMin="28" yMin="0" xMax="1249" yMax="1810">
      <component glyphName="E" x="0" y="0" flags="0x200"/>
      <component glyphName="macron" x="355" y="380" flags="0x0"/>
    </TTGlyph>
    <TTGlyph name="Eng" xMin="28" yMin="-398" xMax="1549" yMax="1430">
      <contour>
        <pt x="1078" y="0" on="1"/>
        <pt x="440" y="1189" on="1"/>
        <pt x="203" y="0" on="1"/>
        <pt x="28" y="0" on="1"/>
        <pt x="314" y="1430" on="1"/>
        <pt x="499" y="1430" on="1"/>
        <pt x="1139" y="261" on="1"/>
        <pt x="1374" y="1430" on="1"/>
        <pt x="1549" y="1430" on="1"/>
        <pt x="1279" y="80" on="1"/>
        <pt x="1215" y="-238" on="0"/>
        <pt x="1028" y="-398" on="1"/>
        <pt x="894" y="-293" on="1"/>
        <pt x="1029" y="-181" on="0"/>
      </contour>
    </TTGlyph>
    <TTGlyph name="Eogonek" xMin="28" yMin="-426" xMax="1249" yMax="1430">
      <contour>
        <pt x="783" y="0" on="1"/>
        <pt x="28" y="0" on="1"/>
        <pt x="314" y="1430" on="1"/>
        <pt x="1249" y="1430" on="1"/>
        <pt x="1219" y="1280" on="1"/>
        <pt x="469" y="1280" on="1"/>
        <pt x="373" y="800" on="1"/>
        <pt x="1088" y="800" on="1"/>
        <pt x="1058" y="650" on="1"/>
        <pt x="343" y="650" on="1"/>
        <pt x="243" y="150" on="1"/>
        <pt x="1008" y="150" on="1"/>
        <pt x="978" y="0" on="1"/>
        <pt x="751" y="-126" on="0"/>
        <pt x="730" y="-228" on="1"/>
        <pt x="717" y="-296" on="0"/>
        <pt x="802" y="-296" on="1"/>
        <pt x="887" y="-296" on="0"/>
        <pt x="943" y="-276" on="1"/>
        <pt x="917" y="-406" on="1"/>
        <pt x="852" y="-426" on="0"/>
        <pt x="764" y="-426" on="1"/>
        <pt x="533" y="-426" on="0"/>
        <pt x="567" y="-253" on="1"/>
        <pt x="594" y="-122" on="0"/>
      </contour>
    </TTGlyph>
    <TTGlyph name="Epsilon" xMin="28" yMin="0" xMax="1249" yMax="1430">
      <component glyphName="E" x="0" y="0" flags="0x200"/>
    </TTGlyph>
    <TTGlyph name="Epsilontonos" xMin="46" yMin="0" xMax="1502" yMax="1430">
      <contour>
        <pt x="258" y="1430" on="1"/>
        <pt x="497" y="1430" on="1"/>
        <pt x="210" y="1191" on="1"/>
        <pt x="46" y="1191" on="1"/>
      </contour>
      <contour>
        <pt x="1502" y="1430" on="1"/>
        <pt x="1472" y="1280" on="1"/>
        <pt x="722" y="1280" on="1"/>
        <pt x="626" y="800" on="1"/>
        <pt x="1341" y="800" on="1"/>
        <pt x="1311" y="650" on="1"/>
        <pt x="596" y="650" on="1"/>
        <pt x="496" y="150" on="1"/>
        <pt x="1261" y="150" on="1"/>
        <pt x="1231" y="0" on="1"/>
        <pt x="281" y="0" on="1"/>
        <pt x="567" y="1430" on="1"/>
      </contour>
    </TTGlyph>
    <TTGlyph name="Eta" xMin="28" yMin="0" xMax="1529" yMax="1430">
      <component glyphName="H" x="0" y="0" flags="0x200"/>
    </TTGlyph>
    <TTGlyph name="Etatonos" xMin="46" yMin="0" xMax="1782" yMax="1430">
      <contour>
        <pt x="258" y="1430" on="1"/>
        <pt x="497" y="1430" on="1"/>
        <pt x="210" y="1191" on="1"/>
        <pt x="46" y="1191" on="1"/>
      </contour>
      <contour>
        <pt x="281" y="0" on="1"/>
        <pt x="567" y="1430" on="1"/>
        <pt x="752" y="1430" on="1"/>
        <pt x="626" y="800" on="1"/>
        <pt x="1471" y="800" on="1"/>
        <pt x="1597" y="1430" on="1"/>
        <pt x="1782" y="1430" on="1"/>
        <pt x="1496" y="0" on="1"/>
        <pt x="1311" y="0" on="1"/>
        <pt x="1441" y="650" on="1"/>
        <pt x="596" y="650" on="1"/>
        <pt x="466" y="0" on="1"/>
      </contour>
    </TTGlyph>
    <TTGlyph name="Eth" xMin="-42" yMin="0" xMax="1544" yMax="1430">
      <contour>
        <pt x="188" y="800" on="1"/>
        <pt x="314" y="1430" on="1"/>
        <pt x="834" y="1430" on="1"/>
        <pt x="1544" y="1430" on="0"/>
        <pt x="1409" y="754" on="1"/>
        <pt x="1258" y="0" on="0"/>
        <pt x="548" y="0" on="1"/>
        <pt x="28" y="0" on="1"/>
        <pt x="158" y="650" on="1"/>
        <pt x="-42" y="650" on="1"/>
        <pt x="-12" y="800" on="1"/>
      </contour>
      <contour>
        <pt x="373" y="800" on="1"/>
        <pt x="738" y="800" on="1"/>
        <pt x="708" y="650" on="1"/>
        <pt x="343" y="650" on="1"/>
        <pt x="243" y="150" on="1"/>
        <pt x="578" y="150" on="1"/>
        <pt x="1103" y="150" on="0"/>
        <pt x="1224" y="754" on="1"/>
        <pt x="1329" y="1280" on="0"/>
        <pt x="804" y="1280" on="1"/>
        <pt x="469" y="1280" on="1"/>
      </contour>
    </TTGlyph>
    <TTGlyph name="Euro" xMin="-44" yMin="-10" xMax="1384" yMax="1440">
      <contour>
        <pt x="1118" y="50" on="1"/>
        <pt x="921" y="-10" on="0"/>
        <pt x="706" y="-10" on="1"/>
        <pt x="-44" y="-10" on="0"/>
        <pt x="105" y="735" on="1"/>
        <pt x="246" y="1440" on="0"/>
        <pt x="996" y="1440" on="1"/>
        <pt x="1211" y="1440" on="0"/>
        <pt x="1384" y="1380" on="1"/>
        <pt x="1352" y="1220" on="1"/>
        <pt x="1181" y="1290" on="0"/>
        <pt x="986" y="1290" on="1"/>
        <pt x="488" y="1290" on="0"/>
        <pt x="331" y="942" on="1"/>
        <pt x="1104" y="942" on="1"/>
        <pt x="1074" y="792" on="1"/>
        <pt x="281" y="792" on="1"/>
        <pt x="259" y="682" on="1"/>
        <pt x="1052" y="682" on="1"/>
        <pt x="1022" y="532" on="1"/>
        <pt x="249" y="532" on="1"/>
        <pt x="248" y="140" on="0"/>
        <pt x="756" y="140" on="1"/>
        <pt x="951" y="140" on="0"/>
        <pt x="1150" y="210" on="1"/>
      </contour>
    </TTGlyph>
    <TTGlyph name="F" xMin="28" yMin="0" xMax="1249" yMax="1430">
      <contour>
        <pt x="1249" y="1430" on="1"/>
        <pt x="1219" y="1280" on="1"/>
        <pt x="469" y="1280" on="1"/>
        <pt x="373" y="800" on="1"/>
        <pt x="1088" y="800" on="1"/>
        <pt x="1058" y="650" on="1"/>
        <pt x="343" y="650" on="1"/>
        <pt x="213" y="0" on="1"/>
        <pt x="28" y="0" on="1"/>
        <pt x="314" y="1430" on="1"/>
      </contour>
    </TTGlyph>
    <TTGlyph name="G" xMin="-44" yMin="-10" xMax="1384" yMax="1440">
      <contour>
        <pt x="1119" y="56" on="1"/>
        <pt x="933" y="-10" on="0"/>
        <pt x="733" y="-10" on="1"/>
        <pt x="-44" y="-10" on="0"/>
        <pt x="105" y="735" on="1"/>
        <pt x="246" y="1440" on="0"/>
        <pt x="996" y="1440" on="1"/>
        <pt x="1211" y="1440" on="0"/>
        <pt x="1384" y="1380" on="1"/>
        <pt x="1352" y="1220" on="1"/>
        <pt x="1181" y="1290" on="0"/>
        <pt x="986" y="1290" on="1"/>
        <pt x="401" y="1290" on="0"/>
        <pt x="290" y="735" on="1"/>
        <pt x="171" y="140" on="0"/>
        <pt x="747" y="140" on="1"/>
        <pt x="839" y="140" on="0"/>
        <pt x="956" y="164" on="1"/>
        <pt x="1053" y="650" on="1"/>
        <pt x="1238" y="650" on="1"/>
      </contour>
    </TTGlyph>
    <TTGlyph name="Gamma" xMin="28" yMin="0" xMax="1247" yMax="1430">
      <contour>
        <pt x="28" y="0" on="1"/>
        <pt x="314" y="1430" on="1"/>
        <pt x="1247" y="1430" on="1"/>
        <pt x="1217" y="1280" on="1"/>
        <pt x="469" y="1280" on="1"/>
        <pt x="213" y="0" on="1"/>
      </contour>
    </TTGlyph>
    <TTGlyph name="Gbreve" xMin="-44" yMin="-10" xMax="1384" yMax="1810">
      <component glyphName="G" x="0" y="0" flags="0x200"/>
      <component glyphName="breve" x="480" y="380" flags="0x0"/>
    </TTGlyph>
    <TTGlyph name="Gcircumflex" xMin="-44" yMin="-10" xMax="1384" yMax="1810">
      <component glyphName="G" x="0" y="0" flags="0x200"/>
      <component glyphName="circumflex" x="495" y="380" flags="0x0"/>
    </TTGlyph>
    <TTGlyph name="Gcommaaccent" xMin="-44" yMin="-380" xMax="1384" yMax="1440">
      <component glyphName="G" x="0" y="0" flags="0x200"/>
      <component glyphName="commaccent" x="483" y="0" flags="0x0"/>
    </TTGlyph>
    <TTGlyph name="Gdotaccent" xMin="-44" yMin="-10" xMax="1384" yMax="1810">
      <component glyphName="G" x="0" y="0" flags="0x200"/>
      <component glyphName="dotaccent" x="693" y="380" flags="0x0"/>
    </TTGlyph>
    <TTGlyph name="H" xMin="28" yMin="0" xMax="1529" yMax="1430">
      <contour>
        <pt x="28" y="0" on="1"/>
        <pt x="314" y="1430" on="1"/>
        <pt x="499" y="1430" on="1"/>
        <pt x="373" y="800" on="1"/>
        <pt x="1218" y="800" on="1"/>
        <pt x="1344" y="1430" on="1"/>
        <pt x="1529" y="1430" on="1"/>
        <pt x="1243" y="0" on="1"/>
        <pt x="1058" y="0" on="1"/>
        <pt x="1188" y="650" on="1"/>
        <pt x="343" y="650" on="1"/>
        <pt x="213" y="0" on="1"/>
      </contour>
    </TTGlyph>
    <TTGlyph name="Hbar" xMin="28" yMin="0" xMax="1529" yMax="1430">
      <contour>
        <pt x="1298" y="1200" on="1"/>
        <pt x="1344" y="1430" on="1"/>
        <pt x="1529" y="1430" on="1"/>
        <pt x="1243" y="0" on="1"/>
        <pt x="1058" y="0" on="1"/>
        <pt x="1188" y="650" on="1"/>
        <pt x="343" y="650" on="1"/>
        <pt x="213" y="0" on="1"/>
        <pt x="28" y="0" on="1"/>
        <pt x="314" y="1430" on="1"/>
        <pt x="499" y="1430" on="1"/>
        <pt x="453" y="1200" on="1"/>
      </contour>
      <contour>
        <pt x="423" y="1050" on="1"/>
        <pt x="373" y="800" on="1"/>
        <pt x="1218" y="800" on="1"/>
        <pt x="1268" y="1050" on="1"/>
      </contour>
    </TTGlyph>
    <TTGlyph name="Hcircumflex" xMin="28" yMin="0" xMax="1529" yMax="1810">
      <component glyphName="H" x="0" y="0" flags="0x200"/>
      <component glyphName="circumflex" x="487" y="380" flags="0x0"/>
    </TTGlyph>
    <TTGlyph name="I" xMin="58" yMin="0" xMax="529" yMax="1430">
      <contour>
        <pt x="529" y="1430" on="1"/>
        <pt x="243" y="0" on="1"/>
        <pt x="58" y="0" on="1"/>
        <pt x="344" y="1430" on="1"/>
      </contour>
    </TTGlyph>
    <TTGlyph name="IJ" xMin="58" yMin="0" xMax="1239" yMax="1430">
      <component glyphName="I" x="0" y="0" flags="0x0"/>
      <component glyphName="J" x="585" y="0" flags="0x0"/>
    </TTGlyph>
    <TTGlyph name="Iacute" xMin="58" yMin="0" xMax="805" yMax="1810">
      <component glyphName="I" x="0" y="0" flags="0x200"/>
      <component glyphName="acute" x="158" y="380" flags="0x0"/>
    </TTGlyph>
    <TTGlyph name="Ibreve" xMin="59" yMin="0" xMax="782" yMax="1810">
      <component glyphName="I" x="1" y="0" flags="0x200"/>
      <component glyphName="breve" x="8" y="380" flags="0x0"/>
    </TTGlyph>
    <TTGlyph name="Icircumflex" xMin="59" yMin="0" xMax="715" yMax="1810">
      <component glyphName="I" x="1" y="0" flags="0x200"/>
      <component glyphName="circumflex" x="23" y="380" flags="0x0"/>
    </TTGlyph>
    <TTGlyph name="Idieresis" xMin="58" yMin="0" xMax="794" yMax="1810">
      <component glyphName="I" x="0" y="0" flags="0x200"/>
      <component glyphName="dieresis" x="-5" y="380" flags="0x0"/>
    </TTGlyph>
    <TTGlyph name="Idotaccent" xMin="58" yMin="0" xMax="619" yMax="1810">
      <component glyphName="I" x="0" y="0" flags="0x200"/>
      <component glyphName="dotaccent" x="170" y="380" flags="0x0"/>
    </TTGlyph>
    <TTGlyph name="Igrave" xMin="58" yMin="0" xMax="553" yMax="1810">
      <component glyphName="I" x="0" y="0" flags="0x200"/>
      <component glyphName="grave" x="-46" y="380" flags="0x0"/>
    </TTGlyph>
    <TTGlyph name="Imacron" xMin="59" yMin="0" xMax="767" yMax="1810">
      <component glyphName="I" x="1" y="0" flags="0x200"/>
      <component glyphName="macron" x="23" y="380" flags="0x0"/>
    </TTGlyph>
    <TTGlyph name="Iogonek" xMin="-192" yMin="-426" xMax="529" yMax="1430">
      <contour>
        <pt x="58" y="0" on="1"/>
        <pt x="344" y="1430" on="1"/>
        <pt x="529" y="1430" on="1"/>
        <pt x="243" y="0" on="1"/>
        <pt x="26" y="-126" on="0"/>
        <pt x="6" y="-228" on="1"/>
        <pt x="-8" y="-296" on="0"/>
        <pt x="77" y="-296" on="1"/>
        <pt x="162" y="-296" on="0"/>
        <pt x="218" y="-276" on="1"/>
        <pt x="192" y="-406" on="1"/>
        <pt x="127" y="-426" on="0"/>
        <pt x="39" y="-426" on="1"/>
        <pt x="-192" y="-426" on="0"/>
        <pt x="-157" y="-253" on="1"/>
        <pt x="-131" y="-122" on="0"/>
      </contour>
    </TTGlyph>
    <TTGlyph name="Iota" xMin="58" yMin="0" xMax="529" yMax="1430">
      <component glyphName="I" x="0" y="0" flags="0x200"/>
    </TTGlyph>
    <TTGlyph name="Iotadieresis" xMin="58" yMin="0" xMax="774" yMax="1810">
      <component glyphName="Iota" x="0" y="0" flags="0x200"/>
      <component glyphName="dieresis" x="-25" y="380" flags="0x0"/>
    </TTGlyph>
    <TTGlyph name="Iotatonos" xMin="46" yMin="0" xMax="782" yMax="1430">
      <contour>
        <pt x="258" y="1430" on="1"/>
        <pt x="497" y="1430" on="1"/>
        <pt x="210" y="1191" on="1"/>
        <pt x="46" y="1191" on="1"/>
      </contour>
      <contour>
        <pt x="782" y="1430" on="1"/>
        <pt x="496" y="0" on="1"/>
        <pt x="311" y="0" on="1"/>
        <pt x="597" y="1430" on="1"/>
      </contour>
    </TTGlyph>
    <TTGlyph name="Itilde" xMin="59" yMin="0" xMax="766" yMax="1810">
      <component glyphName="I" x="1" y="0" flags="0x200"/>
      <component glyphName="tilde" x="23" y="380" flags="0x0"/>
    </TTGlyph>
    <TTGlyph name="J" xMin="-117" yMin="0" xMax="654" yMax="1430">
      <contour>
        <pt x="654" y="1430" on="1"/>
        <pt x="450" y="412" on="1"/>
        <pt x="368" y="0" on="0"/>
        <pt x="-117" y="0" on="1"/>
        <pt x="-87" y="150" on="1"/>
        <pt x="213" y="150" on="0"/>
        <pt x="265" y="412" on="1"/>
        <pt x="469" y="1430" on="1"/>
      </contour>
    </TTGlyph>
    <TTGlyph name="Jcircumflex" xMin="-117" yMin="0" xMax="840" yMax="1810">
      <component glyphName="J" x="0" y="0" flags="0x200"/>
      <component glyphName="circumflex" x="148" y="380" flags="0x0"/>
    </TTGlyph>
    <TTGlyph name="K" xMin="28" yMin="0" xMax="1485" yMax="1430">
      <contour>
        <pt x="499" y="1430" on="1"/>
        <pt x="213" y="0" on="1"/>
        <pt x="28" y="0" on="1"/>
        <pt x="314" y="1430" on="1"/>
      </contour>
      <contour>
        <pt x="1485" y="1430" on="1"/>
        <pt x="695" y="749" on="1"/>
        <pt x="1263" y="0" on="1"/>
        <pt x="1016" y="0" on="1"/>
        <pt x="513" y="698" on="1"/>
        <pt x="535" y="810" on="1"/>
        <pt x="1241" y="1430" on="1"/>
      </contour>
    </TTGlyph>
    <TTGlyph name="Kappa" xMin="28" yMin="0" xMax="1485" yMax="1430">
      <component glyphName="K" x="0" y="0" flags="0x200"/>
    </TTGlyph>
    <TTGlyph name="Kcommaaccent" xMin="28" yMin="-380" xMax="1485" yMax="1430">
      <component glyphName="K" x="0" y="0" flags="0x200"/>
      <component glyphName="commaccent" x="554" y="0" flags="0x0"/>
    </TTGlyph>
    <TTGlyph name="L" xMin="28" yMin="0" xMax="991" yMax="1430">
      <contour>
        <pt x="499" y="1430" on="1"/>
        <pt x="243" y="150" on="1"/>
        <pt x="991" y="150" on="1"/>
        <pt x="961" y="0" on="1"/>
        <pt x="28" y="0" on="1"/>
        <pt x="314" y="1430" on="1"/>
      </contour>
    </TTGlyph>
    <TTGlyph name="Lacute" xMin="28" yMin="0" xMax="991" yMax="1810">
      <component glyphName="L" x="0" y="0" flags="0x200"/>
      <component glyphName="acute" x="152" y="380" flags="0x0"/>
    </TTGlyph>
    <TTGlyph name="Lambda" xMin="-117" yMin="0" xMax="1305" yMax="1430">
      <contour>
        <pt x="-117" y="0" on="1"/>
        <pt x="776" y="1430" on="1"/>
        <pt x="981" y="1430" on="1"/>
        <pt x="1305" y="0" on="1"/>
        <pt x="1110" y="0" on="1"/>
        <pt x="844" y="1238" on="1"/>
        <pt x="85" y="0" on="1"/>
      </contour>
    </TTGlyph>
    <TTGlyph name="Lcaron" xMin="28" yMin="0" xMax="1024" yMax="1430">
      <contour>
        <pt x="499" y="1430" on="1"/>
        <pt x="243" y="150" on="1"/>
        <pt x="991" y="150" on="1"/>
        <pt x="961" y="0" on="1"/>
        <pt x="28" y="0" on="1"/>
        <pt x="314" y="1430" on="1"/>
      </contour>
      <contour>
        <pt x="1024" y="1430" on="1"/>
        <pt x="787" y="995" on="1"/>
        <pt x="602" y="995" on="1"/>
        <pt x="839" y="1430" on="1"/>
      </contour>
    </TTGlyph>
    <TTGlyph name="Lcommaaccent" xMin="28" yMin="-380" xMax="991" yMax="1430">
      <component glyphName="L" x="0" y="0" flags="0x200"/>
      <component glyphName="commaccent" x="394" y="0" flags="0x0"/>
    </TTGlyph>
    <TTGlyph name="Ldot" xMin="28" yMin="0" xMax="991" yMax="1430">
      <component glyphName="L" x="0" y="0" flags="0x200"/>
      <component glyphName="periodcentered" x="478" y="190" flags="0x0"/>
    </TTGlyph>
    <TTGlyph name="Lslash" xMin="-58" yMin="0" xMax="971" yMax="1430">
      <contour>
        <pt x="150" y="712" on="1"/>
        <pt x="294" y="1430" on="1"/>
        <pt x="479" y="1430" on="1"/>
        <pt x="362" y="848" on="1"/>
        <pt x="733" y="1086" on="1"/>
        <pt x="697" y="906" on="1"/>
        <pt x="326" y="668" on="1"/>
        <pt x="223" y="150" on="1"/>
        <pt x="971" y="150" on="1"/>
        <pt x="941" y="0" on="1"/>
        <pt x="8" y="0" on="1"/>
        <pt x="114" y="532" on="1"/>
        <pt x="-58" y="422" on="1"/>
        <pt x="-22" y="602" on="1"/>
      </contour>
    </TTGlyph>
    <TTGlyph name="M" xMin="28" yMin="0" xMax="1814" yMax="1430">
      <contour>
        <pt x="28" y="0" on="1"/>
        <pt x="314" y="1430" on="1"/>
        <pt x="549" y="1430" on="1"/>
        <pt x="835" y="237" on="1"/>
        <pt x="1589" y="1430" on="1"/>
        <pt x="1814" y="1430" on="1"/>
        <pt x="1528" y="0" on="1"/>
        <pt x="1363" y="0" on="1"/>
        <pt x="1594" y="1153" on="1"/>
        <pt x="855" y="0" on="1"/>
        <pt x="709" y="0" on="1"/>
        <pt x="424" y="1153" on="1"/>
        <pt x="193" y="0" on="1"/>
      </contour>
    </TTGlyph>
    <TTGlyph name="MT.sign" xMin="100" yMin="-46" xMax="1624" yMax="1476">
      <contour>
        <pt x="1181" y="332" on="1"/>
        <pt x="1181" y="434" on="1"/>
        <pt x="926" y="447" on="1"/>
        <pt x="926" y="987" on="1"/>
        <pt x="1053" y="987" on="1"/>
        <pt x="1104" y="587" on="1"/>
        <pt x="1219" y="587" on="1"/>
        <pt x="1181" y="1098" on="1"/>
        <pt x="942" y="1098" on="1"/>
        <pt x="862" y="1060" on="1"/>
        <pt x="783" y="1098" on="1"/>
        <pt x="543" y="1098" on="1"/>
        <pt x="505" y="587" on="1"/>
        <pt x="619" y="587" on="1"/>
        <pt x="670" y="987" on="1"/>
        <pt x="798" y="987" on="1"/>
        <pt x="798" y="447" on="1"/>
        <pt x="543" y="434" on="1"/>
        <pt x="543" y="332" on="1"/>
      </contour>
      <contour>
        <pt x="534" y="1330" on="1"/>
        <pt x="571" y="1419" on="1"/>
        <pt x="660" y="1382" on="1"/>
        <pt x="713" y="1462" on="1"/>
        <pt x="794" y="1409" on="1"/>
        <pt x="862" y="1476" on="1"/>
        <pt x="930" y="1409" on="1"/>
        <pt x="1011" y="1462" on="1"/>
        <pt x="1064" y="1382" on="1"/>
        <pt x="1153" y="1419" on="1"/>
        <pt x="1190" y="1330" on="1"/>
        <pt x="1284" y="1349" on="1"/>
        <pt x="1304" y="1253" on="1"/>
        <pt x="1401" y="1253" on="1"/>
        <pt x="1401" y="1157" on="1"/>
        <pt x="1495" y="1138" on="1"/>
        <pt x="1476" y="1044" on="1"/>
        <pt x="1565" y="1007" on="1"/>
        <pt x="1529" y="917" on="1"/>
        <pt x="1610" y="865" on="1"/>
        <pt x="1556" y="783" on="1"/>
        <pt x="1624" y="716" on="1"/>
        <pt x="1555" y="647" on="1"/>
        <pt x="1610" y="565" on="1"/>
        <pt x="1528" y="513" on="1"/>
        <pt x="1565" y="423" on="1"/>
        <pt x="1476" y="386" on="1"/>
        <pt x="1495" y="292" on="1"/>
        <pt x="1401" y="273" on="1"/>
        <pt x="1401" y="177" on="1"/>
        <pt x="1304" y="177" on="1"/>
        <pt x="1284" y="81" on="1"/>
        <pt x="1190" y="100" on="1"/>
        <pt x="1153" y="11" on="1"/>
        <pt x="1064" y="48" on="1"/>
        <pt x="1011" y="-32" on="1"/>
        <pt x="930" y="21" on="1"/>
        <pt x="862" y="-46" on="1"/>
        <pt x="794" y="21" on="1"/>
        <pt x="713" y="-32" on="1"/>
        <pt x="660" y="48" on="1"/>
        <pt x="571" y="11" on="1"/>
        <pt x="534" y="100" on="1"/>
        <pt x="439" y="81" on="1"/>
        <pt x="420" y="177" on="1"/>
        <pt x="323" y="177" on="1"/>
        <pt x="323" y="273" on="1"/>
        <pt x="228" y="292" on="1"/>
        <pt x="247" y="386" on="1"/>
        <pt x="157" y="425" on="1"/>
        <pt x="194" y="513" on="1"/>
        <pt x="114" y="566" on="1"/>
        <pt x="169" y="647" on="1"/>
        <pt x="100" y="716" on="1"/>
        <pt x="169" y="783" on="1"/>
        <pt x="114" y="865" on="1"/>
        <pt x="196" y="919" on="1"/>
        <pt x="159" y="1007" on="1"/>
        <pt x="248" y="1044" on="1"/>
        <pt x="229" y="1138" on="1"/>
        <pt x="323" y="1157" on="1"/>
        <pt x="323" y="1253" on="1"/>
        <pt x="420" y="1253" on="1"/>
        <pt x="439" y="1349" on="1"/>
      </contour>
      <contour>
        <pt x="862" y="1347" on="1"/>
        <pt x="600" y="1347" on="0"/>
        <pt x="230" y="977" on="0"/>
        <pt x="230" y="716" on="1"/>
        <pt x="230" y="453" on="0"/>
        <pt x="600" y="83" on="0"/>
        <pt x="862" y="83" on="1"/>
        <pt x="1124" y="83" on="0"/>
        <pt x="1494" y="453" on="0"/>
        <pt x="1494" y="716" on="1"/>
        <pt x="1494" y="977" on="0"/>
        <pt x="1124" y="1347" on="0"/>
      </contour>
      <contour>
        <pt x="1101" y="1293" on="0"/>
        <pt x="1439" y="954" on="0"/>
        <pt x="1439" y="716" on="1"/>
        <pt x="1439" y="476" on="0"/>
        <pt x="1101" y="137" on="0"/>
        <pt x="862" y="137" on="1"/>
        <pt x="623" y="137" on="0"/>
        <pt x="285" y="476" on="0"/>
        <pt x="285" y="716" on="1"/>
        <pt x="285" y="954" on="0"/>
        <pt x="623" y="1293" on="0"/>
        <pt x="862" y="1293" on="1"/>
      </contour>
    </TTGlyph>
    <TTGlyph name="Mu" xMin="28" yMin="0" xMax="1814" yMax="1430">
      <component glyphName="M" x="0" y="0" flags="0x200"/>
    </TTGlyph>
    <TTGlyph name="N" xMin="28" yMin="0" xMax="1549" yMax="1430">
      <contour>
        <pt x="28" y="0" on="1"/>
        <pt x="314" y="1430" on="1"/>
        <pt x="499" y="1430" on="1"/>
        <pt x="1140" y="261" on="1"/>
        <pt x="1374" y="1430" on="1"/>
        <pt x="1549" y="1430" on="1"/>
        <pt x="1263" y="0" on="1"/>
        <pt x="1078" y="0" on="1"/>
        <pt x="440" y="1189" on="1"/>
        <pt x="203" y="0" on="1"/>
      </contour>
    </TTGlyph>
    <TTGlyph name="Nacute" xMin="28" yMin="0" xMax="1549" yMax="1810">
      <component glyphName="N" x="0" y="0" flags="0x200"/>
      <component glyphName="acute" x="603" y="380" flags="0x0"/>
    </TTGlyph>
    <TTGlyph name="Ncaron" xMin="28" yMin="0" xMax="1549" yMax="1810">
      <component glyphName="N" x="0" y="0" flags="0x200"/>
      <component glyphName="caron" x="498" y="380" flags="0x0"/>
    </TTGlyph>
    <TTGlyph name="Ncommaaccent" xMin="28" yMin="-380" xMax="1549" yMax="1430">
      <component glyphName="N" x="0" y="0" flags="0x200"/>
      <component glyphName="commaccent" x="545" y="0" flags="0x0"/>
    </TTGlyph>
    <TTGlyph name="Ntilde" xMin="28" yMin="0" xMax="1549" yMax="1810">
      <component glyphName="N" x="0" y="0" flags="0x200"/>
      <component glyphName="tilde" x="498" y="380" flags="0x0"/>
    </TTGlyph>
    <TTGlyph name="Nu" xMin="28" yMin="0" xMax="1549" yMax="1430">
      <component glyphName="N" x="0" y="0" flags="0x200"/>
    </TTGlyph>
    <TTGlyph name="O" xMin="-24" yMin="-10" xMax="1691" yMax="1440">
      <contour>
        <pt x="201" y="140" on="0"/>
        <pt x="724" y="140" on="1"/>
        <pt x="1236" y="140" on="0"/>
        <pt x="1352" y="719" on="1"/>
        <pt x="1466" y="1290" on="0"/>
        <pt x="954" y="1290" on="1"/>
        <pt x="431" y="1290" on="0"/>
        <pt x="317" y="719" on="1"/>
      </contour>
      <contour>
        <pt x="121" y="713" on="1"/>
        <pt x="266" y="1440" on="0"/>
        <pt x="984" y="1440" on="1"/>
        <pt x="1691" y="1440" on="0"/>
        <pt x="1546" y="713" on="1"/>
        <pt x="1401" y="-10" on="0"/>
        <pt x="694" y="-10" on="1"/>
        <pt x="-24" y="-10" on="0"/>
      </contour>
    </TTGlyph>
    <TTGlyph name="OE" xMin="-42" yMin="0" xMax="2219" yMax="1430">
      <contour>
        <pt x="183" y="150" on="0"/>
        <pt x="706" y="150" on="1"/>
        <pt x="1218" y="150" on="0"/>
        <pt x="1332" y="719" on="1"/>
        <pt x="1444" y="1280" on="0"/>
        <pt x="932" y="1280" on="1"/>
        <pt x="409" y="1280" on="0"/>
        <pt x="297" y="719" on="1"/>
      </contour>
      <contour>
        <pt x="101" y="713" on="1"/>
        <pt x="244" y="1430" on="0"/>
        <pt x="962" y="1430" on="1"/>
        <pt x="2219" y="1430" on="1"/>
        <pt x="2189" y="1280" on="1"/>
        <pt x="1414" y="1280" on="1"/>
        <pt x="1579" y="1132" on="0"/>
        <pt x="1543" y="800" on="1"/>
        <pt x="2058" y="800" on="1"/>
        <pt x="2028" y="650" on="1"/>
        <pt x="1513" y="650" on="1"/>
        <pt x="1412" y="293" on="0"/>
        <pt x="1188" y="150" on="1"/>
        <pt x="1978" y="150" on="1"/>
        <pt x="1948" y="0" on="1"/>
        <pt x="676" y="0" on="1"/>
        <pt x="-42" y="0" on="0"/>
      </contour>
    </TTGlyph>
    <TTGlyph name="Oacute" xMin="-24" yMin="-10" xMax="1691" yMax="1810">
      <component glyphName="O" x="0" y="0" flags="0x200"/>
      <component glyphName="acute" x="678" y="380" flags="0x0"/>
    </TTGlyph>
    <TTGlyph name="Obreve" xMin="-24" yMin="-10" xMax="1691" yMax="1810">
      <component glyphName="O" x="0" y="0" flags="0x200"/>
      <component glyphName="breve" x="568" y="380" flags="0x0"/>
    </TTGlyph>
    <TTGlyph name="Ocircumflex" xMin="-24" yMin="-10" xMax="1691" yMax="1810">
      <component glyphName="O" x="0" y="0" flags="0x200"/>
      <component glyphName="circumflex" x="563" y="380" flags="0x0"/>
    </TTGlyph>
    <TTGlyph name="Odieresis" xMin="-24" yMin="-10" xMax="1691" yMax="1810">
      <component glyphName="O" x="0" y="0" flags="0x200"/>
      <component glyphName="dieresis" x="555" y="380" flags="0x0"/>
    </TTGlyph>
    <TTGlyph name="Ograve" xMin="-24" yMin="-10" xMax="1691" yMax="1810">
      <component glyphName="O" x="0" y="0" flags="0x200"/>
      <component glyphName="grave" x="544" y="380" flags="0x0"/>
    </TTGlyph>
    <TTGlyph name="Ohungarumlaut" xMin="-24" yMin="-10" xMax="1691" yMax="1810">
      <component glyphName="O" x="0" y="0" flags="0x200"/>
      <component glyphName="hungarumlaut" x="503" y="380" flags="0x0"/>
    </TTGlyph>
    <TTGlyph name="Omacron" xMin="-24" yMin="-10" xMax="1691" yMax="1810">
      <component glyphName="O" x="0" y="0" flags="0x200"/>
      <component glyphName="macron" x="583" y="380" flags="0x0"/>
    </TTGlyph>
    <TTGlyph name="Omega" xMin="-7" yMin="0" xMax="1638" yMax="1450">
      <contour>
        <pt x="-7" y="0" on="1"/>
        <pt x="23" y="150" on="1"/>
        <pt x="328" y="150" on="1"/>
        <pt x="62" y="420" on="0"/>
        <pt x="138" y="800" on="1"/>
        <pt x="268" y="1450" on="0"/>
        <pt x="953" y="1450" on="1"/>
        <pt x="1638" y="1450" on="0"/>
        <pt x="1508" y="800" on="1"/>
        <pt x="1432" y="420" on="0"/>
        <pt x="1058" y="150" on="1"/>
        <pt x="1363" y="150" on="1"/>
        <pt x="1333" y="0" on="1"/>
        <pt x="783" y="0" on="1"/>
        <pt x="813" y="150" on="1"/>
        <pt x="1247" y="420" on="0"/>
        <pt x="1323" y="800" on="1"/>
        <pt x="1423" y="1300" on="0"/>
        <pt x="923" y="1300" on="1"/>
        <pt x="423" y="1300" on="0"/>
        <pt x="323" y="800" on="1"/>
        <pt x="247" y="420" on="0"/>
        <pt x="573" y="150" on="1"/>
        <pt x="543" y="0" on="1"/>
      </contour>
    </TTGlyph>
    <TTGlyph name="Omegatonos" xMin="46" yMin="0" xMax="1741" yMax="1450">
      <contour>
        <pt x="258" y="1430" on="1"/>
        <pt x="497" y="1430" on="1"/>
        <pt x="210" y="1191" on="1"/>
        <pt x="46" y="1191" on="1"/>
      </contour>
      <contour>
        <pt x="96" y="0" on="1"/>
        <pt x="126" y="150" on="1"/>
        <pt x="431" y="150" on="1"/>
        <pt x="165" y="420" on="0"/>
        <pt x="241" y="800" on="1"/>
        <pt x="371" y="1450" on="0"/>
        <pt x="1056" y="1450" on="1"/>
        <pt x="1741" y="1450" on="0"/>
        <pt x="1611" y="800" on="1"/>
        <pt x="1535" y="420" on="0"/>
        <pt x="1161" y="150" on="1"/>
        <pt x="1466" y="150" on="1"/>
        <pt x="1436" y="0" on="1"/>
        <pt x="886" y="0" on="1"/>
        <pt x="916" y="150" on="1"/>
        <pt x="1350" y="420" on="0"/>
        <pt x="1426" y="800" on="1"/>
        <pt x="1526" y="1300" on="0"/>
        <pt x="1026" y="1300" on="1"/>
        <pt x="526" y="1300" on="0"/>
        <pt x="426" y="800" on="1"/>
        <pt x="350" y="420" on="0"/>
        <pt x="676" y="150" on="1"/>
        <pt x="646" y="0" on="1"/>
      </contour>
    </TTGlyph>
    <TTGlyph name="Omicron" xMin="-24" yMin="-10" xMax="1691" yMax="1440">
      <component glyphName="O" x="0" y="0" flags="0x200"/>
    </TTGlyph>
    <TTGlyph name="Omicrontonos" xMin="46" yMin="-10" xMax="1794" yMax="1440">
      <contour>
        <pt x="258" y="1430" on="1"/>
        <pt x="497" y="1430" on="1"/>
        <pt x="210" y="1191" on="1"/>
        <pt x="46" y="1191" on="1"/>
      </contour>
      <contour>
        <pt x="304" y="140" on="0"/>
        <pt x="827" y="140" on="1"/>
        <pt x="1339" y="140" on="0"/>
        <pt x="1455" y="719" on="1"/>
        <pt x="1569" y="1290" on="0"/>
        <pt x="1057" y="1290" on="1"/>
        <pt x="534" y="1290" on="0"/>
        <pt x="420" y="719" on="1"/>
      </contour>
      <contour>
        <pt x="223" y="713" on="1"/>
        <pt x="369" y="1440" on="0"/>
        <pt x="1087" y="1440" on="1"/>
        <pt x="1794" y="1440" on="0"/>
        <pt x="1648" y="713" on="1"/>
        <pt x="1504" y="-10" on="0"/>
        <pt x="797" y="-10" on="1"/>
        <pt x="79" y="-10" on="0"/>
      </contour>
    </TTGlyph>
    <TTGlyph name="Oslash" xMin="26" yMin="-10" xMax="1602" yMax="1440">
      <contour>
        <pt x="1203" y="1229" on="1"/>
        <pt x="1102" y="1290" on="0"/>
        <pt x="934" y="1290" on="1"/>
        <pt x="411" y="1290" on="0"/>
        <pt x="297" y="719" on="1"/>
        <pt x="244" y="455" on="0"/>
        <pt x="324" y="311" on="1"/>
      </contour>
      <contour>
        <pt x="421" y="207" on="1"/>
        <pt x="526" y="140" on="0"/>
        <pt x="704" y="140" on="1"/>
        <pt x="1216" y="140" on="0"/>
        <pt x="1332" y="719" on="1"/>
        <pt x="1385" y="985" on="0"/>
        <pt x="1302" y="1127" on="1"/>
      </contour>
      <contour>
        <pt x="1444" y="1275" on="1"/>
        <pt x="1602" y="1093" on="0"/>
        <pt x="1526" y="713" on="1"/>
        <pt x="1381" y="-10" on="0"/>
        <pt x="674" y="-10" on="1"/>
        <pt x="434" y="-10" on="0"/>
        <pt x="291" y="71" on="1"/>
        <pt x="223" y="0" on="1"/>
        <pt x="26" y="0" on="1"/>
        <pt x="180" y="161" on="1"/>
        <pt x="26" y="341" on="0"/>
        <pt x="101" y="713" on="1"/>
        <pt x="246" y="1440" on="0"/>
        <pt x="964" y="1440" on="1"/>
        <pt x="1192" y="1440" on="0"/>
        <pt x="1332" y="1364" on="1"/>
        <pt x="1395" y="1430" on="1"/>
        <pt x="1593" y="1430" on="1"/>
      </contour>
    </TTGlyph>
    <TTGlyph name="Otilde" xMin="-24" yMin="-10" xMax="1691" yMax="1810">
      <component glyphName="O" x="0" y="0" flags="0x200"/>
      <component glyphName="tilde" x="583" y="380" flags="0x0"/>
    </TTGlyph>
    <TTGlyph name="P" xMin="28" yMin="0" xMax="1332" yMax="1430">
      <contour>
        <pt x="28" y="0" on="1"/>
        <pt x="314" y="1430" on="1"/>
        <pt x="894" y="1430" on="1"/>
        <pt x="1332" y="1430" on="0"/>
        <pt x="1255" y="1047" on="1"/>
        <pt x="1172" y="630" on="0"/>
        <pt x="555" y="538" on="1"/>
        <pt x="548" y="694" on="1"/>
        <pt x="1001" y="759" on="0"/>
        <pt x="1057" y="1039" on="1"/>
        <pt x="1104" y="1277" on="0"/>
        <pt x="846" y="1277" on="1"/>
        <pt x="468" y="1277" on="1"/>
        <pt x="213" y="0" on="1"/>
      </contour>
    </TTGlyph>
    <TTGlyph name="Phi" xMin="-12" yMin="0" xMax="1739" yMax="1430">
      <contour>
        <pt x="651" y="113" on="1"/>
        <pt x="-12" y="150" on="0"/>
        <pt x="101" y="713" on="1"/>
        <pt x="214" y="1280" on="0"/>
        <pt x="891" y="1317" on="1"/>
        <pt x="914" y="1430" on="1"/>
        <pt x="1098" y="1430" on="1"/>
        <pt x="1076" y="1318" on="1"/>
        <pt x="1739" y="1284" on="0"/>
        <pt x="1625" y="713" on="1"/>
        <pt x="1511" y="145" on="0"/>
        <pt x="834" y="112" on="1"/>
        <pt x="812" y="0" on="1"/>
        <pt x="628" y="0" on="1"/>
      </contour>
      <contour>
        <pt x="681" y="264" on="1"/>
        <pt x="861" y="1166" on="1"/>
        <pt x="378" y="1130" on="0"/>
        <pt x="296" y="719" on="1"/>
        <pt x="212" y="301" on="0"/>
      </contour>
      <contour>
        <pt x="1045" y="1167" on="1"/>
        <pt x="865" y="263" on="1"/>
        <pt x="1347" y="297" on="0"/>
        <pt x="1432" y="719" on="1"/>
        <pt x="1515" y="1134" on="0"/>
      </contour>
    </TTGlyph>
    <TTGlyph name="Pi" xMin="28" yMin="0" xMax="1499" yMax="1430">
      <contour>
        <pt x="28" y="0" on="1"/>
        <pt x="314" y="1430" on="1"/>
        <pt x="1499" y="1430" on="1"/>
        <pt x="1213" y="0" on="1"/>
        <pt x="1028" y="0" on="1"/>
        <pt x="1284" y="1280" on="1"/>
        <pt x="469" y="1280" on="1"/>
        <pt x="213" y="0" on="1"/>
      </contour>
    </TTGlyph>
    <TTGlyph name="Psi" xMin="69" yMin="0" xMax="1714" yMax="1430">
      <contour>
        <pt x="725" y="573" on="1"/>
        <pt x="897" y="1430" on="1"/>
        <pt x="1081" y="1430" on="1"/>
        <pt x="909" y="573" on="1"/>
        <pt x="1364" y="607" on="0"/>
        <pt x="1440" y="988" on="1"/>
        <pt x="1529" y="1430" on="1"/>
        <pt x="1714" y="1430" on="1"/>
        <pt x="1625" y="988" on="1"/>
        <pt x="1519" y="457" on="0"/>
        <pt x="879" y="422" on="1"/>
        <pt x="795" y="0" on="1"/>
        <pt x="611" y="0" on="1"/>
        <pt x="695" y="422" on="1"/>
        <pt x="69" y="457" on="0"/>
        <pt x="175" y="988" on="1"/>
        <pt x="264" y="1430" on="1"/>
        <pt x="449" y="1430" on="1"/>
        <pt x="360" y="988" on="1"/>
        <pt x="284" y="607" on="0"/>
      </contour>
    </TTGlyph>
    <TTGlyph name="Q" xMin="-15" yMin="-390" xMax="1691" yMax="1440">
      <contour>
        <pt x="724" y="140" on="1"/>
        <pt x="1236" y="140" on="0"/>
        <pt x="1352" y="719" on="1"/>
        <pt x="1466" y="1290" on="0"/>
        <pt x="954" y="1290" on="1"/>
        <pt x="431" y="1290" on="0"/>
        <pt x="317" y="719" on="1"/>
        <pt x="201" y="140" on="0"/>
      </contour>
      <contour>
        <pt x="600" y="-7" on="1"/>
        <pt x="-15" y="35" on="0"/>
        <pt x="121" y="713" on="1"/>
        <pt x="266" y="1440" on="0"/>
        <pt x="984" y="1440" on="1"/>
        <pt x="1691" y="1440" on="0"/>
        <pt x="1546" y="713" on="1"/>
        <pt x="1411" y="40" on="0"/>
        <pt x="782" y="-6" on="1"/>
        <pt x="808" y="-237" on="0"/>
        <pt x="1065" y="-240" on="1"/>
        <pt x="1175" y="-240" on="0"/>
        <pt x="1261" y="-210" on="1"/>
        <pt x="1231" y="-360" on="1"/>
        <pt x="1145" y="-390" on="0"/>
        <pt x="1045" y="-390" on="1"/>
        <pt x="602" y="-390" on="0"/>
      </contour>
    </TTGlyph>
    <TTGlyph name="R" xMin="28" yMin="0" xMax="1332" yMax="1430">
      <contour>
        <pt x="28" y="0" on="1"/>
        <pt x="314" y="1430" on="1"/>
        <pt x="924" y="1430" on="1"/>
        <pt x="1332" y="1430" on="0"/>
        <pt x="1263" y="1087" on="1"/>
        <pt x="1208" y="808" on="0"/>
        <pt x="782" y="654" on="1"/>
        <pt x="1138" y="0" on="1"/>
        <pt x="914" y="0" on="1"/>
        <pt x="588" y="643" on="1"/>
        <pt x="612" y="764" on="1"/>
        <pt x="1015" y="829" on="0"/>
        <pt x="1065" y="1079" on="1"/>
        <pt x="1104" y="1277" on="0"/>
        <pt x="876" y="1277" on="1"/>
        <pt x="468" y="1277" on="1"/>
        <pt x="213" y="0" on="1"/>
      </contour>
    </TTGlyph>
    <TTGlyph name="Racute" xMin="28" yMin="0" xMax="1332" yMax="1810">
      <component glyphName="R" x="0" y="0" flags="0x200"/>
      <component glyphName="acute" x="451" y="380" flags="0x0"/>
    </TTGlyph>
    <TTGlyph name="Rcaron" xMin="28" yMin="0" xMax="1332" yMax="1810">
      <component glyphName="R" x="0" y="0" flags="0x200"/>
      <component glyphName="caron" x="325" y="380" flags="0x0"/>
    </TTGlyph>
    <TTGlyph name="Rcommaaccent" xMin="28" yMin="-380" xMax="1332" yMax="1430">
      <component glyphName="R" x="0" y="0" flags="0x200"/>
      <component glyphName="commaccent" x="443" y="0" flags="0x0"/>
    </TTGlyph>
    <TTGlyph name="Rho" xMin="28" yMin="0" xMax="1332" yMax="1430">
      <component glyphName="P" x="0" y="0" flags="0x200"/>
    </TTGlyph>
    <TTGlyph name="S" xMin="18" yMin="-10" xMax="1274" yMax="1440">
      <contour>
        <pt x="18" y="50" on="1"/>
        <pt x="52" y="220" on="1"/>
        <pt x="261" y="140" on="0"/>
        <pt x="522" y="140" on="1"/>
        <pt x="891" y="140" on="0"/>
        <pt x="945" y="410" on="1"/>
        <pt x="991" y="640" on="0"/>
        <pt x="719" y="640" on="1"/>
        <pt x="535" y="640" on="1"/>
        <pt x="86" y="640" on="0"/>
        <pt x="164" y="1030" on="1"/>
        <pt x="246" y="1440" on="0"/>
        <pt x="821" y="1440" on="1"/>
        <pt x="1071" y="1440" on="0"/>
        <pt x="1274" y="1380" on="1"/>
        <pt x="1240" y="1210" on="1"/>
        <pt x="1041" y="1290" on="0"/>
        <pt x="791" y="1290" on="1"/>
        <pt x="401" y="1290" on="0"/>
        <pt x="349" y="1030" on="1"/>
        <pt x="303" y="800" on="0"/>
        <pt x="567" y="800" on="1"/>
        <pt x="751" y="800" on="1"/>
        <pt x="1208" y="800" on="0"/>
        <pt x="1130" y="410" on="1"/>
        <pt x="1046" y="-10" on="0"/>
        <pt x="492" y="-10" on="1"/>
        <pt x="231" y="-10" on="0"/>
      </contour>
    </TTGlyph>
    <TTGlyph name="Sacute" xMin="18" yMin="-10" xMax="1274" yMax="1810">
      <component glyphName="S" x="0" y="0" flags="0x200"/>
      <component glyphName="acute" x="461" y="380" flags="0x0"/>
    </TTGlyph>
    <TTGlyph name="Scaron" xMin="18" yMin="-10" xMax="1274" yMax="1810">
      <component glyphName="S" x="0" y="0" flags="0x200"/>
      <component glyphName="caron" x="375" y="380" flags="0x0"/>
    </TTGlyph>
    <TTGlyph name="Scedilla" xMin="18" yMin="-422" xMax="1274" yMax="1440">
      <contour>
        <pt x="352" y="-5" on="1"/>
        <pt x="172" y="6" on="0"/>
        <pt x="18" y="50" on="1"/>
        <pt x="52" y="220" on="1"/>
        <pt x="261" y="140" on="0"/>
        <pt x="522" y="140" on="1"/>
        <pt x="891" y="140" on="0"/>
        <pt x="945" y="410" on="1"/>
        <pt x="991" y="640" on="0"/>
        <pt x="719" y="640" on="1"/>
        <pt x="535" y="640" on="1"/>
        <pt x="86" y="640" on="0"/>
        <pt x="164" y="1030" on="1"/>
        <pt x="246" y="1440" on="0"/>
        <pt x="821" y="1440" on="1"/>
        <pt x="1071" y="1440" on="0"/>
        <pt x="1274" y="1380" on="1"/>
        <pt x="1240" y="1210" on="1"/>
        <pt x="1041" y="1290" on="0"/>
        <pt x="791" y="1290" on="1"/>
        <pt x="401" y="1290" on="0"/>
        <pt x="349" y="1030" on="1"/>
        <pt x="303" y="800" on="0"/>
        <pt x="567" y="800" on="1"/>
        <pt x="751" y="800" on="1"/>
        <pt x="1208" y="800" on="0"/>
        <pt x="1130" y="410" on="1"/>
        <pt x="1046" y="-10" on="0"/>
        <pt x="492" y="-10" on="1"/>
        <pt x="482" y="-10" on="1"/>
        <pt x="433" y="-77" on="1"/>
        <pt x="647" y="-77" on="0"/>
        <pt x="612" y="-249" on="1"/>
        <pt x="578" y="-422" on="0"/>
        <pt x="337" y="-422" on="1"/>
        <pt x="229" y="-422" on="0"/>
        <pt x="131" y="-372" on="1"/>
        <pt x="152" y="-264" on="1"/>
        <pt x="250" y="-314" on="0"/>
        <pt x="358" y="-314" on="1"/>
        <pt x="466" y="-314" on="0"/>
        <pt x="479" y="-249" on="1"/>
        <pt x="492" y="-185" on="0"/>
        <pt x="409" y="-185" on="1"/>
        <pt x="226" y="-185" on="1"/>
      </contour>
    </TTGlyph>
    <TTGlyph name="Scircumflex" xMin="18" yMin="-10" xMax="1274" yMax="1810">
      <component glyphName="S" x="0" y="0" flags="0x200"/>
      <component glyphName="circumflex" x="375" y="380" flags="0x0"/>
    </TTGlyph>
    <TTGlyph name="Scommaaccent" xMin="18" yMin="-380" xMax="1274" yMax="1440">
      <component glyphName="S" x="0" y="0" flags="0x200"/>
      <component glyphName="commaccent" x="403" y="0" flags="0x0"/>
    </TTGlyph>
    <TTGlyph name="Sigma" xMin="-42" yMin="0" xMax="1224" yMax="1430">
      <contour>
        <pt x="244" y="1430" on="1"/>
        <pt x="1224" y="1430" on="1"/>
        <pt x="1194" y="1280" on="1"/>
        <pt x="414" y="1280" on="1"/>
        <pt x="728" y="750" on="1"/>
        <pt x="208" y="150" on="1"/>
        <pt x="968" y="150" on="1"/>
        <pt x="938" y="0" on="1"/>
        <pt x="-42" y="0" on="1"/>
        <pt x="-12" y="150" on="1"/>
        <pt x="523" y="760" on="1"/>
        <pt x="214" y="1280" on="1"/>
      </contour>
    </TTGlyph>
    <TTGlyph name="T" xMin="164" yMin="0" xMax="1279" yMax="1430">
      <contour>
        <pt x="1279" y="1430" on="1"/>
        <pt x="1249" y="1280" on="1"/>
        <pt x="799" y="1280" on="1"/>
        <pt x="543" y="0" on="1"/>
        <pt x="358" y="0" on="1"/>
        <pt x="614" y="1280" on="1"/>
        <pt x="164" y="1280" on="1"/>
        <pt x="194" y="1430" on="1"/>
      </contour>
    </TTGlyph>
    <TTGlyph name="Tau" xMin="164" yMin="0" xMax="1279" yMax="1430">
      <component glyphName="T" x="0" y="0" flags="0x200"/>
    </TTGlyph>
    <TTGlyph name="Tbar" xMin="36" yMin="0" xMax="1279" yMax="1430">
      <contour>
        <pt x="516" y="790" on="1"/>
        <pt x="614" y="1280" on="1"/>
        <pt x="164" y="1280" on="1"/>
        <pt x="194" y="1430" on="1"/>
        <pt x="1279" y="1430" on="1"/>
        <pt x="1249" y="1280" on="1"/>
        <pt x="799" y="1280" on="1"/>
        <pt x="701" y="790" on="1"/>
        <pt x="1151" y="790" on="1"/>
        <pt x="1121" y="640" on="1"/>
        <pt x="671" y="640" on="1"/>
        <pt x="543" y="0" on="1"/>
        <pt x="358" y="0" on="1"/>
        <pt x="486" y="640" on="1"/>
        <pt x="36" y="640" on="1"/>
        <pt x="66" y="790" on="1"/>
      </contour>
    </TTGlyph>
    <TTGlyph name="Tcaron" xMin="164" yMin="0" xMax="1279" yMax="1810">
      <component glyphName="T" x="0" y="0" flags="0x200"/>
      <component glyphName="caron" x="303" y="380" flags="0x0"/>
    </TTGlyph>
    <TTGlyph name="Tcommaaccent" xMin="125" yMin="-380" xMax="1279" yMax="1430">
      <component glyphName="T" x="0" y="0" flags="0x0"/>
      <component glyphName="commaccent" x="318" y="0" flags="0x0"/>
    </TTGlyph>
    <TTGlyph name="Theta" xMin="-24" yMin="-10" xMax="1691" yMax="1440">
      <contour>
        <pt x="201" y="140" on="0"/>
        <pt x="724" y="140" on="1"/>
        <pt x="1236" y="140" on="0"/>
        <pt x="1352" y="719" on="1"/>
        <pt x="1466" y="1290" on="0"/>
        <pt x="954" y="1290" on="1"/>
        <pt x="431" y="1290" on="0"/>
        <pt x="317" y="719" on="1"/>
      </contour>
      <contour>
        <pt x="121" y="713" on="1"/>
        <pt x="266" y="1440" on="0"/>
        <pt x="984" y="1440" on="1"/>
        <pt x="1691" y="1440" on="0"/>
        <pt x="1546" y="713" on="1"/>
        <pt x="1401" y="-10" on="0"/>
        <pt x="694" y="-10" on="1"/>
        <pt x="-24" y="-10" on="0"/>
      </contour>
      <contour>
        <pt x="514" y="813" on="1"/>
        <pt x="1189" y="813" on="1"/>
        <pt x="1159" y="663" on="1"/>
        <pt x="484" y="663" on="1"/>
      </contour>
    </TTGlyph>
    <TTGlyph name="Thorn" xMin="8" yMin="0" xMax="1250" yMax="1430">
      <contour>
        <pt x="8" y="0" on="1"/>
        <pt x="294" y="1430" on="1"/>
        <pt x="479" y="1430" on="1"/>
        <pt x="417" y="1122" on="1"/>
        <pt x="842" y="1122" on="1"/>
        <pt x="1250" y="1122" on="0"/>
        <pt x="1182" y="779" on="1"/>
        <pt x="1104" y="392" on="0"/>
        <pt x="517" y="300" on="1"/>
        <pt x="510" y="456" on="1"/>
        <pt x="933" y="521" on="0"/>
        <pt x="983" y="771" on="1"/>
        <pt x="1023" y="969" on="0"/>
        <pt x="795" y="969" on="1"/>
        <pt x="387" y="969" on="1"/>
        <pt x="193" y="0" on="1"/>
      </contour>
    </TTGlyph>
    <TTGlyph name="U" xMin="16" yMin="-10" xMax="1494" yMax="1430">
      <contour>
        <pt x="128" y="552" on="1"/>
        <pt x="304" y="1430" on="1"/>
        <pt x="489" y="1430" on="1"/>
        <pt x="313" y="552" on="1"/>
        <pt x="231" y="140" on="0"/>
        <pt x="641" y="140" on="1"/>
        <pt x="1051" y="140" on="0"/>
        <pt x="1133" y="552" on="1"/>
        <pt x="1309" y="1430" on="1"/>
        <pt x="1494" y="1430" on="1"/>
        <pt x="1318" y="552" on="1"/>
        <pt x="1206" y="-10" on="0"/>
        <pt x="611" y="-10" on="1"/>
        <pt x="16" y="-10" on="0"/>
      </contour>
    </TTGlyph>
    <TTGlyph name="Uacute" xMin="16" yMin="-10" xMax="1494" yMax="1810">
      <component glyphName="U" x="0" y="0" flags="0x200"/>
      <component glyphName="acute" x="581" y="380" flags="0x0"/>
    </TTGlyph>
    <TTGlyph name="Ubreve" xMin="16" yMin="-10" xMax="1494" yMax="1810">
      <component glyphName="U" x="0" y="0" flags="0x200"/>
      <component glyphName="breve" x="450" y="380" flags="0x0"/>
    </TTGlyph>
    <TTGlyph name="Ucircumflex" xMin="16" yMin="-10" xMax="1494" yMax="1810">
      <component glyphName="U" x="0" y="0" flags="0x200"/>
      <component glyphName="circumflex" x="465" y="380" flags="0x0"/>
    </TTGlyph>
    <TTGlyph name="Udieresis" xMin="16" yMin="-10" xMax="1494" yMax="1810">
      <component glyphName="U" x="0" y="0" flags="0x200"/>
      <component glyphName="dieresis" x="448" y="380" flags="0x0"/>
    </TTGlyph>
    <TTGlyph name="Ugrave" xMin="16" yMin="-10" xMax="1494" yMax="1810">
      <component glyphName="U" x="0" y="0" flags="0x200"/>
      <component glyphName="grave" x="436" y="380" flags="0x0"/>
    </TTGlyph>
    <TTGlyph name="Uhungarumlaut" xMin="16" yMin="-10" xMax="1494" yMax="1810">
      <component glyphName="U" x="0" y="0" flags="0x200"/>
      <component glyphName="hungarumlaut" x="386" y="380" flags="0x0"/>
    </TTGlyph>
    <TTGlyph name="Umacron" xMin="16" yMin="-10" xMax="1494" yMax="1810">
      <component glyphName="U" x="0" y="0" flags="0x200"/>
      <component glyphName="macron" x="465" y="380" flags="0x0"/>
    </TTGlyph>
    <TTGlyph name="Uogonek" xMin="21" yMin="-426" xMax="1494" yMax="1430">
      <contour>
        <pt x="561" y="-9" on="1"/>
        <pt x="21" y="14" on="0"/>
        <pt x="129" y="552" on="1"/>
        <pt x="304" y="1430" on="1"/>
        <pt x="489" y="1430" on="1"/>
        <pt x="314" y="552" on="1"/>
        <pt x="231" y="140" on="0"/>
        <pt x="641" y="140" on="1"/>
        <pt x="1051" y="140" on="0"/>
        <pt x="1134" y="552" on="1"/>
        <pt x="1309" y="1430" on="1"/>
        <pt x="1494" y="1430" on="1"/>
        <pt x="1319" y="552" on="1"/>
        <pt x="1221" y="65" on="0"/>
        <pt x="761" y="0" on="1"/>
        <pt x="543" y="-126" on="0"/>
        <pt x="523" y="-228" on="1"/>
        <pt x="509" y="-296" on="0"/>
        <pt x="594" y="-296" on="1"/>
        <pt x="679" y="-296" on="0"/>
        <pt x="735" y="-276" on="1"/>
        <pt x="709" y="-406" on="1"/>
        <pt x="644" y="-426" on="0"/>
        <pt x="556" y="-426" on="1"/>
        <pt x="325" y="-426" on="0"/>
        <pt x="360" y="-253" on="1"/>
        <pt x="385" y="-127" on="0"/>
      </contour>
    </TTGlyph>
    <TTGlyph name="Upsilon" xMin="169" yMin="0" xMax="1419" yMax="1430">
      <component glyphName="Y" x="0" y="0" flags="0x200"/>
    </TTGlyph>
    <TTGlyph name="Upsilondieresis" xMin="169" yMin="0" xMax="1419" yMax="1810">
      <component glyphName="Upsilon" x="0" y="0" flags="0x200"/>
      <component glyphName="dieresis" x="333" y="380" flags="0x0"/>
    </TTGlyph>
    <TTGlyph name="Upsilontonos" xMin="46" yMin="0" xMax="1772" yMax="1430">
      <contour>
        <pt x="258" y="1430" on="1"/>
        <pt x="497" y="1430" on="1"/>
        <pt x="210" y="1191" on="1"/>
        <pt x="46" y="1191" on="1"/>
      </contour>
      <contour>
        <pt x="522" y="1430" on="1"/>
        <pt x="727" y="1430" on="1"/>
        <pt x="989" y="683" on="1"/>
        <pt x="1557" y="1430" on="1"/>
        <pt x="1772" y="1430" on="1"/>
        <pt x="1040" y="500" on="1"/>
        <pt x="940" y="0" on="1"/>
        <pt x="755" y="0" on="1"/>
        <pt x="855" y="500" on="1"/>
      </contour>
    </TTGlyph>
    <TTGlyph name="Uring" xMin="16" yMin="-10" xMax="1494" yMax="1849">
      <component glyphName="U" x="0" y="0" flags="0x200"/>
      <component glyphName="ring" x="489" y="278" flags="0x0"/>
    </TTGlyph>
    <TTGlyph name="Utilde" xMin="16" yMin="-10" xMax="1494" yMax="1810">
      <component glyphName="U" x="0" y="0" flags="0x200"/>
      <component glyphName="tilde" x="465" y="380" flags="0x0"/>
    </TTGlyph>
    <TTGlyph name="V" xMin="169" yMin="0" xMax="1591" yMax="1430">
      <contour>
        <pt x="1591" y="1430" on="1"/>
        <pt x="698" y="0" on="1"/>
        <pt x="493" y="0" on="1"/>
        <pt x="169" y="1430" on="1"/>
        <pt x="354" y="1430" on="1"/>
        <pt x="630" y="192" on="1"/>
        <pt x="1389" y="1430" on="1"/>
      </contour>
    </TTGlyph>
    <TTGlyph name="W" xMin="143" yMin="0" xMax="1994" yMax="1430">
      <contour>
        <pt x="194" y="1430" on="1"/>
        <pt x="373" y="1430" on="1"/>
        <pt x="325" y="186" on="1"/>
        <pt x="978" y="1430" on="1"/>
        <pt x="1163" y="1430" on="1"/>
        <pt x="1347" y="186" on="1"/>
        <pt x="1823" y="1430" on="1"/>
        <pt x="1994" y="1430" on="1"/>
        <pt x="1439" y="0" on="1"/>
        <pt x="1187" y="0" on="1"/>
        <pt x="1023" y="1198" on="1"/>
        <pt x="392" y="0" on="1"/>
        <pt x="143" y="0" on="1"/>
      </contour>
    </TTGlyph>
    <TTGlyph name="Wcircumflex" xMin="143" yMin="0" xMax="1994" yMax="1810">
      <component glyphName="W" x="0" y="0" flags="0x200"/>
      <component glyphName="circumflex" x="638" y="380" flags="0x0"/>
    </TTGlyph>
    <TTGlyph name="X" xMin="-117" yMin="0" xMax="1519" yMax="1430">
      <contour>
        <pt x="589" y="715" on="1"/>
        <pt x="169" y="1430" on="1"/>
        <pt x="384" y="1430" on="1"/>
        <pt x="720" y="858" on="1"/>
        <pt x="1284" y="1430" on="1"/>
        <pt x="1519" y="1430" on="1"/>
        <pt x="814" y="715" on="1"/>
        <pt x="1233" y="0" on="1"/>
        <pt x="1018" y="0" on="1"/>
        <pt x="682" y="572" on="1"/>
        <pt x="118" y="0" on="1"/>
        <pt x="-117" y="0" on="1"/>
      </contour>
    </TTGlyph>
    <TTGlyph name="Xi" xMin="-42" yMin="0" xMax="1240" yMax="1430">
      <contour>
        <pt x="-10" y="160" on="1"/>
        <pt x="986" y="160" on="1"/>
        <pt x="954" y="0" on="1"/>
        <pt x="-42" y="0" on="1"/>
      </contour>
      <contour>
        <pt x="244" y="1430" on="1"/>
        <pt x="1240" y="1430" on="1"/>
        <pt x="1208" y="1270" on="1"/>
        <pt x="212" y="1270" on="1"/>
      </contour>
      <contour>
        <pt x="181" y="813" on="1"/>
        <pt x="1057" y="813" on="1"/>
        <pt x="1025" y="653" on="1"/>
        <pt x="149" y="653" on="1"/>
      </contour>
    </TTGlyph>
    <TTGlyph name="Y" xMin="169" yMin="0" xMax="1419" yMax="1430">
      <contour>
        <pt x="169" y="1430" on="1"/>
        <pt x="367" y="1430" on="1"/>
        <pt x="630" y="683" on="1"/>
        <pt x="1197" y="1430" on="1"/>
        <pt x="1419" y="1430" on="1"/>
        <pt x="687" y="500" on="1"/>
        <pt x="587" y="0" on="1"/>
        <pt x="402" y="0" on="1"/>
        <pt x="502" y="500" on="1"/>
      </contour>
    </TTGlyph>
    <TTGlyph name="Yacute" xMin="169" yMin="0" xMax="1419" yMax="1810">
      <component glyphName="Y" x="0" y="0" flags="0x200"/>
      <component glyphName="acute" x="456" y="380" flags="0x0"/>
    </TTGlyph>
    <TTGlyph name="Ycircumflex" xMin="169" yMin="0" xMax="1419" yMax="1810">
      <component glyphName="Y" x="0" y="0" flags="0x200"/>
      <component glyphName="circumflex" x="350" y="380" flags="0x0"/>
    </TTGlyph>
    <TTGlyph name="Ydieresis" xMin="169" yMin="0" xMax="1419" yMax="1810">
      <component glyphName="Y" x="0" y="0" flags="0x200"/>
      <component glyphName="dieresis" x="323" y="380" flags="0x0"/>
    </TTGlyph>
    <TTGlyph name="Z" xMin="-17" yMin="0" xMax="1349" yMax="1430">
      <contour>
        <pt x="1349" y="1430" on="1"/>
        <pt x="1319" y="1280" on="1"/>
        <pt x="236" y="150" on="1"/>
        <pt x="1073" y="150" on="1"/>
        <pt x="1043" y="0" on="1"/>
        <pt x="-17" y="0" on="1"/>
        <pt x="13" y="150" on="1"/>
        <pt x="1103" y="1280" on="1"/>
        <pt x="259" y="1280" on="1"/>
        <pt x="289" y="1430" on="1"/>
      </contour>
    </TTGlyph>
    <TTGlyph name="Zacute" xMin="-17" yMin="0" xMax="1349" yMax="1810">
      <component glyphName="Z" x="0" y="0" flags="0x200"/>
      <component glyphName="acute" x="491" y="380" flags="0x0"/>
    </TTGlyph>
    <TTGlyph name="Zcaron" xMin="-17" yMin="0" xMax="1349" yMax="1810">
      <component glyphName="Z" x="0" y="0" flags="0x200"/>
      <component glyphName="caron" x="375" y="380" flags="0x0"/>
    </TTGlyph>
    <TTGlyph name="Zdot" xMin="-17" yMin="0" xMax="1349" yMax="1810">
      <component glyphName="Z" x="0" y="0" flags="0x200"/>
      <component glyphName="dotaccent" x="523" y="380" flags="0x0"/>
    </TTGlyph>
    <TTGlyph name="Zeta" xMin="-17" yMin="0" xMax="1349" yMax="1430">
      <component glyphName="Z" x="0" y="0" flags="0x200"/>
    </TTGlyph>
    <TTGlyph name="a" xMin="-42" yMin="0" xMax="1056" yMax="1050">
      <contour>
        <pt x="844" y="872" on="1"/>
        <pt x="794" y="896" on="0"/>
        <pt x="654" y="896" on="1"/>
        <pt x="319" y="896" on="0"/>
        <pt x="243" y="513" on="1"/>
        <pt x="172" y="160" on="0"/>
        <pt x="379" y="160" on="1"/>
        <pt x="593" y="160" on="0"/>
        <pt x="753" y="414" on="1"/>
      </contour>
      <contour>
        <pt x="855" y="0" on="1"/>
        <pt x="690" y="0" on="1"/>
        <pt x="720" y="250" on="1"/>
        <pt x="552" y="0" on="0"/>
        <pt x="316" y="0" on="1"/>
        <pt x="-42" y="0" on="0"/>
        <pt x="60" y="511" on="1"/>
        <pt x="168" y="1050" on="0"/>
        <pt x="693" y="1050" on="1"/>
        <pt x="906" y="1050" on="0"/>
        <pt x="1056" y="1007" on="1"/>
      </contour>
    </TTGlyph>
    <TTGlyph name="aacute" xMin="-42" yMin="0" xMax="1056" yMax="1430">
      <component glyphName="a" x="0" y="0" flags="0x200"/>
      <component glyphName="acute" x="364" y="0" flags="0x0"/>
    </TTGlyph>
    <TTGlyph name="abreve" xMin="-42" yMin="0" xMax="1056" yMax="1430">
      <component glyphName="a" x="0" y="0" flags="0x200"/>
      <component glyphName="breve" x="214" y="0" flags="0x0"/>
    </TTGlyph>
    <TTGlyph name="acircumflex" xMin="-42" yMin="0" xMax="1056" yMax="1430">
      <component glyphName="a" x="0" y="0" flags="0x200"/>
      <component glyphName="circumflex" x="249" y="0" flags="0x0"/>
    </TTGlyph>
    <TTGlyph name="acute" xMin="196" yMin="1191" xMax="647" yMax="1430">
      <contour>
        <pt x="408" y="1430" on="1"/>
        <pt x="647" y="1430" on="1"/>
        <pt x="360" y="1191" on="1"/>
        <pt x="196" y="1191" on="1"/>
      </contour>
    </TTGlyph>
    <TTGlyph name="adieresis" xMin="-42" yMin="0" xMax="1056" yMax="1430">
      <component glyphName="a" x="0" y="0" flags="0x200"/>
      <component glyphName="dieresis" x="221" y="0" flags="0x0"/>
    </TTGlyph>
    <TTGlyph name="ae" xMin="-42" yMin="0" xMax="1753" yMax="1050">
      <contour>
        <pt x="482" y="490" on="1"/>
        <pt x="241" y="490" on="0"/>
        <pt x="207" y="320" on="1"/>
        <pt x="173" y="150" on="0"/>
        <pt x="363" y="150" on="1"/>
        <pt x="555" y="150" on="0"/>
        <pt x="698" y="252" on="1"/>
        <pt x="742" y="470" on="1"/>
        <pt x="619" y="490" on="0"/>
      </contour>
      <contour>
        <pt x="956" y="616" on="1"/>
        <pt x="1291" y="616" on="1"/>
        <pt x="1481" y="616" on="0"/>
        <pt x="1509" y="754" on="1"/>
        <pt x="1538" y="902" on="0"/>
        <pt x="1311" y="902" on="1"/>
        <pt x="1031" y="902" on="0"/>
      </contour>
      <contour>
        <pt x="790" y="142" on="1"/>
        <pt x="553" y="0" on="0"/>
        <pt x="333" y="0" on="1"/>
        <pt x="-42" y="0" on="0"/>
        <pt x="21" y="317" on="1"/>
        <pt x="86" y="640" on="0"/>
        <pt x="512" y="640" on="1"/>
        <pt x="649" y="640" on="0"/>
        <pt x="772" y="620" on="1"/>
        <pt x="792" y="719" on="1"/>
        <pt x="828" y="900" on="0"/>
        <pt x="555" y="900" on="1"/>
        <pt x="393" y="900" on="0"/>
        <pt x="213" y="850" on="1"/>
        <pt x="243" y="1000" on="1"/>
        <pt x="423" y="1050" on="0"/>
        <pt x="585" y="1050" on="1"/>
        <pt x="859" y="1050" on="0"/>
        <pt x="941" y="912" on="1"/>
        <pt x="1089" y="1050" on="0"/>
        <pt x="1341" y="1050" on="1"/>
        <pt x="1753" y="1050" on="0"/>
        <pt x="1693" y="751" on="1"/>
        <pt x="1635" y="462" on="0"/>
        <pt x="1260" y="462" on="1"/>
        <pt x="925" y="462" on="1"/>
        <pt x="863" y="150" on="0"/>
        <pt x="1159" y="150" on="1"/>
        <pt x="1388" y="150" on="0"/>
        <pt x="1553" y="280" on="1"/>
        <pt x="1523" y="130" on="1"/>
        <pt x="1358" y="0" on="0"/>
        <pt x="1129" y="0" on="1"/>
        <pt x="882" y="0" on="0"/>
      </contour>
    </TTGlyph>
    <TTGlyph name="afii10017" xMin="-117" yMin="0" xMax="1305" yMax="1430">
      <component glyphName="A" x="0" y="0" flags="0x200"/>
    </TTGlyph>
    <TTGlyph name="afii10018" xMin="28" yMin="0" xMax="1315" yMax="1430">
      <contour>
        <pt x="1315" y="1430" on="1"/>
        <pt x="1285" y="1280" on="1"/>
        <pt x="470" y="1280" on="1"/>
        <pt x="245" y="153" on="1"/>
        <pt x="652" y="153" on="1"/>
        <pt x="890" y="153" on="0"/>
        <pt x="939" y="402" on="1"/>
        <pt x="993" y="670" on="0"/>
        <pt x="701" y="670" on="1"/>
        <pt x="513" y="670" on="1"/>
        <pt x="543" y="820" on="1"/>
        <pt x="740" y="820" on="1"/>
        <pt x="1208" y="820" on="0"/>
        <pt x="1127" y="413" on="1"/>
        <pt x="1044" y="0" on="0"/>
        <pt x="638" y="0" on="1"/>
        <pt x="28" y="0" on="1"/>
        <pt x="314" y="1430" on="1"/>
      </contour>
    </TTGlyph>
    <TTGlyph name="afii10019" xMin="28" yMin="0" xMax="1332" yMax="1430">
      <component glyphName="B" x="0" y="0" flags="0x200"/>
    </TTGlyph>
    <TTGlyph name="afii10020" xMin="28" yMin="0" xMax="1247" yMax="1430">
      <contour>
        <pt x="28" y="0" on="1"/>
        <pt x="314" y="1430" on="1"/>
        <pt x="1247" y="1430" on="1"/>
        <pt x="1217" y="1280" on="1"/>
        <pt x="469" y="1280" on="1"/>
        <pt x="213" y="0" on="1"/>
      </contour>
    </TTGlyph>
    <TTGlyph name="afii10021" xMin="-218" yMin="-380" xMax="1583" yMax="1430">
      <contour>
        <pt x="386" y="150" on="1"/>
        <pt x="1142" y="150" on="1"/>
        <pt x="1368" y="1280" on="1"/>
        <pt x="898" y="1280" on="1"/>
        <pt x="710" y="341" on="0"/>
      </contour>
      <contour>
        <pt x="-218" y="-380" on="1"/>
        <pt x="-112" y="150" on="1"/>
        <pt x="72" y="150" on="1"/>
        <pt x="487" y="150" on="0"/>
        <pt x="713" y="1280" on="1"/>
        <pt x="743" y="1430" on="1"/>
        <pt x="1583" y="1430" on="1"/>
        <pt x="1327" y="150" on="1"/>
        <pt x="1512" y="150" on="1"/>
        <pt x="1406" y="-380" on="1"/>
        <pt x="1221" y="-380" on="1"/>
        <pt x="1297" y="0" on="1"/>
        <pt x="42" y="0" on="1"/>
        <pt x="-34" y="-380" on="1"/>
      </contour>
    </TTGlyph>
    <TTGlyph name="afii10022" xMin="28" yMin="0" xMax="1249" yMax="1430">
      <component glyphName="E" x="0" y="0" flags="0x200"/>
    </TTGlyph>
    <TTGlyph name="afii10023" xMin="28" yMin="0" xMax="1249" yMax="1810">
      <component glyphName="E" x="0" y="0" flags="0x200"/>
      <component glyphName="dieresis" x="328" y="380" flags="0x0"/>
    </TTGlyph>
    <TTGlyph name="afii10024" xMin="-117" yMin="0" xMax="2193" yMax="1430">
      <contour>
        <pt x="1738" y="0" on="1"/>
        <pt x="1507" y="540" on="0"/>
        <pt x="1362" y="693" on="0"/>
        <pt x="1264" y="693" on="1"/>
        <pt x="1290" y="826" on="1"/>
        <pt x="1450" y="826" on="0"/>
        <pt x="1898" y="1430" on="0"/>
        <pt x="2086" y="1430" on="1"/>
        <pt x="2193" y="1430" on="1"/>
        <pt x="2161" y="1270" on="1"/>
        <pt x="2082" y="1270" on="1"/>
        <pt x="1974" y="1270" on="0"/>
        <pt x="1611" y="797" on="0"/>
        <pt x="1489" y="758" on="1"/>
        <pt x="1561" y="745" on="0"/>
        <pt x="1701" y="546" on="0"/>
        <pt x="1942" y="0" on="1"/>
      </contour>
      <contour>
        <pt x="1291" y="1430" on="1"/>
        <pt x="1005" y="0" on="1"/>
        <pt x="820" y="0" on="1"/>
        <pt x="1106" y="1430" on="1"/>
      </contour>
      <contour>
        <pt x="-117" y="0" on="1"/>
        <pt x="342" y="546" on="0"/>
        <pt x="562" y="745" on="0"/>
        <pt x="640" y="758" on="1"/>
        <pt x="542" y="797" on="0"/>
        <pt x="369" y="1270" on="0"/>
        <pt x="251" y="1270" on="1"/>
        <pt x="172" y="1270" on="1"/>
        <pt x="204" y="1430" on="1"/>
        <pt x="311" y="1430" on="1"/>
        <pt x="499" y="1430" on="0"/>
        <pt x="705" y="826" on="0"/>
        <pt x="865" y="826" on="1"/>
        <pt x="839" y="693" on="1"/>
        <pt x="761" y="693" on="0"/>
        <pt x="554" y="540" on="0"/>
        <pt x="107" y="0" on="1"/>
      </contour>
    </TTGlyph>
    <TTGlyph name="afii10025" xMin="-32" yMin="-10" xMax="1161" yMax="1440">
      <contour>
        <pt x="234" y="1380" on="1"/>
        <pt x="446" y="1440" on="0"/>
        <pt x="646" y="1440" on="1"/>
        <pt x="1161" y="1440" on="0"/>
        <pt x="1083" y="1050" on="1"/>
        <pt x="1036" y="814" on="0"/>
        <pt x="830" y="725" on="1"/>
        <pt x="1001" y="640" on="0"/>
        <pt x="953" y="400" on="1"/>
        <pt x="871" y="-10" on="0"/>
        <pt x="356" y="-10" on="1"/>
        <pt x="156" y="-10" on="0"/>
        <pt x="-32" y="50" on="1"/>
        <pt x="0" y="210" on="1"/>
        <pt x="186" y="140" on="0"/>
        <pt x="386" y="140" on="1"/>
        <pt x="716" y="140" on="0"/>
        <pt x="768" y="400" on="1"/>
        <pt x="818" y="650" on="0"/>
        <pt x="566" y="650" on="1"/>
        <pt x="238" y="650" on="1"/>
        <pt x="268" y="800" on="1"/>
        <pt x="593" y="800" on="1"/>
        <pt x="848" y="800" on="0"/>
        <pt x="898" y="1050" on="1"/>
        <pt x="946" y="1290" on="0"/>
        <pt x="616" y="1290" on="1"/>
        <pt x="416" y="1290" on="0"/>
        <pt x="202" y="1220" on="1"/>
      </contour>
    </TTGlyph>
    <TTGlyph name="afii10026" xMin="28" yMin="0" xMax="1499" yMax="1430">
      <contour>
        <pt x="1038" y="0" on="1"/>
        <pt x="1274" y="1182" on="1"/>
        <pt x="213" y="0" on="1"/>
        <pt x="28" y="0" on="1"/>
        <pt x="314" y="1430" on="1"/>
        <pt x="489" y="1430" on="1"/>
        <pt x="253" y="248" on="1"/>
        <pt x="1314" y="1430" on="1"/>
        <pt x="1499" y="1430" on="1"/>
        <pt x="1213" y="0" on="1"/>
      </contour>
    </TTGlyph>
    <TTGlyph name="afii10027" xMin="28" yMin="0" xMax="1499" yMax="1784">
      <contour>
        <pt x="1038" y="0" on="1"/>
        <pt x="1274" y="1182" on="1"/>
        <pt x="213" y="0" on="1"/>
        <pt x="28" y="0" on="1"/>
        <pt x="314" y="1430" on="1"/>
        <pt x="489" y="1430" on="1"/>
        <pt x="253" y="248" on="1"/>
        <pt x="1314" y="1430" on="1"/>
        <pt x="1499" y="1430" on="1"/>
        <pt x="1213" y="0" on="1"/>
      </contour>
      <contour>
        <pt x="705" y="1784" on="1"/>
        <pt x="840" y="1784" on="1"/>
        <pt x="808" y="1624" on="0"/>
        <pt x="948" y="1624" on="1"/>
        <pt x="1088" y="1624" on="0"/>
        <pt x="1120" y="1784" on="1"/>
        <pt x="1255" y="1784" on="1"/>
        <pt x="1201" y="1514" on="0"/>
        <pt x="926" y="1514" on="1"/>
        <pt x="651" y="1514" on="0"/>
      </contour>
    </TTGlyph>
    <TTGlyph name="afii10028" xMin="28" yMin="0" xMax="1401" yMax="1430">
      <contour>
        <pt x="926" y="0" on="1"/>
        <pt x="695" y="540" on="0"/>
        <pt x="550" y="693" on="0"/>
        <pt x="472" y="693" on="1"/>
        <pt x="498" y="826" on="1"/>
        <pt x="658" y="826" on="0"/>
        <pt x="1106" y="1430" on="0"/>
        <pt x="1294" y="1430" on="1"/>
        <pt x="1401" y="1430" on="1"/>
        <pt x="1369" y="1270" on="1"/>
        <pt x="1290" y="1270" on="1"/>
        <pt x="1182" y="1270" on="0"/>
        <pt x="819" y="797" on="0"/>
        <pt x="697" y="758" on="1"/>
        <pt x="769" y="745" on="0"/>
        <pt x="909" y="546" on="0"/>
        <pt x="1150" y="0" on="1"/>
      </contour>
      <contour>
        <pt x="499" y="1430" on="1"/>
        <pt x="213" y="0" on="1"/>
        <pt x="28" y="0" on="1"/>
        <pt x="314" y="1430" on="1"/>
      </contour>
    </TTGlyph>
    <TTGlyph name="afii10029" xMin="-142" yMin="0" xMax="1498" yMax="1430">
      <contour>
        <pt x="-112" y="150" on="1"/>
        <pt x="302" y="150" on="0"/>
        <pt x="432" y="800" on="1"/>
        <pt x="558" y="1430" on="1"/>
        <pt x="1498" y="1430" on="1"/>
        <pt x="1212" y="0" on="1"/>
        <pt x="1027" y="0" on="1"/>
        <pt x="1283" y="1280" on="1"/>
        <pt x="713" y="1280" on="1"/>
        <pt x="617" y="800" on="1"/>
        <pt x="457" y="0" on="0"/>
        <pt x="-142" y="0" on="1"/>
      </contour>
    </TTGlyph>
    <TTGlyph name="afii10030" xMin="28" yMin="0" xMax="1814" yMax="1430">
      <component glyphName="M" x="0" y="0" flags="0x200"/>
    </TTGlyph>
    <TTGlyph name="afii10031" xMin="28" yMin="0" xMax="1499" yMax="1430">
      <contour>
        <pt x="28" y="0" on="1"/>
        <pt x="314" y="1430" on="1"/>
        <pt x="499" y="1430" on="1"/>
        <pt x="375" y="810" on="1"/>
        <pt x="1190" y="810" on="1"/>
        <pt x="1314" y="1430" on="1"/>
        <pt x="1499" y="1430" on="1"/>
        <pt x="1213" y="0" on="1"/>
        <pt x="1028" y="0" on="1"/>
        <pt x="1160" y="660" on="1"/>
        <pt x="345" y="660" on="1"/>
        <pt x="213" y="0" on="1"/>
      </contour>
    </TTGlyph>
    <TTGlyph name="afii10032" xMin="-24" yMin="-10" xMax="1691" yMax="1440">
      <component glyphName="O" x="0" y="0" flags="0x200"/>
    </TTGlyph>
    <TTGlyph name="afii10033" xMin="28" yMin="0" xMax="1499" yMax="1430">
      <contour>
        <pt x="28" y="0" on="1"/>
        <pt x="314" y="1430" on="1"/>
        <pt x="1499" y="1430" on="1"/>
        <pt x="1213" y="0" on="1"/>
        <pt x="1028" y="0" on="1"/>
        <pt x="1284" y="1280" on="1"/>
        <pt x="469" y="1280" on="1"/>
        <pt x="213" y="0" on="1"/>
      </contour>
    </TTGlyph>
    <TTGlyph name="afii10034" xMin="28" yMin="0" xMax="1332" yMax="1430">
      <component glyphName="P" x="0" y="0" flags="0x200"/>
    </TTGlyph>
    <TTGlyph name="afii10035" xMin="-44" yMin="-10" xMax="1384" yMax="1440">
      <component glyphName="C" x="0" y="0" flags="0x200"/>
    </TTGlyph>
    <TTGlyph name="afii10036" xMin="164" yMin="0" xMax="1279" yMax="1430">
      <component glyphName="T" x="0" y="0" flags="0x200"/>
    </TTGlyph>
    <TTGlyph name="afii10037" xMin="36" yMin="0" xMax="1426" yMax="1430">
      <contour>
        <pt x="1426" y="1430" on="1"/>
        <pt x="701" y="268" on="1"/>
        <pt x="533" y="0" on="0"/>
        <pt x="258" y="0" on="1"/>
        <pt x="130" y="0" on="0"/>
        <pt x="36" y="70" on="1"/>
        <pt x="66" y="220" on="1"/>
        <pt x="158" y="150" on="0"/>
        <pt x="275" y="150" on="1"/>
        <pt x="429" y="150" on="0"/>
        <pt x="516" y="271" on="1"/>
        <pt x="194" y="1430" on="1"/>
        <pt x="379" y="1430" on="1"/>
        <pt x="646" y="449" on="1"/>
        <pt x="1224" y="1430" on="1"/>
      </contour>
    </TTGlyph>
    <TTGlyph name="afii10038" xMin="-12" yMin="0" xMax="1739" yMax="1430">
      <contour>
        <pt x="651" y="113" on="1"/>
        <pt x="-12" y="150" on="0"/>
        <pt x="101" y="713" on="1"/>
        <pt x="214" y="1280" on="0"/>
        <pt x="891" y="1317" on="1"/>
        <pt x="914" y="1430" on="1"/>
        <pt x="1098" y="1430" on="1"/>
        <pt x="1076" y="1318" on="1"/>
        <pt x="1739" y="1284" on="0"/>
        <pt x="1625" y="713" on="1"/>
        <pt x="1511" y="145" on="0"/>
        <pt x="834" y="112" on="1"/>
        <pt x="812" y="0" on="1"/>
        <pt x="628" y="0" on="1"/>
      </contour>
      <contour>
        <pt x="681" y="264" on="1"/>
        <pt x="861" y="1166" on="1"/>
        <pt x="378" y="1130" on="0"/>
        <pt x="296" y="719" on="1"/>
        <pt x="212" y="301" on="0"/>
      </contour>
      <contour>
        <pt x="1045" y="1167" on="1"/>
        <pt x="865" y="263" on="1"/>
        <pt x="1347" y="297" on="0"/>
        <pt x="1432" y="719" on="1"/>
        <pt x="1515" y="1134" on="0"/>
      </contour>
    </TTGlyph>
    <TTGlyph name="afii10039" xMin="-117" yMin="0" xMax="1519" yMax="1430">
      <contour>
        <pt x="589" y="715" on="1"/>
        <pt x="169" y="1430" on="1"/>
        <pt x="384" y="1430" on="1"/>
        <pt x="720" y="858" on="1"/>
        <pt x="1284" y="1430" on="1"/>
        <pt x="1519" y="1430" on="1"/>
        <pt x="814" y="715" on="1"/>
        <pt x="1233" y="0" on="1"/>
        <pt x="1018" y="0" on="1"/>
        <pt x="682" y="572" on="1"/>
        <pt x="118" y="0" on="1"/>
        <pt x="-117" y="0" on="1"/>
      </contour>
    </TTGlyph>
    <TTGlyph name="afii10040" xMin="28" yMin="-380" xMax="1426" yMax="1430">
      <contour>
        <pt x="28" y="0" on="1"/>
        <pt x="314" y="1430" on="1"/>
        <pt x="499" y="1430" on="1"/>
        <pt x="243" y="150" on="1"/>
        <pt x="985" y="150" on="1"/>
        <pt x="1241" y="1430" on="1"/>
        <pt x="1426" y="1430" on="1"/>
        <pt x="1170" y="150" on="1"/>
        <pt x="1355" y="150" on="1"/>
        <pt x="1249" y="-380" on="1"/>
        <pt x="1064" y="-380" on="1"/>
        <pt x="1140" y="0" on="1"/>
      </contour>
    </TTGlyph>
    <TTGlyph name="afii10041" xMin="87" yMin="0" xMax="1382" yMax="1430">
      <contour>
        <pt x="1382" y="1430" on="1"/>
        <pt x="1096" y="0" on="1"/>
        <pt x="911" y="0" on="1"/>
        <pt x="1038" y="634" on="1"/>
        <pt x="819" y="520" on="0"/>
        <pt x="586" y="520" on="1"/>
        <pt x="87" y="520" on="0"/>
        <pt x="183" y="1001" on="1"/>
        <pt x="269" y="1430" on="1"/>
        <pt x="454" y="1430" on="1"/>
        <pt x="368" y="998" on="1"/>
        <pt x="303" y="674" on="0"/>
        <pt x="642" y="674" on="1"/>
        <pt x="871" y="674" on="0"/>
        <pt x="1072" y="807" on="1"/>
        <pt x="1197" y="1430" on="1"/>
      </contour>
    </TTGlyph>
    <TTGlyph name="afii10042" xMin="28" yMin="0" xMax="1849" yMax="1430">
      <contour>
        <pt x="28" y="0" on="1"/>
        <pt x="314" y="1430" on="1"/>
        <pt x="499" y="1430" on="1"/>
        <pt x="243" y="150" on="1"/>
        <pt x="733" y="150" on="1"/>
        <pt x="989" y="1430" on="1"/>
        <pt x="1174" y="1430" on="1"/>
        <pt x="918" y="150" on="1"/>
        <pt x="1408" y="150" on="1"/>
        <pt x="1664" y="1430" on="1"/>
        <pt x="1849" y="1430" on="1"/>
        <pt x="1563" y="0" on="1"/>
      </contour>
    </TTGlyph>
    <TTGlyph name="afii10043" xMin="28" yMin="-380" xMax="1849" yMax="1430">
      <contour>
        <pt x="28" y="0" on="1"/>
        <pt x="314" y="1430" on="1"/>
        <pt x="499" y="1430" on="1"/>
        <pt x="243" y="150" on="1"/>
        <pt x="733" y="150" on="1"/>
        <pt x="989" y="1430" on="1"/>
        <pt x="1174" y="1430" on="1"/>
        <pt x="918" y="150" on="1"/>
        <pt x="1408" y="150" on="1"/>
        <pt x="1664" y="1430" on="1"/>
        <pt x="1849" y="1430" on="1"/>
        <pt x="1593" y="150" on="1"/>
        <pt x="1778" y="150" on="1"/>
        <pt x="1672" y="-380" on="1"/>
        <pt x="1487" y="-380" on="1"/>
        <pt x="1563" y="0" on="1"/>
      </contour>
    </TTGlyph>
    <TTGlyph name="afii10044" xMin="228" yMin="0" xMax="1654" yMax="1430">
      <contour>
        <pt x="1055" y="1430" on="1"/>
        <pt x="545" y="153" on="1"/>
        <pt x="953" y="153" on="1"/>
        <pt x="1191" y="153" on="0"/>
        <pt x="1289" y="402" on="1"/>
        <pt x="1397" y="670" on="0"/>
        <pt x="1105" y="670" on="1"/>
        <pt x="917" y="670" on="1"/>
        <pt x="977" y="820" on="1"/>
        <pt x="1175" y="820" on="1"/>
        <pt x="1654" y="820" on="0"/>
        <pt x="1492" y="413" on="1"/>
        <pt x="1326" y="0" on="0"/>
        <pt x="908" y="0" on="1"/>
        <pt x="298" y="0" on="1"/>
        <pt x="810" y="1280" on="1"/>
        <pt x="228" y="1280" on="1"/>
        <pt x="288" y="1430" on="1"/>
      </contour>
    </TTGlyph>
    <TTGlyph name="afii10045" xMin="28" yMin="0" xMax="1729" yMax="1430">
      <contour>
        <pt x="499" y="1430" on="1"/>
        <pt x="244" y="153" on="1"/>
        <pt x="652" y="153" on="1"/>
        <pt x="890" y="153" on="0"/>
        <pt x="939" y="402" on="1"/>
        <pt x="993" y="670" on="0"/>
        <pt x="701" y="670" on="1"/>
        <pt x="513" y="670" on="1"/>
        <pt x="543" y="820" on="1"/>
        <pt x="741" y="820" on="1"/>
        <pt x="1220" y="820" on="0"/>
        <pt x="1139" y="413" on="1"/>
        <pt x="1056" y="0" on="0"/>
        <pt x="638" y="0" on="1"/>
        <pt x="28" y="0" on="1"/>
        <pt x="314" y="1430" on="1"/>
      </contour>
      <contour>
        <pt x="1258" y="0" on="1"/>
        <pt x="1544" y="1430" on="1"/>
        <pt x="1729" y="1430" on="1"/>
        <pt x="1443" y="0" on="1"/>
      </contour>
    </TTGlyph>
    <TTGlyph name="afii10046" xMin="28" yMin="0" xMax="1220" yMax="1430">
      <contour>
        <pt x="499" y="1430" on="1"/>
        <pt x="244" y="153" on="1"/>
        <pt x="652" y="153" on="1"/>
        <pt x="890" y="153" on="0"/>
        <pt x="939" y="402" on="1"/>
        <pt x="993" y="670" on="0"/>
        <pt x="701" y="670" on="1"/>
        <pt x="513" y="670" on="1"/>
        <pt x="543" y="820" on="1"/>
        <pt x="740" y="820" on="1"/>
        <pt x="1220" y="820" on="0"/>
        <pt x="1139" y="413" on="1"/>
        <pt x="1056" y="0" on="0"/>
        <pt x="638" y="0" on="1"/>
        <pt x="28" y="0" on="1"/>
        <pt x="314" y="1430" on="1"/>
      </contour>
    </TTGlyph>
    <TTGlyph name="afii10047" xMin="-7" yMin="-10" xMax="1421" yMax="1440">
      <contour>
        <pt x="25" y="210" on="1"/>
        <pt x="196" y="140" on="0"/>
        <pt x="391" y="140" on="1"/>
        <pt x="933" y="140" on="0"/>
        <pt x="1075" y="650" on="1"/>
        <pt x="185" y="650" on="1"/>
        <pt x="215" y="800" on="1"/>
        <pt x="1106" y="800" on="1"/>
        <pt x="1171" y="1290" on="0"/>
        <pt x="621" y="1290" on="1"/>
        <pt x="426" y="1290" on="0"/>
        <pt x="227" y="1220" on="1"/>
        <pt x="259" y="1380" on="1"/>
        <pt x="456" y="1440" on="0"/>
        <pt x="671" y="1440" on="1"/>
        <pt x="1421" y="1440" on="0"/>
        <pt x="1280" y="735" on="1"/>
        <pt x="1131" y="-10" on="0"/>
        <pt x="381" y="-10" on="1"/>
        <pt x="166" y="-10" on="0"/>
        <pt x="-7" y="50" on="1"/>
      </contour>
    </TTGlyph>
    <TTGlyph name="afii10048" xMin="28" yMin="-10" xMax="2068" yMax="1440">
      <contour>
        <pt x="28" y="0" on="1"/>
        <pt x="314" y="1430" on="1"/>
        <pt x="498" y="1430" on="1"/>
        <pt x="372" y="800" on="1"/>
        <pt x="777" y="800" on="1"/>
        <pt x="939" y="1440" on="0"/>
        <pt x="1491" y="1440" on="1"/>
        <pt x="2068" y="1440" on="0"/>
        <pt x="1923" y="713" on="1"/>
        <pt x="1778" y="-10" on="0"/>
        <pt x="1201" y="-10" on="1"/>
        <pt x="639" y="-10" on="0"/>
        <pt x="746" y="650" on="1"/>
        <pt x="342" y="650" on="1"/>
        <pt x="212" y="0" on="1"/>
      </contour>
      <contour>
        <pt x="1231" y="140" on="1"/>
        <pt x="1613" y="140" on="0"/>
        <pt x="1729" y="719" on="1"/>
        <pt x="1843" y="1290" on="0"/>
        <pt x="1461" y="1290" on="1"/>
        <pt x="1068" y="1290" on="0"/>
        <pt x="954" y="719" on="1"/>
        <pt x="838" y="140" on="0"/>
      </contour>
    </TTGlyph>
    <TTGlyph name="afii10049" xMin="-117" yMin="0" xMax="1279" yMax="1430">
      <contour>
        <pt x="808" y="0" on="1"/>
        <pt x="1063" y="1277" on="1"/>
        <pt x="655" y="1277" on="1"/>
        <pt x="427" y="1277" on="0"/>
        <pt x="388" y="1079" on="1"/>
        <pt x="338" y="829" on="0"/>
        <pt x="735" y="764" on="1"/>
        <pt x="709" y="633" on="1"/>
        <pt x="117" y="0" on="1"/>
        <pt x="-117" y="0" on="1"/>
        <pt x="509" y="649" on="1"/>
        <pt x="133" y="788" on="0"/>
        <pt x="188" y="1067" on="1"/>
        <pt x="261" y="1430" on="0"/>
        <pt x="689" y="1430" on="1"/>
        <pt x="1279" y="1430" on="1"/>
        <pt x="993" y="0" on="1"/>
      </contour>
    </TTGlyph>
    <TTGlyph name="afii10065" xMin="-42" yMin="0" xMax="1056" yMax="1050">
      <component glyphName="a" x="0" y="0" flags="0x200"/>
    </TTGlyph>
    <TTGlyph name="afii10066" xMin="-19" yMin="-10" xMax="1228" yMax="1539">
      <contour>
        <pt x="1058" y="520" on="1"/>
        <pt x="952" y="-10" on="0"/>
        <pt x="474" y="-10" on="1"/>
        <pt x="-19" y="-10" on="0"/>
        <pt x="87" y="520" on="1"/>
        <pt x="152" y="845" on="1"/>
        <pt x="269" y="1430" on="0"/>
        <pt x="833" y="1430" on="1"/>
        <pt x="1035" y="1430" on="0"/>
        <pt x="1228" y="1539" on="1"/>
        <pt x="1195" y="1376" on="1"/>
        <pt x="1023" y="1280" on="0"/>
        <pt x="800" y="1280" on="1"/>
        <pt x="429" y="1280" on="0"/>
        <pt x="344" y="855" on="1"/>
        <pt x="512" y="1050" on="0"/>
        <pt x="696" y="1050" on="1"/>
        <pt x="1164" y="1050" on="0"/>
        <pt x="1063" y="544" on="1"/>
      </contour>
      <contour>
        <pt x="504" y="140" on="1"/>
        <pt x="796" y="140" on="0"/>
        <pt x="872" y="520" on="1"/>
        <pt x="947" y="894" on="0"/>
        <pt x="665" y="894" on="1"/>
        <pt x="352" y="894" on="0"/>
        <pt x="277" y="520" on="1"/>
        <pt x="201" y="140" on="0"/>
      </contour>
    </TTGlyph>
    <TTGlyph name="afii10067" xMin="-44" yMin="-10" xMax="1098" yMax="1060">
      <contour>
        <pt x="514" y="140" on="1"/>
        <pt x="730" y="140" on="0"/>
        <pt x="764" y="310" on="1"/>
        <pt x="794" y="460" on="0"/>
        <pt x="551" y="460" on="1"/>
        <pt x="471" y="460" on="1"/>
        <pt x="495" y="581" on="1"/>
        <pt x="812" y="616" on="0"/>
        <pt x="847" y="790" on="1"/>
        <pt x="871" y="910" on="0"/>
        <pt x="683" y="910" on="1"/>
        <pt x="325" y="910" on="0"/>
        <pt x="248" y="525" on="1"/>
        <pt x="171" y="140" on="0"/>
      </contour>
      <contour>
        <pt x="-44" y="-10" on="0"/>
        <pt x="63" y="525" on="1"/>
        <pt x="170" y="1060" on="0"/>
        <pt x="710" y="1060" on="1"/>
        <pt x="1098" y="1060" on="0"/>
        <pt x="1043" y="787" on="1"/>
        <pt x="1013" y="634" on="0"/>
        <pt x="771" y="555" on="1"/>
        <pt x="1004" y="502" on="0"/>
        <pt x="967" y="313" on="1"/>
        <pt x="902" y="-10" on="0"/>
        <pt x="475" y="-10" on="1"/>
      </contour>
    </TTGlyph>
    <TTGlyph name="afii10068" xMin="-42" yMin="0" xMax="958" yMax="1050">
      <contour>
        <pt x="513" y="0" on="0"/>
        <pt x="374" y="0" on="1"/>
        <pt x="-42" y="0" on="0"/>
        <pt x="18" y="300" on="1"/>
        <pt x="80" y="610" on="0"/>
        <pt x="440" y="610" on="1"/>
        <pt x="530" y="610" on="1"/>
        <pt x="695" y="610" on="0"/>
        <pt x="723" y="750" on="1"/>
        <pt x="753" y="900" on="0"/>
        <pt x="511" y="900" on="1"/>
        <pt x="373" y="900" on="0"/>
        <pt x="176" y="840" on="1"/>
        <pt x="208" y="1000" on="1"/>
        <pt x="403" y="1050" on="0"/>
        <pt x="541" y="1050" on="1"/>
        <pt x="958" y="1050" on="0"/>
        <pt x="898" y="750" on="1"/>
        <pt x="836" y="440" on="0"/>
        <pt x="496" y="440" on="1"/>
        <pt x="406" y="440" on="1"/>
        <pt x="231" y="440" on="0"/>
        <pt x="203" y="300" on="1"/>
        <pt x="173" y="150" on="0"/>
        <pt x="404" y="150" on="1"/>
        <pt x="543" y="150" on="0"/>
        <pt x="740" y="210" on="1"/>
        <pt x="708" y="50" on="1"/>
      </contour>
    </TTGlyph>
    <TTGlyph name="afii10069" xMin="-44" yMin="-10" xMax="1194" yMax="1430">
      <contour>
        <pt x="838" y="576" on="1"/>
        <pt x="863" y="702" on="0"/>
        <pt x="869" y="820" on="1"/>
        <pt x="807" y="910" on="0"/>
        <pt x="613" y="910" on="1"/>
        <pt x="321" y="910" on="0"/>
        <pt x="247" y="540" on="1"/>
        <pt x="167" y="140" on="0"/>
        <pt x="460" y="140" on="1"/>
        <pt x="751" y="140" on="0"/>
      </contour>
      <contour>
        <pt x="1024" y="580" on="1"/>
        <pt x="906" y="-10" on="0"/>
        <pt x="429" y="-10" on="1"/>
        <pt x="-44" y="-10" on="0"/>
        <pt x="66" y="540" on="1"/>
        <pt x="168" y="1050" on="0"/>
        <pt x="612" y="1050" on="1"/>
        <pt x="769" y="1050" on="0"/>
        <pt x="870" y="960" on="1"/>
        <pt x="842" y="1280" on="0"/>
        <pt x="460" y="1280" on="1"/>
        <pt x="294" y="1280" on="1"/>
        <pt x="324" y="1430" on="1"/>
        <pt x="492" y="1430" on="1"/>
        <pt x="1194" y="1430" on="0"/>
      </contour>
    </TTGlyph>
    <TTGlyph name="afii10070" xMin="-42" yMin="0" xMax="1063" yMax="1050">
      <component glyphName="e" x="0" y="0" flags="0x200"/>
    </TTGlyph>
    <TTGlyph name="afii10071" xMin="-42" yMin="0" xMax="1063" yMax="1430">
      <component glyphName="e" x="0" y="0" flags="0x200"/>
      <component glyphName="dieresis" x="180" y="0" flags="0x0"/>
    </TTGlyph>
    <TTGlyph name="afii10072" xMin="-26" yMin="0" xMax="2028" yMax="1050">
      <contour>
        <pt x="1426" y="694" on="1"/>
        <pt x="1554" y="1050" on="0"/>
        <pt x="1864" y="1050" on="1"/>
        <pt x="1944" y="1050" on="0"/>
        <pt x="2028" y="1020" on="1"/>
        <pt x="1998" y="870" on="1"/>
        <pt x="1914" y="900" on="0"/>
        <pt x="1824" y="900" on="1"/>
        <pt x="1629" y="900" on="0"/>
        <pt x="1552" y="515" on="1"/>
        <pt x="1479" y="150" on="0"/>
        <pt x="1664" y="150" on="1"/>
        <pt x="1764" y="150" on="0"/>
        <pt x="1870" y="230" on="1"/>
        <pt x="1840" y="80" on="1"/>
        <pt x="1734" y="0" on="0"/>
        <pt x="1624" y="0" on="1"/>
        <pt x="1274" y="0" on="0"/>
        <pt x="1377" y="515" on="1"/>
        <pt x="1382" y="541" on="1"/>
        <pt x="1081" y="479" on="1"/>
        <pt x="985" y="0" on="1"/>
        <pt x="800" y="0" on="1"/>
        <pt x="888" y="440" on="1"/>
        <pt x="583" y="377" on="1"/>
        <pt x="457" y="0" on="0"/>
        <pt x="138" y="0" on="1"/>
        <pt x="58" y="0" on="0"/>
        <pt x="-26" y="30" on="1"/>
        <pt x="4" y="180" on="1"/>
        <pt x="88" y="150" on="0"/>
        <pt x="178" y="150" on="1"/>
        <pt x="373" y="150" on="0"/>
        <pt x="450" y="535" on="1"/>
        <pt x="523" y="900" on="0"/>
        <pt x="338" y="900" on="1"/>
        <pt x="238" y="900" on="0"/>
        <pt x="132" y="820" on="1"/>
        <pt x="162" y="970" on="1"/>
        <pt x="268" y="1050" on="0"/>
        <pt x="378" y="1050" on="1"/>
        <pt x="728" y="1050" on="0"/>
        <pt x="625" y="535" on="1"/>
        <pt x="624" y="529" on="1"/>
        <pt x="918" y="590" on="1"/>
        <pt x="1010" y="1050" on="1"/>
        <pt x="1195" y="1050" on="1"/>
        <pt x="1111" y="629" on="1"/>
      </contour>
    </TTGlyph>
    <TTGlyph name="afii10073" xMin="-32" yMin="-10" xMax="915" yMax="1060">
      <contour>
        <pt x="158" y="1000" on="1"/>
        <pt x="350" y="1060" on="0"/>
        <pt x="500" y="1060" on="1"/>
        <pt x="915" y="1060" on="0"/>
        <pt x="857" y="768" on="1"/>
        <pt x="826" y="614" on="0"/>
        <pt x="672" y="535" on="1"/>
        <pt x="795" y="460" on="0"/>
        <pt x="765" y="310" on="1"/>
        <pt x="701" y="-10" on="0"/>
        <pt x="286" y="-10" on="1"/>
        <pt x="136" y="-10" on="0"/>
        <pt x="-32" y="50" on="1"/>
        <pt x="0" y="210" on="1"/>
        <pt x="166" y="140" on="0"/>
        <pt x="316" y="140" on="1"/>
        <pt x="546" y="140" on="0"/>
        <pt x="580" y="310" on="1"/>
        <pt x="610" y="460" on="0"/>
        <pt x="458" y="460" on="1"/>
        <pt x="150" y="460" on="1"/>
        <pt x="180" y="610" on="1"/>
        <pt x="485" y="610" on="1"/>
        <pt x="640" y="610" on="0"/>
        <pt x="672" y="768" on="1"/>
        <pt x="700" y="910" on="0"/>
        <pt x="470" y="910" on="1"/>
        <pt x="320" y="910" on="0"/>
        <pt x="126" y="840" on="1"/>
      </contour>
    </TTGlyph>
    <TTGlyph name="afii10074" xMin="8" yMin="0" xMax="1123" yMax="1050">
      <contour>
        <pt x="1123" y="1050" on="1"/>
        <pt x="913" y="0" on="1"/>
        <pt x="748" y="0" on="1"/>
        <pt x="793" y="324" on="1"/>
        <pt x="594" y="0" on="0"/>
        <pt x="301" y="0" on="1"/>
        <pt x="8" y="0" on="0"/>
        <pt x="76" y="341" on="1"/>
        <pt x="218" y="1050" on="1"/>
        <pt x="403" y="1050" on="1"/>
        <pt x="261" y="338" on="1"/>
        <pt x="224" y="154" on="0"/>
        <pt x="407" y="154" on="1"/>
        <pt x="616" y="154" on="0"/>
        <pt x="825" y="487" on="1"/>
        <pt x="938" y="1050" on="1"/>
      </contour>
    </TTGlyph>
    <TTGlyph name="afii10075" xMin="8" yMin="0" xMax="1123" yMax="1430">
      <component glyphName="afii10074" x="0" y="0" flags="0x200"/>
      <component glyphName="breve" x="238" y="0" flags="0x0"/>
    </TTGlyph>
    <TTGlyph name="afii10076" xMin="8" yMin="0" xMax="1112" yMax="1050">
      <contour>
        <pt x="733" y="0" on="1"/>
        <pt x="635" y="246" on="1"/>
        <pt x="537" y="493" on="0"/>
        <pt x="389" y="493" on="1"/>
        <pt x="413" y="616" on="1"/>
        <pt x="573" y="616" on="0"/>
        <pt x="817" y="1050" on="0"/>
        <pt x="1005" y="1050" on="1"/>
        <pt x="1112" y="1050" on="1"/>
        <pt x="1080" y="890" on="1"/>
        <pt x="1001" y="890" on="1"/>
        <pt x="893" y="890" on="0"/>
        <pt x="732" y="597" on="0"/>
        <pt x="598" y="548" on="1"/>
        <pt x="711" y="527" on="0"/>
        <pt x="824" y="264" on="1"/>
        <pt x="937" y="0" on="1"/>
      </contour>
      <contour>
        <pt x="403" y="1050" on="1"/>
        <pt x="193" y="0" on="1"/>
        <pt x="8" y="0" on="1"/>
        <pt x="218" y="1050" on="1"/>
      </contour>
    </TTGlyph>
    <TTGlyph name="afii10077" xMin="-142" yMin="0" xMax="1105" yMax="1050">
      <contour>
        <pt x="-112" y="150" on="1"/>
        <pt x="125" y="150" on="0"/>
        <pt x="179" y="420" on="1"/>
        <pt x="228" y="665" on="1"/>
        <pt x="305" y="1050" on="0"/>
        <pt x="705" y="1050" on="1"/>
        <pt x="1105" y="1050" on="1"/>
        <pt x="895" y="0" on="1"/>
        <pt x="710" y="0" on="1"/>
        <pt x="890" y="900" on="1"/>
        <pt x="675" y="900" on="1"/>
        <pt x="460" y="900" on="0"/>
        <pt x="414" y="670" on="1"/>
        <pt x="364" y="420" on="1"/>
        <pt x="280" y="0" on="0"/>
        <pt x="-142" y="0" on="1"/>
      </contour>
    </TTGlyph>
    <TTGlyph name="afii10078" xMin="8" yMin="0" xMax="1378" yMax="1050">
      <contour>
        <pt x="8" y="0" on="1"/>
        <pt x="218" y="1050" on="1"/>
        <pt x="453" y="1050" on="1"/>
        <pt x="641" y="217" on="1"/>
        <pt x="1153" y="1050" on="1"/>
        <pt x="1378" y="1050" on="1"/>
        <pt x="1168" y="0" on="1"/>
        <pt x="1003" y="0" on="1"/>
        <pt x="1164" y="803" on="1"/>
        <pt x="665" y="0" on="1"/>
        <pt x="519" y="0" on="1"/>
        <pt x="334" y="803" on="1"/>
        <pt x="173" y="0" on="1"/>
      </contour>
    </TTGlyph>
    <TTGlyph name="afii10079" xMin="8" yMin="0" xMax="1103" yMax="1050">
      <contour>
        <pt x="8" y="0" on="1"/>
        <pt x="218" y="1050" on="1"/>
        <pt x="403" y="1050" on="1"/>
        <pt x="315" y="610" on="1"/>
        <pt x="830" y="610" on="1"/>
        <pt x="918" y="1050" on="1"/>
        <pt x="1103" y="1050" on="1"/>
        <pt x="893" y="0" on="1"/>
        <pt x="708" y="0" on="1"/>
        <pt x="800" y="460" on="1"/>
        <pt x="285" y="460" on="1"/>
        <pt x="193" y="0" on="1"/>
      </contour>
    </TTGlyph>
    <TTGlyph name="afii10080" xMin="-40" yMin="1" xMax="1128" yMax="1050">
      <contour>
        <pt x="173" y="150" on="0"/>
        <pt x="468" y="150" on="1"/>
        <pt x="763" y="150" on="0"/>
        <pt x="839" y="529" on="1"/>
        <pt x="913" y="900" on="0"/>
        <pt x="618" y="900" on="1"/>
        <pt x="323" y="900" on="0"/>
        <pt x="249" y="529" on="1"/>
      </contour>
      <contour>
        <pt x="63" y="525" on="1"/>
        <pt x="168" y="1050" on="0"/>
        <pt x="648" y="1050" on="1"/>
        <pt x="1128" y="1050" on="0"/>
        <pt x="1023" y="525" on="1"/>
        <pt x="918" y="1" on="0"/>
        <pt x="438" y="1" on="1"/>
        <pt x="-40" y="1" on="0"/>
      </contour>
    </TTGlyph>
    <TTGlyph name="afii10081" xMin="8" yMin="0" xMax="1123" yMax="1050">
      <contour>
        <pt x="8" y="0" on="1"/>
        <pt x="218" y="1050" on="1"/>
        <pt x="383" y="1050" on="1"/>
        <pt x="338" y="726" on="1"/>
        <pt x="537" y="1050" on="0"/>
        <pt x="830" y="1050" on="1"/>
        <pt x="1123" y="1050" on="0"/>
        <pt x="1055" y="709" on="1"/>
        <pt x="913" y="0" on="1"/>
        <pt x="728" y="0" on="1"/>
        <pt x="870" y="712" on="1"/>
        <pt x="907" y="896" on="0"/>
        <pt x="724" y="896" on="1"/>
        <pt x="515" y="896" on="0"/>
        <pt x="306" y="563" on="1"/>
        <pt x="193" y="0" on="1"/>
      </contour>
    </TTGlyph>
    <TTGlyph name="afii10082" xMin="-68" yMin="-380" xMax="1116" yMax="1050">
      <contour>
        <pt x="353" y="800" on="1"/>
        <pt x="522" y="1050" on="0"/>
        <pt x="758" y="1050" on="1"/>
        <pt x="1116" y="1050" on="0"/>
        <pt x="1019" y="566" on="1"/>
        <pt x="906" y="0" on="0"/>
        <pt x="383" y="0" on="1"/>
        <pt x="280" y="0" on="0"/>
        <pt x="195" y="9" on="1"/>
        <pt x="117" y="-380" on="1"/>
        <pt x="-68" y="-380" on="1"/>
        <pt x="218" y="1050" on="1"/>
        <pt x="383" y="1050" on="1"/>
      </contour>
      <contour>
        <pt x="320" y="636" on="1"/>
        <pt x="230" y="183" on="1"/>
        <pt x="275" y="154" on="0"/>
        <pt x="405" y="154" on="1"/>
        <pt x="755" y="154" on="0"/>
        <pt x="837" y="563" on="1"/>
        <pt x="902" y="890" on="0"/>
        <pt x="695" y="890" on="1"/>
        <pt x="481" y="890" on="0"/>
      </contour>
    </TTGlyph>
    <TTGlyph name="afii10083" xMin="-42" yMin="0" xMax="942" yMax="1050">
      <contour>
        <pt x="764" y="130" on="1"/>
        <pt x="608" y="0" on="0"/>
        <pt x="398" y="0" on="1"/>
        <pt x="-42" y="0" on="0"/>
        <pt x="65" y="535" on="1"/>
        <pt x="168" y="1050" on="0"/>
        <pt x="668" y="1050" on="1"/>
        <pt x="818" y="1050" on="0"/>
        <pt x="942" y="1020" on="1"/>
        <pt x="912" y="870" on="1"/>
        <pt x="788" y="900" on="0"/>
        <pt x="628" y="900" on="1"/>
        <pt x="323" y="900" on="0"/>
        <pt x="250" y="535" on="1"/>
        <pt x="173" y="150" on="0"/>
        <pt x="438" y="150" on="1"/>
        <pt x="638" y="150" on="0"/>
        <pt x="794" y="280" on="1"/>
      </contour>
    </TTGlyph>
    <TTGlyph name="afii10084" xMin="8" yMin="0" xMax="1723" yMax="1050">
      <contour>
        <pt x="8" y="0" on="1"/>
        <pt x="218" y="1050" on="1"/>
        <pt x="383" y="1050" on="1"/>
        <pt x="341" y="738" on="1"/>
        <pt x="525" y="1050" on="0"/>
        <pt x="803" y="1050" on="1"/>
        <pt x="1053" y="1050" on="0"/>
        <pt x="992" y="746" on="1"/>
        <pt x="1185" y="1050" on="0"/>
        <pt x="1461" y="1050" on="1"/>
        <pt x="1723" y="1050" on="0"/>
        <pt x="1655" y="712" on="1"/>
        <pt x="1513" y="0" on="1"/>
        <pt x="1328" y="0" on="1"/>
        <pt x="1470" y="712" on="1"/>
        <pt x="1507" y="896" on="0"/>
        <pt x="1359" y="896" on="1"/>
        <pt x="1161" y="896" on="0"/>
        <pt x="966" y="563" on="1"/>
        <pt x="853" y="0" on="1"/>
        <pt x="668" y="0" on="1"/>
        <pt x="810" y="712" on="1"/>
        <pt x="847" y="896" on="0"/>
        <pt x="701" y="896" on="1"/>
        <pt x="495" y="896" on="0"/>
        <pt x="306" y="563" on="1"/>
        <pt x="193" y="0" on="1"/>
      </contour>
    </TTGlyph>
    <TTGlyph name="afii10085" xMin="-22" yMin="-388" xMax="1094" yMax="1050">
      <contour>
        <pt x="93" y="1050" on="1"/>
        <pt x="294" y="1050" on="1"/>
        <pt x="427" y="230" on="1"/>
        <pt x="898" y="1050" on="1"/>
        <pt x="1094" y="1050" on="1"/>
        <pt x="442" y="-31" on="1"/>
        <pt x="269" y="-317" on="0"/>
        <pt x="23" y="-388" on="1"/>
        <pt x="-22" y="-257" on="1"/>
        <pt x="169" y="-180" on="0"/>
        <pt x="284" y="-6" on="1"/>
      </contour>
    </TTGlyph>
    <TTGlyph name="afii10086" xMin="-42" yMin="-380" xMax="1779" yMax="1430">
      <contour>
        <pt x="1016" y="800" on="1"/>
        <pt x="1185" y="1050" on="0"/>
        <pt x="1421" y="1050" on="1"/>
        <pt x="1779" y="1050" on="0"/>
        <pt x="1682" y="566" on="1"/>
        <pt x="1569" y="0" on="0"/>
        <pt x="1046" y="0" on="1"/>
        <pt x="943" y="0" on="0"/>
        <pt x="858" y="9" on="1"/>
        <pt x="780" y="-380" on="1"/>
        <pt x="595" y="-380" on="1"/>
        <pt x="721" y="250" on="1"/>
        <pt x="552" y="0" on="0"/>
        <pt x="316" y="0" on="1"/>
        <pt x="-42" y="0" on="0"/>
        <pt x="55" y="484" on="1"/>
        <pt x="168" y="1050" on="0"/>
        <pt x="691" y="1050" on="1"/>
        <pt x="794" y="1050" on="0"/>
        <pt x="879" y="1041" on="1"/>
        <pt x="957" y="1430" on="1"/>
        <pt x="1142" y="1430" on="1"/>
      </contour>
      <contour>
        <pt x="844" y="867" on="1"/>
        <pt x="799" y="896" on="0"/>
        <pt x="669" y="896" on="1"/>
        <pt x="319" y="896" on="0"/>
        <pt x="237" y="487" on="1"/>
        <pt x="172" y="160" on="0"/>
        <pt x="379" y="160" on="1"/>
        <pt x="593" y="160" on="0"/>
        <pt x="754" y="414" on="1"/>
      </contour>
      <contour>
        <pt x="893" y="183" on="1"/>
        <pt x="938" y="154" on="0"/>
        <pt x="1068" y="154" on="1"/>
        <pt x="1418" y="154" on="0"/>
        <pt x="1500" y="563" on="1"/>
        <pt x="1565" y="890" on="0"/>
        <pt x="1358" y="890" on="1"/>
        <pt x="1144" y="890" on="0"/>
        <pt x="983" y="636" on="1"/>
      </contour>
    </TTGlyph>
    <TTGlyph name="afii10087" xMin="-117" yMin="0" xMax="1063" yMax="1050">
      <contour>
        <pt x="98" y="0" on="1"/>
        <pt x="-117" y="0" on="1"/>
        <pt x="366" y="525" on="1"/>
        <pt x="93" y="1050" on="1"/>
        <pt x="298" y="1050" on="1"/>
        <pt x="488" y="650" on="1"/>
        <pt x="848" y="1050" on="1"/>
        <pt x="1063" y="1050" on="1"/>
        <pt x="580" y="525" on="1"/>
        <pt x="853" y="0" on="1"/>
        <pt x="648" y="0" on="1"/>
        <pt x="458" y="400" on="1"/>
      </contour>
    </TTGlyph>
    <TTGlyph name="afii10088" xMin="8" yMin="-380" xMax="1128" yMax="1050">
      <contour>
        <pt x="935" y="110" on="1"/>
        <pt x="1128" y="150" on="1"/>
        <pt x="1075" y="-115" on="0"/>
        <pt x="922" y="-380" on="1"/>
        <pt x="737" y="-380" on="1"/>
        <pt x="875" y="-190" on="0"/>
        <pt x="921" y="40" on="1"/>
        <pt x="748" y="0" on="1"/>
        <pt x="793" y="324" on="1"/>
        <pt x="594" y="0" on="0"/>
        <pt x="301" y="0" on="1"/>
        <pt x="8" y="0" on="0"/>
        <pt x="76" y="341" on="1"/>
        <pt x="218" y="1050" on="1"/>
        <pt x="403" y="1050" on="1"/>
        <pt x="261" y="338" on="1"/>
        <pt x="224" y="154" on="0"/>
        <pt x="407" y="154" on="1"/>
        <pt x="616" y="154" on="0"/>
        <pt x="825" y="487" on="1"/>
        <pt x="938" y="1050" on="1"/>
        <pt x="1123" y="1050" on="1"/>
      </contour>
    </TTGlyph>
    <TTGlyph name="afii10089" xMin="43" yMin="0" xMax="1136" yMax="1050">
      <contour>
        <pt x="1136" y="1050" on="1"/>
        <pt x="926" y="0" on="1"/>
        <pt x="741" y="0" on="1"/>
        <pt x="824" y="414" on="1"/>
        <pt x="655" y="300" on="0"/>
        <pt x="452" y="300" on="1"/>
        <pt x="43" y="300" on="0"/>
        <pt x="125" y="711" on="1"/>
        <pt x="193" y="1050" on="1"/>
        <pt x="378" y="1050" on="1"/>
        <pt x="310" y="708" on="1"/>
        <pt x="259" y="454" on="0"/>
        <pt x="508" y="454" on="1"/>
        <pt x="707" y="454" on="0"/>
        <pt x="858" y="587" on="1"/>
        <pt x="951" y="1050" on="1"/>
      </contour>
    </TTGlyph>
    <TTGlyph name="afii10090" xMin="8" yMin="0" xMax="1723" yMax="1050">
      <contour>
        <pt x="1723" y="1050" on="1"/>
        <pt x="1513" y="0" on="1"/>
        <pt x="1348" y="0" on="1"/>
        <pt x="1390" y="312" on="1"/>
        <pt x="1206" y="0" on="0"/>
        <pt x="928" y="0" on="1"/>
        <pt x="678" y="0" on="0"/>
        <pt x="739" y="304" on="1"/>
        <pt x="546" y="0" on="0"/>
        <pt x="270" y="0" on="1"/>
        <pt x="8" y="0" on="0"/>
        <pt x="76" y="338" on="1"/>
        <pt x="218" y="1050" on="1"/>
        <pt x="403" y="1050" on="1"/>
        <pt x="261" y="338" on="1"/>
        <pt x="224" y="154" on="0"/>
        <pt x="372" y="154" on="1"/>
        <pt x="570" y="154" on="0"/>
        <pt x="765" y="487" on="1"/>
        <pt x="878" y="1050" on="1"/>
        <pt x="1063" y="1050" on="1"/>
        <pt x="921" y="338" on="1"/>
        <pt x="884" y="154" on="0"/>
        <pt x="1030" y="154" on="1"/>
        <pt x="1236" y="154" on="0"/>
        <pt x="1425" y="487" on="1"/>
        <pt x="1538" y="1050" on="1"/>
      </contour>
    </TTGlyph>
    <TTGlyph name="afii10091" xMin="8" yMin="-380" xMax="1728" yMax="1050">
      <contour>
        <pt x="1535" y="110" on="1"/>
        <pt x="1728" y="150" on="1"/>
        <pt x="1675" y="-115" on="0"/>
        <pt x="1522" y="-380" on="1"/>
        <pt x="1337" y="-380" on="1"/>
        <pt x="1475" y="-190" on="0"/>
        <pt x="1521" y="40" on="1"/>
        <pt x="1348" y="0" on="1"/>
        <pt x="1390" y="312" on="1"/>
        <pt x="1206" y="0" on="0"/>
        <pt x="928" y="0" on="1"/>
        <pt x="678" y="0" on="0"/>
        <pt x="739" y="304" on="1"/>
        <pt x="546" y="0" on="0"/>
        <pt x="270" y="0" on="1"/>
        <pt x="8" y="0" on="0"/>
        <pt x="76" y="338" on="1"/>
        <pt x="218" y="1050" on="1"/>
        <pt x="403" y="1050" on="1"/>
        <pt x="261" y="338" on="1"/>
        <pt x="224" y="154" on="0"/>
        <pt x="372" y="154" on="1"/>
        <pt x="570" y="154" on="0"/>
        <pt x="765" y="487" on="1"/>
        <pt x="878" y="1050" on="1"/>
        <pt x="1063" y="1050" on="1"/>
        <pt x="921" y="338" on="1"/>
        <pt x="884" y="154" on="0"/>
        <pt x="1030" y="154" on="1"/>
        <pt x="1236" y="154" on="0"/>
        <pt x="1425" y="487" on="1"/>
        <pt x="1538" y="1050" on="1"/>
        <pt x="1723" y="1050" on="1"/>
      </contour>
    </TTGlyph>
    <TTGlyph name="afii10092" xMin="38" yMin="0" xMax="1236" yMax="1050">
      <contour>
        <pt x="637" y="1050" on="1"/>
        <pt x="499" y="359" on="1"/>
        <pt x="458" y="153" on="0"/>
        <pt x="686" y="153" on="1"/>
        <pt x="954" y="153" on="0"/>
        <pt x="989" y="332" on="1"/>
        <pt x="1019" y="479" on="0"/>
        <pt x="837" y="479" on="1"/>
        <pt x="659" y="479" on="1"/>
        <pt x="689" y="629" on="1"/>
        <pt x="877" y="629" on="1"/>
        <pt x="1236" y="629" on="0"/>
        <pt x="1175" y="323" on="1"/>
        <pt x="1110" y="0" on="0"/>
        <pt x="662" y="0" on="1"/>
        <pt x="242" y="0" on="0"/>
        <pt x="314" y="359" on="1"/>
        <pt x="422" y="900" on="1"/>
        <pt x="38" y="900" on="1"/>
        <pt x="68" y="1050" on="1"/>
      </contour>
    </TTGlyph>
    <TTGlyph name="afii10093" xMin="8" yMin="0" xMax="1428" yMax="1050">
      <contour>
        <pt x="1033" y="0" on="1"/>
        <pt x="1243" y="1050" on="1"/>
        <pt x="1428" y="1050" on="1"/>
        <pt x="1218" y="0" on="1"/>
      </contour>
      <contour>
        <pt x="403" y="1050" on="1"/>
        <pt x="265" y="359" on="1"/>
        <pt x="224" y="153" on="0"/>
        <pt x="472" y="153" on="1"/>
        <pt x="720" y="153" on="0"/>
        <pt x="755" y="332" on="1"/>
        <pt x="785" y="479" on="0"/>
        <pt x="603" y="479" on="1"/>
        <pt x="425" y="479" on="1"/>
        <pt x="455" y="629" on="1"/>
        <pt x="642" y="629" on="1"/>
        <pt x="1002" y="629" on="0"/>
        <pt x="941" y="323" on="1"/>
        <pt x="876" y="0" on="0"/>
        <pt x="448" y="0" on="1"/>
        <pt x="8" y="0" on="0"/>
        <pt x="80" y="359" on="1"/>
        <pt x="218" y="1050" on="1"/>
      </contour>
    </TTGlyph>
    <TTGlyph name="afii10094" xMin="8" yMin="0" xMax="1002" yMax="1050">
      <contour>
        <pt x="403" y="1050" on="1"/>
        <pt x="265" y="359" on="1"/>
        <pt x="224" y="153" on="0"/>
        <pt x="472" y="153" on="1"/>
        <pt x="720" y="153" on="0"/>
        <pt x="755" y="332" on="1"/>
        <pt x="785" y="479" on="0"/>
        <pt x="603" y="479" on="1"/>
        <pt x="425" y="479" on="1"/>
        <pt x="455" y="629" on="1"/>
        <pt x="642" y="629" on="1"/>
        <pt x="1002" y="629" on="0"/>
        <pt x="941" y="323" on="1"/>
        <pt x="876" y="0" on="0"/>
        <pt x="448" y="0" on="1"/>
        <pt x="8" y="0" on="0"/>
        <pt x="80" y="359" on="1"/>
        <pt x="218" y="1050" on="1"/>
      </contour>
    </TTGlyph>
    <TTGlyph name="afii10095" xMin="-36" yMin="0" xMax="978" yMax="1050">
      <contour>
        <pt x="-6" y="180" on="1"/>
        <pt x="118" y="150" on="0"/>
        <pt x="248" y="150" on="1"/>
        <pt x="567" y="150" on="0"/>
        <pt x="670" y="461" on="1"/>
        <pt x="114" y="461" on="1"/>
        <pt x="144" y="611" on="1"/>
        <pt x="701" y="611" on="1"/>
        <pt x="723" y="900" on="0"/>
        <pt x="398" y="900" on="1"/>
        <pt x="268" y="900" on="0"/>
        <pt x="132" y="870" on="1"/>
        <pt x="162" y="1020" on="1"/>
        <pt x="298" y="1050" on="0"/>
        <pt x="448" y="1050" on="1"/>
        <pt x="978" y="1050" on="0"/>
        <pt x="877" y="545" on="1"/>
        <pt x="768" y="0" on="0"/>
        <pt x="238" y="0" on="1"/>
        <pt x="88" y="0" on="0"/>
        <pt x="-36" y="30" on="1"/>
      </contour>
    </TTGlyph>
    <TTGlyph name="afii10096" xMin="8" yMin="-10" xMax="1672" yMax="1060">
      <contour>
        <pt x="1031" y="140" on="1"/>
        <pt x="1293" y="140" on="0"/>
        <pt x="1371" y="529" on="1"/>
        <pt x="1447" y="910" on="0"/>
        <pt x="1185" y="910" on="1"/>
        <pt x="912" y="910" on="0"/>
        <pt x="836" y="529" on="1"/>
        <pt x="758" y="140" on="0"/>
      </contour>
      <contour>
        <pt x="8" y="0" on="1"/>
        <pt x="218" y="1050" on="1"/>
        <pt x="402" y="1050" on="1"/>
        <pt x="314" y="610" on="1"/>
        <pt x="660" y="610" on="1"/>
        <pt x="787" y="1060" on="0"/>
        <pt x="1215" y="1060" on="1"/>
        <pt x="1672" y="1060" on="0"/>
        <pt x="1565" y="523" on="1"/>
        <pt x="1458" y="-10" on="0"/>
        <pt x="1001" y="-10" on="1"/>
        <pt x="562" y="-10" on="0"/>
        <pt x="629" y="460" on="1"/>
        <pt x="284" y="460" on="1"/>
        <pt x="192" y="0" on="1"/>
      </contour>
    </TTGlyph>
    <TTGlyph name="afii10097" xMin="-117" yMin="0" xMax="1063" yMax="1050">
      <contour>
        <pt x="668" y="0" on="1"/>
        <pt x="847" y="897" on="1"/>
        <pt x="489" y="897" on="1"/>
        <pt x="351" y="897" on="0"/>
        <pt x="328" y="779" on="1"/>
        <pt x="300" y="639" on="0"/>
        <pt x="607" y="574" on="1"/>
        <pt x="581" y="443" on="1"/>
        <pt x="117" y="0" on="1"/>
        <pt x="-117" y="0" on="1"/>
        <pt x="383" y="469" on="1"/>
        <pt x="88" y="566" on="0"/>
        <pt x="139" y="823" on="1"/>
        <pt x="185" y="1050" on="0"/>
        <pt x="523" y="1050" on="1"/>
        <pt x="1063" y="1050" on="1"/>
        <pt x="853" y="0" on="1"/>
      </contour>
    </TTGlyph>
    <TTGlyph name="agrave" xMin="-42" yMin="0" xMax="1056" yMax="1430">
      <component glyphName="a" x="0" y="0" flags="0x200"/>
      <component glyphName="grave" x="230" y="0" flags="0x0"/>
    </TTGlyph>
    <TTGlyph name="alpha" xMin="-40" yMin="0" xMax="1357" yMax="1050">
      <contour>
        <pt x="63" y="525" on="1"/>
        <pt x="168" y="1050" on="0"/>
        <pt x="618" y="1050" on="1"/>
        <pt x="949" y="1050" on="0"/>
        <pt x="997" y="726" on="1"/>
        <pt x="1170" y="1050" on="1"/>
        <pt x="1357" y="1050" on="1"/>
        <pt x="1053" y="522" on="1"/>
        <pt x="1133" y="0" on="1"/>
        <pt x="943" y="0" on="1"/>
        <pt x="903" y="330" on="1"/>
        <pt x="711" y="0" on="0"/>
        <pt x="408" y="0" on="1"/>
        <pt x="-40" y="0" on="0"/>
      </contour>
      <contour>
        <pt x="173" y="150" on="0"/>
        <pt x="438" y="150" on="1"/>
        <pt x="673" y="150" on="0"/>
        <pt x="869" y="529" on="1"/>
        <pt x="823" y="900" on="0"/>
        <pt x="588" y="900" on="1"/>
        <pt x="323" y="900" on="0"/>
        <pt x="249" y="529" on="1"/>
      </contour>
    </TTGlyph>
    <TTGlyph name="alphatonos" xMin="-40" yMin="0" xMax="1357" yMax="1430">
      <component glyphName="alpha" x="0" y="0" flags="0x200"/>
      <component glyphName="tonos" x="420" y="0" flags="0x0"/>
    </TTGlyph>
    <TTGlyph name="amacron" xMin="-42" yMin="0" xMax="1056" yMax="1430">
      <component glyphName="a" x="0" y="0" flags="0x200"/>
      <component glyphName="macron" x="229" y="0" flags="0x0"/>
    </TTGlyph>
    <TTGlyph name="ampersand" xMin="-43" yMin="-3" xMax="1293" yMax="1430">
      <contour>
        <pt x="167" y="1045" on="1"/>
        <pt x="244" y="1430" on="0"/>
        <pt x="754" y="1430" on="1"/>
        <pt x="939" y="1430" on="0"/>
        <pt x="1104" y="1380" on="1"/>
        <pt x="1074" y="1230" on="1"/>
        <pt x="909" y="1280" on="0"/>
        <pt x="737" y="1280" on="1"/>
        <pt x="399" y="1280" on="0"/>
        <pt x="353" y="1050" on="1"/>
        <pt x="303" y="800" on="0"/>
        <pt x="558" y="800" on="1"/>
        <pt x="946" y="800" on="1"/>
        <pt x="974" y="942" on="1"/>
        <pt x="1037" y="942" on="1"/>
        <pt x="1111" y="800" on="1"/>
        <pt x="1293" y="800" on="1"/>
        <pt x="1263" y="650" on="1"/>
        <pt x="1101" y="650" on="1"/>
        <pt x="1069" y="490" on="1"/>
        <pt x="970" y="-3" on="0"/>
        <pt x="452" y="-3" on="1"/>
        <pt x="-43" y="-3" on="0"/>
        <pt x="36" y="394" on="1"/>
        <pt x="86" y="641" on="0"/>
        <pt x="296" y="727" on="1"/>
        <pt x="120" y="812" on="0"/>
      </contour>
      <contour>
        <pt x="530" y="650" on="1"/>
        <pt x="273" y="650" on="0"/>
        <pt x="222" y="399" on="1"/>
        <pt x="173" y="150" on="0"/>
        <pt x="474" y="150" on="1"/>
        <pt x="816" y="150" on="0"/>
        <pt x="884" y="492" on="1"/>
        <pt x="916" y="650" on="1"/>
      </contour>
    </TTGlyph>
    <TTGlyph name="anoteleia" xMin="131" yMin="865" xMax="353" yMax="1050">
      <contour>
        <pt x="353" y="1050" on="1"/>
        <pt x="316" y="865" on="1"/>
        <pt x="131" y="865" on="1"/>
        <pt x="168" y="1050" on="1"/>
      </contour>
    </TTGlyph>
    <TTGlyph name="aogonek" xMin="-42" yMin="-426" xMax="1056" yMax="1050">
      <contour>
        <pt x="844" y="872" on="1"/>
        <pt x="794" y="896" on="0"/>
        <pt x="654" y="896" on="1"/>
        <pt x="319" y="896" on="0"/>
        <pt x="243" y="513" on="1"/>
        <pt x="172" y="160" on="0"/>
        <pt x="379" y="160" on="1"/>
        <pt x="593" y="160" on="0"/>
        <pt x="753" y="414" on="1"/>
      </contour>
      <contour>
        <pt x="690" y="0" on="1"/>
        <pt x="720" y="250" on="1"/>
        <pt x="552" y="0" on="0"/>
        <pt x="316" y="0" on="1"/>
        <pt x="-42" y="0" on="0"/>
        <pt x="60" y="511" on="1"/>
        <pt x="168" y="1050" on="0"/>
        <pt x="693" y="1050" on="1"/>
        <pt x="906" y="1050" on="0"/>
        <pt x="1056" y="1007" on="1"/>
        <pt x="855" y="0" on="1"/>
        <pt x="628" y="-126" on="0"/>
        <pt x="607" y="-228" on="1"/>
        <pt x="594" y="-296" on="0"/>
        <pt x="679" y="-296" on="1"/>
        <pt x="764" y="-296" on="0"/>
        <pt x="820" y="-276" on="1"/>
        <pt x="794" y="-406" on="1"/>
        <pt x="729" y="-426" on="0"/>
        <pt x="641" y="-426" on="1"/>
        <pt x="410" y="-426" on="0"/>
        <pt x="444" y="-253" on="1"/>
        <pt x="471" y="-122" on="0"/>
      </contour>
    </TTGlyph>
    <TTGlyph name="approxequal" xMin="18" yMin="250" xMax="958" yMax="800">
      <contour>
        <pt x="898" y="450" on="1"/>
        <pt x="868" y="300" on="1"/>
        <pt x="747" y="250" on="0"/>
        <pt x="638" y="250" on="1"/>
        <pt x="529" y="250" on="0"/>
        <pt x="433" y="300" on="1"/>
        <pt x="337" y="350" on="0"/>
        <pt x="233" y="350" on="1"/>
        <pt x="130" y="350" on="0"/>
        <pt x="18" y="300" on="1"/>
        <pt x="48" y="450" on="1"/>
        <pt x="170" y="500" on="0"/>
        <pt x="278" y="500" on="1"/>
        <pt x="387" y="500" on="0"/>
        <pt x="483" y="450" on="1"/>
        <pt x="579" y="400" on="0"/>
        <pt x="683" y="400" on="1"/>
        <pt x="787" y="400" on="0"/>
      </contour>
      <contour>
        <pt x="958" y="750" on="1"/>
        <pt x="928" y="600" on="1"/>
        <pt x="807" y="550" on="0"/>
        <pt x="698" y="550" on="1"/>
        <pt x="589" y="550" on="0"/>
        <pt x="493" y="600" on="1"/>
        <pt x="397" y="650" on="0"/>
        <pt x="293" y="650" on="1"/>
        <pt x="190" y="650" on="0"/>
        <pt x="78" y="600" on="1"/>
        <pt x="108" y="750" on="1"/>
        <pt x="230" y="800" on="0"/>
        <pt x="338" y="800" on="1"/>
        <pt x="447" y="800" on="0"/>
        <pt x="543" y="750" on="1"/>
        <pt x="639" y="700" on="0"/>
        <pt x="743" y="700" on="1"/>
        <pt x="847" y="700" on="0"/>
      </contour>
    </TTGlyph>
    <TTGlyph name="aring" xMin="-42" yMin="0" xMax="1056" yMax="1571">
      <component glyphName="a" x="0" y="0" flags="0x200"/>
      <component glyphName="ring" x="273" y="0" flags="0x0"/>
    </TTGlyph>
    <TTGlyph name="asciicircum" xMin="48" yMin="700" xMax="998" yMax="1430">
      <contour>
        <pt x="594" y="1430" on="1"/>
        <pt x="744" y="1430" on="1"/>
        <pt x="998" y="700" on="1"/>
        <pt x="848" y="700" on="1"/>
        <pt x="640" y="1303" on="1"/>
        <pt x="198" y="700" on="1"/>
        <pt x="48" y="700" on="1"/>
      </contour>
    </TTGlyph>
    <TTGlyph name="asciitilde" xMin="44" yMin="410" xMax="832" yMax="641">
      <contour>
        <pt x="74" y="580" on="1"/>
        <pt x="144" y="641" on="0"/>
        <pt x="248" y="641" on="1"/>
        <pt x="334" y="641" on="0"/>
        <pt x="443" y="600" on="1"/>
        <pt x="552" y="560" on="0"/>
        <pt x="642" y="560" on="1"/>
        <pt x="751" y="560" on="0"/>
        <pt x="832" y="620" on="1"/>
        <pt x="802" y="470" on="1"/>
        <pt x="732" y="410" on="0"/>
        <pt x="628" y="410" on="1"/>
        <pt x="542" y="410" on="0"/>
        <pt x="433" y="450" on="1"/>
        <pt x="324" y="491" on="0"/>
        <pt x="234" y="491" on="1"/>
        <pt x="125" y="491" on="0"/>
        <pt x="44" y="430" on="1"/>
      </contour>
    </TTGlyph>
    <TTGlyph name="asterisk" xMin="188" yMin="847" xMax="799" yMax="1430">
      <contour>
        <pt x="472" y="1430" on="1"/>
        <pt x="628" y="1430" on="1"/>
        <pt x="552" y="1198" on="1"/>
        <pt x="781" y="1299" on="1"/>
        <pt x="799" y="1152" on="1"/>
        <pt x="563" y="1109" on="1"/>
        <pt x="688" y="939" on="1"/>
        <pt x="546" y="847" on="1"/>
        <pt x="474" y="1052" on="1"/>
        <pt x="321" y="848" on="1"/>
        <pt x="214" y="937" on="1"/>
        <pt x="410" y="1108" on="1"/>
        <pt x="188" y="1150" on="1"/>
        <pt x="266" y="1300" on="1"/>
        <pt x="456" y="1197" on="1"/>
      </contour>
    </TTGlyph>
    <TTGlyph name="at" xMin="-68" yMin="-380" xMax="2146" yMax="1440">
      <contour>
        <pt x="1347" y="872" on="1"/>
        <pt x="1297" y="896" on="0"/>
        <pt x="1157" y="896" on="1"/>
        <pt x="822" y="896" on="0"/>
        <pt x="746" y="513" on="1"/>
        <pt x="675" y="160" on="0"/>
        <pt x="882" y="160" on="1"/>
        <pt x="1096" y="160" on="0"/>
        <pt x="1256" y="414" on="1"/>
      </contour>
      <contour>
        <pt x="1382" y="118" on="1"/>
        <pt x="1358" y="0" on="0"/>
        <pt x="1468" y="0" on="1"/>
        <pt x="1673" y="0" on="0"/>
        <pt x="1781" y="540" on="1"/>
        <pt x="1931" y="1290" on="0"/>
        <pt x="1205" y="1290" on="1"/>
        <pt x="451" y="1290" on="0"/>
        <pt x="301" y="540" on="1"/>
        <pt x="147" y="-230" on="0"/>
        <pt x="832" y="-230" on="1"/>
        <pt x="802" y="-380" on="1"/>
        <pt x="-68" y="-380" on="0"/>
        <pt x="116" y="540" on="1"/>
        <pt x="296" y="1440" on="0"/>
        <pt x="1220" y="1440" on="1"/>
        <pt x="2146" y="1440" on="0"/>
        <pt x="1966" y="540" on="1"/>
        <pt x="1828" y="-150" on="0"/>
        <pt x="1431" y="-150" on="1"/>
        <pt x="1143" y="-150" on="0"/>
        <pt x="1196" y="114" on="1"/>
        <pt x="1221" y="240" on="1"/>
        <pt x="1050" y="0" on="0"/>
        <pt x="819" y="0" on="1"/>
        <pt x="461" y="0" on="0"/>
        <pt x="563" y="511" on="1"/>
        <pt x="671" y="1050" on="0"/>
        <pt x="1196" y="1050" on="1"/>
        <pt x="1409" y="1050" on="0"/>
        <pt x="1559" y="1007" on="1"/>
      </contour>
    </TTGlyph>
    <TTGlyph name="atilde" xMin="-42" yMin="0" xMax="1056" yMax="1430">
      <component glyphName="a" x="0" y="0" flags="0x200"/>
      <component glyphName="tilde" x="249" y="0" flags="0x0"/>
    </TTGlyph>
    <TTGlyph name="b" xMin="17" yMin="0" xMax="1116" yMax="1430">
      <contour>
        <pt x="230" y="183" on="1"/>
        <pt x="275" y="154" on="0"/>
        <pt x="405" y="154" on="1"/>
        <pt x="755" y="154" on="0"/>
        <pt x="837" y="563" on="1"/>
        <pt x="902" y="890" on="0"/>
        <pt x="695" y="890" on="1"/>
        <pt x="481" y="890" on="0"/>
        <pt x="321" y="636" on="1"/>
      </contour>
      <contour>
        <pt x="294" y="1430" on="1"/>
        <pt x="479" y="1430" on="1"/>
        <pt x="353" y="800" on="1"/>
        <pt x="522" y="1050" on="0"/>
        <pt x="758" y="1050" on="1"/>
        <pt x="1116" y="1050" on="0"/>
        <pt x="1020" y="566" on="1"/>
        <pt x="906" y="0" on="0"/>
        <pt x="383" y="0" on="1"/>
        <pt x="157" y="0" on="0"/>
        <pt x="17" y="43" on="1"/>
      </contour>
    </TTGlyph>
    <TTGlyph name="backslash" xMin="169" yMin="0" xMax="803" yMax="1430">
      <contour>
        <pt x="169" y="1430" on="1"/>
        <pt x="364" y="1430" on="1"/>
        <pt x="803" y="0" on="1"/>
        <pt x="608" y="0" on="1"/>
      </contour>
    </TTGlyph>
    <TTGlyph name="bar" xMin="-68" yMin="-380" xMax="479" yMax="1430">
      <contour>
        <pt x="479" y="1430" on="1"/>
        <pt x="117" y="-380" on="1"/>
        <pt x="-68" y="-380" on="1"/>
        <pt x="294" y="1430" on="1"/>
      </contour>
    </TTGlyph>
    <TTGlyph name="beta" xMin="-64" yMin="-362" xMax="1198" yMax="1430">
      <contour>
        <pt x="-64" y="-362" on="1"/>
        <pt x="183" y="871" on="1"/>
        <pt x="294" y="1430" on="0"/>
        <pt x="788" y="1430" on="1"/>
        <pt x="1198" y="1430" on="0"/>
        <pt x="1131" y="1094" on="1"/>
        <pt x="1079" y="832" on="0"/>
        <pt x="815" y="769" on="1"/>
        <pt x="1126" y="732" on="0"/>
        <pt x="1056" y="381" on="1"/>
        <pt x="979" y="-2" on="0"/>
        <pt x="565" y="-2" on="1"/>
        <pt x="429" y="-2" on="0"/>
        <pt x="335" y="58" on="1"/>
        <pt x="365" y="208" on="1"/>
        <pt x="460" y="148" on="0"/>
        <pt x="597" y="148" on="1"/>
        <pt x="824" y="148" on="0"/>
        <pt x="871" y="381" on="1"/>
        <pt x="932" y="689" on="0"/>
        <pt x="561" y="690" on="1"/>
        <pt x="585" y="808" on="1"/>
        <pt x="914" y="862" on="0"/>
        <pt x="960" y="1094" on="1"/>
        <pt x="997" y="1280" on="0"/>
        <pt x="751" y="1280" on="1"/>
        <pt x="449" y="1280" on="0"/>
        <pt x="367" y="868" on="1"/>
        <pt x="121" y="-362" on="1"/>
      </contour>
    </TTGlyph>
    <TTGlyph name="braceleft" xMin="48" yMin="-380" xMax="769" yMax="1430">
      <contour>
        <pt x="769" y="1430" on="1"/>
        <pt x="604" y="1254" on="0"/>
        <pt x="543" y="952" on="1"/>
        <pt x="473" y="600" on="0"/>
        <pt x="248" y="525" on="1"/>
        <pt x="443" y="450" on="0"/>
        <pt x="373" y="98" on="1"/>
        <pt x="312" y="-204" on="0"/>
        <pt x="407" y="-380" on="1"/>
        <pt x="222" y="-380" on="1"/>
        <pt x="127" y="-204" on="0"/>
        <pt x="188" y="98" on="1"/>
        <pt x="258" y="450" on="0"/>
        <pt x="48" y="450" on="1"/>
        <pt x="78" y="600" on="1"/>
        <pt x="288" y="600" on="0"/>
        <pt x="358" y="952" on="1"/>
        <pt x="419" y="1254" on="0"/>
        <pt x="584" y="1430" on="1"/>
      </contour>
    </TTGlyph>
    <TTGlyph name="braceright" xMin="-168" yMin="-380" xMax="553" yMax="1430">
      <contour>
        <pt x="379" y="1430" on="1"/>
        <pt x="474" y="1254" on="0"/>
        <pt x="413" y="952" on="1"/>
        <pt x="343" y="600" on="0"/>
        <pt x="553" y="600" on="1"/>
        <pt x="523" y="450" on="1"/>
        <pt x="313" y="450" on="0"/>
        <pt x="243" y="98" on="1"/>
        <pt x="182" y="-204" on="0"/>
        <pt x="17" y="-380" on="1"/>
        <pt x="-168" y="-380" on="1"/>
        <pt x="-3" y="-204" on="0"/>
        <pt x="58" y="98" on="1"/>
        <pt x="128" y="450" on="0"/>
        <pt x="353" y="525" on="1"/>
        <pt x="158" y="600" on="0"/>
        <pt x="228" y="952" on="1"/>
        <pt x="289" y="1254" on="0"/>
        <pt x="194" y="1430" on="1"/>
      </contour>
    </TTGlyph>
    <TTGlyph name="bracketleft" xMin="-68" yMin="-380" xMax="744" yMax="1430">
      <contour>
        <pt x="744" y="1430" on="1"/>
        <pt x="714" y="1280" on="1"/>
        <pt x="449" y="1280" on="1"/>
        <pt x="147" y="-230" on="1"/>
        <pt x="412" y="-230" on="1"/>
        <pt x="382" y="-380" on="1"/>
        <pt x="-68" y="-380" on="1"/>
        <pt x="294" y="1430" on="1"/>
      </contour>
    </TTGlyph>
    <TTGlyph name="bracketright" xMin="-168" yMin="-380" xMax="644" yMax="1430">
      <contour>
        <pt x="644" y="1430" on="1"/>
        <pt x="282" y="-380" on="1"/>
        <pt x="-168" y="-380" on="1"/>
        <pt x="-138" y="-230" on="1"/>
        <pt x="127" y="-230" on="1"/>
        <pt x="429" y="1280" on="1"/>
        <pt x="164" y="1280" on="1"/>
        <pt x="194" y="1430" on="1"/>
      </contour>
    </TTGlyph>
    <TTGlyph name="breve" xMin="192" yMin="1170" xMax="774" yMax="1430">
      <contour>
        <pt x="244" y="1430" on="1"/>
        <pt x="379" y="1430" on="1"/>
        <pt x="349" y="1280" on="0"/>
        <pt x="479" y="1280" on="1"/>
        <pt x="609" y="1280" on="0"/>
        <pt x="639" y="1430" on="1"/>
        <pt x="774" y="1430" on="1"/>
        <pt x="722" y="1170" on="0"/>
        <pt x="457" y="1170" on="1"/>
        <pt x="192" y="1170" on="0"/>
      </contour>
    </TTGlyph>
    <TTGlyph name="brokenbar" xMin="-68" yMin="-380" xMax="478" yMax="1430">
      <contour>
        <pt x="263" y="350" on="1"/>
        <pt x="117" y="-380" on="1"/>
        <pt x="-68" y="-380" on="1"/>
        <pt x="78" y="350" on="1"/>
      </contour>
      <contour>
        <pt x="478" y="1430" on="1"/>
        <pt x="332" y="700" on="1"/>
        <pt x="148" y="700" on="1"/>
        <pt x="294" y="1430" on="1"/>
      </contour>
    </TTGlyph>
    <TTGlyph name="bullet" xMin="60" yMin="510" xMax="576" yMax="940">
      <contour>
        <pt x="103" y="725" on="1"/>
        <pt x="146" y="940" on="0"/>
        <pt x="361" y="940" on="1"/>
        <pt x="576" y="940" on="0"/>
        <pt x="533" y="725" on="1"/>
        <pt x="490" y="510" on="0"/>
        <pt x="275" y="510" on="1"/>
        <pt x="60" y="510" on="0"/>
      </contour>
    </TTGlyph>
    <TTGlyph name="c" xMin="-42" yMin="0" xMax="942" yMax="1050">
      <contour>
        <pt x="764" y="130" on="1"/>
        <pt x="608" y="0" on="0"/>
        <pt x="398" y="0" on="1"/>
        <pt x="-42" y="0" on="0"/>
        <pt x="65" y="535" on="1"/>
        <pt x="168" y="1050" on="0"/>
        <pt x="668" y="1050" on="1"/>
        <pt x="818" y="1050" on="0"/>
        <pt x="942" y="1020" on="1"/>
        <pt x="912" y="870" on="1"/>
        <pt x="788" y="900" on="0"/>
        <pt x="628" y="900" on="1"/>
        <pt x="323" y="900" on="0"/>
        <pt x="250" y="535" on="1"/>
        <pt x="173" y="150" on="0"/>
        <pt x="438" y="150" on="1"/>
        <pt x="638" y="150" on="0"/>
        <pt x="794" y="280" on="1"/>
      </contour>
    </TTGlyph>
    <TTGlyph name="cacute" xMin="-42" yMin="0" xMax="942" yMax="1430">
      <component glyphName="c" x="0" y="0" flags="0x200"/>
      <component glyphName="acute" x="276" y="0" flags="0x0"/>
    </TTGlyph>
    <TTGlyph name="caron" xMin="244" yMin="1170" xMax="744" yMax="1430">
      <contour>
        <pt x="244" y="1430" on="1"/>
        <pt x="394" y="1430" on="1"/>
        <pt x="462" y="1270" on="1"/>
        <pt x="594" y="1430" on="1"/>
        <pt x="744" y="1430" on="1"/>
        <pt x="517" y="1170" on="1"/>
        <pt x="367" y="1170" on="1"/>
      </contour>
    </TTGlyph>
    <TTGlyph name="ccaron" xMin="-42" yMin="0" xMax="942" yMax="1430">
      <component glyphName="c" x="0" y="0" flags="0x200"/>
      <component glyphName="caron" x="160" y="0" flags="0x0"/>
    </TTGlyph>
    <TTGlyph name="ccedilla" xMin="-32" yMin="-422" xMax="942" yMax="1050">
      <contour>
        <pt x="324" y="4" on="1"/>
        <pt x="-32" y="48" on="0"/>
        <pt x="65" y="535" on="1"/>
        <pt x="168" y="1050" on="0"/>
        <pt x="668" y="1050" on="1"/>
        <pt x="818" y="1050" on="0"/>
        <pt x="942" y="1020" on="1"/>
        <pt x="912" y="870" on="1"/>
        <pt x="788" y="900" on="0"/>
        <pt x="628" y="900" on="1"/>
        <pt x="323" y="900" on="0"/>
        <pt x="250" y="535" on="1"/>
        <pt x="173" y="150" on="0"/>
        <pt x="438" y="150" on="1"/>
        <pt x="638" y="150" on="0"/>
        <pt x="794" y="280" on="1"/>
        <pt x="764" y="130" on="1"/>
        <pt x="630" y="18" on="0"/>
        <pt x="456" y="3" on="1"/>
        <pt x="398" y="-77" on="1"/>
        <pt x="612" y="-77" on="0"/>
        <pt x="578" y="-249" on="1"/>
        <pt x="543" y="-422" on="0"/>
        <pt x="302" y="-422" on="1"/>
        <pt x="194" y="-422" on="0"/>
        <pt x="96" y="-372" on="1"/>
        <pt x="118" y="-264" on="1"/>
        <pt x="216" y="-314" on="0"/>
        <pt x="324" y="-314" on="1"/>
        <pt x="432" y="-314" on="0"/>
        <pt x="445" y="-249" on="1"/>
        <pt x="457" y="-185" on="0"/>
        <pt x="374" y="-185" on="1"/>
        <pt x="191" y="-185" on="1"/>
      </contour>
    </TTGlyph>
    <TTGlyph name="ccircumflex" xMin="-42" yMin="0" xMax="942" yMax="1430">
      <component glyphName="c" x="0" y="0" flags="0x200"/>
      <component glyphName="circumflex" x="180" y="0" flags="0x0"/>
    </TTGlyph>
    <TTGlyph name="cdotaccent" xMin="-42" yMin="0" xMax="942" yMax="1430">
      <component glyphName="c" x="0" y="0" flags="0x200"/>
      <component glyphName="dotaccent" x="328" y="0" flags="0x0"/>
    </TTGlyph>
    <TTGlyph name="cedilla" xMin="-216" yMin="-422" xMax="300" yMax="75">
      <contour>
        <pt x="-194" y="-264" on="1"/>
        <pt x="-96" y="-314" on="0"/>
        <pt x="12" y="-314" on="1"/>
        <pt x="120" y="-314" on="0"/>
        <pt x="133" y="-249" on="1"/>
        <pt x="145" y="-185" on="0"/>
        <pt x="62" y="-185" on="1"/>
        <pt x="-121" y="-185" on="1"/>
        <pt x="62" y="75" on="1"/>
        <pt x="197" y="75" on="1"/>
        <pt x="86" y="-77" on="1"/>
        <pt x="300" y="-77" on="0"/>
        <pt x="266" y="-249" on="1"/>
        <pt x="231" y="-422" on="0"/>
        <pt x="-10" y="-422" on="1"/>
        <pt x="-118" y="-422" on="0"/>
        <pt x="-216" y="-372" on="1"/>
      </contour>
    </TTGlyph>
    <TTGlyph name="cent" xMin="1" yMin="0" xMax="979" yMax="1430">
      <contour>
        <pt x="598" y="1232" on="1"/>
        <pt x="638" y="1430" on="1"/>
        <pt x="813" y="1430" on="1"/>
        <pt x="774" y="1236" on="1"/>
        <pt x="884" y="1231" on="0"/>
        <pt x="979" y="1208" on="1"/>
        <pt x="949" y="1058" on="1"/>
        <pt x="825" y="1088" on="0"/>
        <pt x="665" y="1088" on="1"/>
        <pt x="360" y="1088" on="0"/>
        <pt x="287" y="723" on="1"/>
        <pt x="210" y="338" on="0"/>
        <pt x="475" y="338" on="1"/>
        <pt x="675" y="338" on="0"/>
        <pt x="831" y="468" on="1"/>
        <pt x="801" y="318" on="1"/>
        <pt x="697" y="231" on="0"/>
        <pt x="567" y="202" on="1"/>
        <pt x="527" y="0" on="1"/>
        <pt x="352" y="0" on="1"/>
        <pt x="390" y="190" on="1"/>
        <pt x="1" y="217" on="0"/>
        <pt x="102" y="723" on="1"/>
        <pt x="194" y="1180" on="0"/>
      </contour>
    </TTGlyph>
    <TTGlyph name="chi" xMin="-178" yMin="-380" xMax="1158" yMax="1050">
      <contour>
        <pt x="388" y="335" on="1"/>
        <pt x="108" y="1050" on="1"/>
        <pt x="313" y="1050" on="1"/>
        <pt x="525" y="508" on="1"/>
        <pt x="953" y="1050" on="1"/>
        <pt x="1158" y="1050" on="1"/>
        <pt x="593" y="335" on="1"/>
        <pt x="872" y="-380" on="1"/>
        <pt x="667" y="-380" on="1"/>
        <pt x="455" y="162" on="1"/>
        <pt x="27" y="-380" on="1"/>
        <pt x="-178" y="-380" on="1"/>
      </contour>
    </TTGlyph>
    <TTGlyph name="circumflex" xMin="192" yMin="1170" xMax="692" yMax="1430">
      <contour>
        <pt x="419" y="1430" on="1"/>
        <pt x="569" y="1430" on="1"/>
        <pt x="692" y="1170" on="1"/>
        <pt x="542" y="1170" on="1"/>
        <pt x="474" y="1330" on="1"/>
        <pt x="342" y="1170" on="1"/>
        <pt x="192" y="1170" on="1"/>
      </contour>
    </TTGlyph>
    <TTGlyph name="colon" xMin="8" yMin="0" xMax="403" yMax="1050">
      <contour>
        <pt x="403" y="1050" on="1"/>
        <pt x="366" y="865" on="1"/>
        <pt x="181" y="865" on="1"/>
        <pt x="218" y="1050" on="1"/>
      </contour>
      <contour>
        <pt x="230" y="185" on="1"/>
        <pt x="193" y="0" on="1"/>
        <pt x="8" y="0" on="1"/>
        <pt x="45" y="185" on="1"/>
      </contour>
    </TTGlyph>
    <TTGlyph name="comma" xMin="-167" yMin="-250" xMax="255" yMax="185">
      <contour>
        <pt x="255" y="185" on="1"/>
        <pt x="18" y="-250" on="1"/>
        <pt x="-167" y="-250" on="1"/>
        <pt x="70" y="185" on="1"/>
      </contour>
    </TTGlyph>
    <TTGlyph name="commaccent" xMin="-193" yMin="-380" xMax="198" yMax="-100">
      <contour>
        <pt x="198" y="-100" on="1"/>
        <pt x="-8" y="-380" on="1"/>
        <pt x="-193" y="-380" on="1"/>
        <pt x="13" y="-100" on="1"/>
      </contour>
    </TTGlyph>
    <TTGlyph name="copyright" xMin="6" yMin="-10" xMax="1781" yMax="1440">
      <contour>
        <pt x="129" y="80" on="0"/>
        <pt x="752" y="80" on="1"/>
        <pt x="1404" y="80" on="0"/>
        <pt x="1532" y="719" on="1"/>
        <pt x="1658" y="1350" on="0"/>
        <pt x="1026" y="1350" on="1"/>
        <pt x="383" y="1350" on="0"/>
        <pt x="257" y="719" on="1"/>
      </contour>
      <contour>
        <pt x="153" y="723" on="1"/>
        <pt x="296" y="1440" on="0"/>
        <pt x="1044" y="1440" on="1"/>
        <pt x="1781" y="1440" on="0"/>
        <pt x="1638" y="723" on="1"/>
        <pt x="1491" y="-10" on="0"/>
        <pt x="754" y="-10" on="1"/>
        <pt x="6" y="-10" on="0"/>
      </contour>
      <contour>
        <pt x="1108" y="336" on="1"/>
        <pt x="973" y="285" on="0"/>
        <pt x="808" y="285" on="1"/>
        <pt x="392" y="285" on="0"/>
        <pt x="481" y="728" on="1"/>
        <pt x="564" y="1144" on="0"/>
        <pt x="980" y="1144" on="1"/>
        <pt x="1145" y="1144" on="0"/>
        <pt x="1260" y="1093" on="1"/>
        <pt x="1240" y="995" on="1"/>
        <pt x="1127" y="1053" on="0"/>
        <pt x="976" y="1053" on="1"/>
        <pt x="651" y="1053" on="0"/>
        <pt x="586" y="728" on="1"/>
        <pt x="515" y="376" on="0"/>
        <pt x="840" y="376" on="1"/>
        <pt x="991" y="376" on="0"/>
        <pt x="1128" y="434" on="1"/>
      </contour>
    </TTGlyph>
    <TTGlyph name="currency" xMin="-7" yMin="61" xMax="1073" yMax="988">
      <contour>
        <pt x="226" y="756" on="1"/>
        <pt x="134" y="876" on="1"/>
        <pt x="265" y="988" on="1"/>
        <pt x="366" y="867" on="1"/>
        <pt x="487" y="935" on="0"/>
        <pt x="621" y="935" on="1"/>
        <pt x="745" y="935" on="0"/>
        <pt x="833" y="867" on="1"/>
        <pt x="985" y="988" on="1"/>
        <pt x="1073" y="876" on="1"/>
        <pt x="931" y="756" on="1"/>
        <pt x="972" y="673" on="0"/>
        <pt x="942" y="525" on="1"/>
        <pt x="915" y="386" on="0"/>
        <pt x="828" y="293" on="1"/>
        <pt x="932" y="173" on="1"/>
        <pt x="800" y="61" on="1"/>
        <pt x="696" y="184" on="1"/>
        <pt x="576" y="124" on="0"/>
        <pt x="451" y="124" on="1"/>
        <pt x="327" y="124" on="0"/>
        <pt x="220" y="184" on="1"/>
        <pt x="80" y="61" on="1"/>
        <pt x="-7" y="173" on="1"/>
        <pt x="133" y="293" on="1"/>
        <pt x="97" y="396" on="0"/>
        <pt x="122" y="525" on="1"/>
        <pt x="150" y="662" on="0"/>
      </contour>
      <contour>
        <pt x="286" y="529" on="1"/>
        <pt x="237" y="283" on="0"/>
        <pt x="482" y="283" on="1"/>
        <pt x="727" y="283" on="0"/>
        <pt x="776" y="529" on="1"/>
        <pt x="825" y="773" on="0"/>
        <pt x="580" y="773" on="1"/>
        <pt x="335" y="773" on="0"/>
      </contour>
    </TTGlyph>
    <TTGlyph name="d" xMin="-42" yMin="0" xMax="1141" yMax="1430">
      <contour>
        <pt x="844" y="872" on="1"/>
        <pt x="794" y="896" on="0"/>
        <pt x="654" y="896" on="1"/>
        <pt x="319" y="896" on="0"/>
        <pt x="243" y="513" on="1"/>
        <pt x="172" y="160" on="0"/>
        <pt x="379" y="160" on="1"/>
        <pt x="593" y="160" on="0"/>
        <pt x="753" y="414" on="1"/>
      </contour>
      <contour>
        <pt x="855" y="0" on="1"/>
        <pt x="690" y="0" on="1"/>
        <pt x="720" y="250" on="1"/>
        <pt x="552" y="0" on="0"/>
        <pt x="316" y="0" on="1"/>
        <pt x="-42" y="0" on="0"/>
        <pt x="60" y="511" on="1"/>
        <pt x="168" y="1050" on="0"/>
        <pt x="693" y="1050" on="1"/>
        <pt x="792" y="1050" on="0"/>
        <pt x="878" y="1041" on="1"/>
        <pt x="956" y="1430" on="1"/>
        <pt x="1141" y="1430" on="1"/>
      </contour>
    </TTGlyph>
    <TTGlyph name="dagger" xMin="88" yMin="-380" xMax="1063" yMax="1430">
      <contour>
        <pt x="759" y="1430" on="1"/>
        <pt x="683" y="1050" on="1"/>
        <pt x="1063" y="1050" on="1"/>
        <pt x="1033" y="900" on="1"/>
        <pt x="653" y="900" on="1"/>
        <pt x="397" y="-380" on="1"/>
        <pt x="212" y="-380" on="1"/>
        <pt x="468" y="900" on="1"/>
        <pt x="88" y="900" on="1"/>
        <pt x="118" y="1050" on="1"/>
        <pt x="498" y="1050" on="1"/>
        <pt x="574" y="1430" on="1"/>
      </contour>
    </TTGlyph>
    <TTGlyph name="daggerdbl" xMin="-92" yMin="-380" xMax="1063" yMax="1430">
      <contour>
        <pt x="759" y="1430" on="1"/>
        <pt x="683" y="1050" on="1"/>
        <pt x="1063" y="1050" on="1"/>
        <pt x="1033" y="900" on="1"/>
        <pt x="653" y="900" on="1"/>
        <pt x="503" y="150" on="1"/>
        <pt x="883" y="150" on="1"/>
        <pt x="853" y="0" on="1"/>
        <pt x="473" y="0" on="1"/>
        <pt x="397" y="-380" on="1"/>
        <pt x="212" y="-380" on="1"/>
        <pt x="288" y="0" on="1"/>
        <pt x="-92" y="0" on="1"/>
        <pt x="-62" y="150" on="1"/>
        <pt x="318" y="150" on="1"/>
        <pt x="468" y="900" on="1"/>
        <pt x="88" y="900" on="1"/>
        <pt x="118" y="1050" on="1"/>
        <pt x="498" y="1050" on="1"/>
        <pt x="574" y="1430" on="1"/>
      </contour>
    </TTGlyph>
    <TTGlyph name="dcaron" xMin="-42" yMin="0" xMax="1576" yMax="1430">
      <contour>
        <pt x="844" y="872" on="1"/>
        <pt x="794" y="896" on="0"/>
        <pt x="654" y="896" on="1"/>
        <pt x="319" y="896" on="0"/>
        <pt x="243" y="513" on="1"/>
        <pt x="172" y="160" on="0"/>
        <pt x="379" y="160" on="1"/>
        <pt x="593" y="160" on="0"/>
        <pt x="753" y="414" on="1"/>
      </contour>
      <contour>
        <pt x="855" y="0" on="1"/>
        <pt x="690" y="0" on="1"/>
        <pt x="720" y="250" on="1"/>
        <pt x="552" y="0" on="0"/>
        <pt x="316" y="0" on="1"/>
        <pt x="-42" y="0" on="0"/>
        <pt x="60" y="511" on="1"/>
        <pt x="168" y="1050" on="0"/>
        <pt x="693" y="1050" on="1"/>
        <pt x="792" y="1050" on="0"/>
        <pt x="878" y="1041" on="1"/>
        <pt x="956" y="1430" on="1"/>
        <pt x="1141" y="1430" on="1"/>
      </contour>
      <contour>
        <pt x="1576" y="1430" on="1"/>
        <pt x="1339" y="995" on="1"/>
        <pt x="1154" y="995" on="1"/>
        <pt x="1391" y="1430" on="1"/>
      </contour>
    </TTGlyph>
    <TTGlyph name="dcroat" xMin="-42" yMin="0" xMax="1141" yMax="1430">
      <contour>
        <pt x="844" y="872" on="1"/>
        <pt x="794" y="896" on="0"/>
        <pt x="654" y="896" on="1"/>
        <pt x="319" y="896" on="0"/>
        <pt x="243" y="513" on="1"/>
        <pt x="172" y="160" on="0"/>
        <pt x="379" y="160" on="1"/>
        <pt x="593" y="160" on="0"/>
        <pt x="753" y="414" on="1"/>
      </contour>
      <contour>
        <pt x="928" y="1290" on="1"/>
        <pt x="956" y="1430" on="1"/>
        <pt x="1141" y="1430" on="1"/>
        <pt x="855" y="0" on="1"/>
        <pt x="690" y="0" on="1"/>
        <pt x="720" y="250" on="1"/>
        <pt x="552" y="0" on="0"/>
        <pt x="316" y="0" on="1"/>
        <pt x="-42" y="0" on="0"/>
        <pt x="60" y="511" on="1"/>
        <pt x="168" y="1050" on="0"/>
        <pt x="693" y="1050" on="1"/>
        <pt x="792" y="1050" on="0"/>
        <pt x="878" y="1041" on="1"/>
        <pt x="898" y="1140" on="1"/>
        <pt x="206" y="1140" on="1"/>
        <pt x="236" y="1290" on="1"/>
      </contour>
    </TTGlyph>
    <TTGlyph name="degree" xMin="140" yMin="911" xMax="796" yMax="1430">
      <contour>
        <pt x="293" y="1025" on="0"/>
        <pt x="441" y="1025" on="1"/>
        <pt x="585" y="1025" on="0"/>
        <pt x="614" y="1172" on="1"/>
        <pt x="643" y="1316" on="0"/>
        <pt x="499" y="1316" on="1"/>
        <pt x="351" y="1316" on="0"/>
        <pt x="322" y="1172" on="1"/>
      </contour>
      <contour>
        <pt x="192" y="1170" on="1"/>
        <pt x="244" y="1430" on="0"/>
        <pt x="522" y="1430" on="1"/>
        <pt x="796" y="1430" on="0"/>
        <pt x="744" y="1170" on="1"/>
        <pt x="692" y="911" on="0"/>
        <pt x="418" y="911" on="1"/>
        <pt x="140" y="911" on="0"/>
      </contour>
    </TTGlyph>
    <TTGlyph name="delta" xMin="-44" yMin="-10" xMax="1143" yMax="1430">
      <contour>
        <pt x="956" y="-10" on="0"/>
        <pt x="449" y="-10" on="1"/>
        <pt x="-44" y="-10" on="0"/>
        <pt x="64" y="530" on="1"/>
        <pt x="166" y="1040" on="0"/>
        <pt x="681" y="1040" on="1"/>
        <pt x="541" y="1163" on="0"/>
        <pt x="328" y="1280" on="1"/>
        <pt x="358" y="1430" on="1"/>
        <pt x="1143" y="1430" on="1"/>
        <pt x="1113" y="1280" on="1"/>
        <pt x="616" y="1280" on="1"/>
        <pt x="1138" y="965" on="0"/>
        <pt x="1066" y="540" on="1"/>
      </contour>
      <contour>
        <pt x="880" y="536" on="1"/>
        <pt x="953" y="900" on="0"/>
        <pt x="631" y="900" on="1"/>
        <pt x="319" y="900" on="0"/>
        <pt x="245" y="530" on="1"/>
        <pt x="167" y="140" on="0"/>
        <pt x="480" y="140" on="1"/>
        <pt x="801" y="140" on="0"/>
      </contour>
    </TTGlyph>
    <TTGlyph name="dieresis" xMin="210" yMin="1260" xMax="799" yMax="1430">
      <contour>
        <pt x="799" y="1430" on="1"/>
        <pt x="765" y="1260" on="1"/>
        <pt x="580" y="1260" on="1"/>
        <pt x="614" y="1430" on="1"/>
      </contour>
      <contour>
        <pt x="429" y="1430" on="1"/>
        <pt x="395" y="1260" on="1"/>
        <pt x="210" y="1260" on="1"/>
        <pt x="244" y="1430" on="1"/>
      </contour>
    </TTGlyph>
    <TTGlyph name="dieresistonos" xMin="210" yMin="1191" xMax="1089" yMax="1430">
      <contour>
        <pt x="1089" y="1430" on="1"/>
        <pt x="1055" y="1260" on="1"/>
        <pt x="870" y="1260" on="1"/>
        <pt x="904" y="1430" on="1"/>
      </contour>
      <contour>
        <pt x="429" y="1430" on="1"/>
        <pt x="395" y="1260" on="1"/>
        <pt x="210" y="1260" on="1"/>
        <pt x="244" y="1430" on="1"/>
      </contour>
      <contour>
        <pt x="608" y="1430" on="1"/>
        <pt x="847" y="1430" on="1"/>
        <pt x="560" y="1191" on="1"/>
        <pt x="396" y="1191" on="1"/>
      </contour>
    </TTGlyph>
    <TTGlyph name="divide" xMin="48" yMin="150" xMax="863" yMax="900">
      <contour>
        <pt x="863" y="600" on="1"/>
        <pt x="833" y="450" on="1"/>
        <pt x="48" y="450" on="1"/>
        <pt x="78" y="600" on="1"/>
      </contour>
      <contour>
        <pt x="503" y="300" on="1"/>
        <pt x="473" y="150" on="1"/>
        <pt x="288" y="150" on="1"/>
        <pt x="318" y="300" on="1"/>
      </contour>
      <contour>
        <pt x="623" y="900" on="1"/>
        <pt x="593" y="750" on="1"/>
        <pt x="408" y="750" on="1"/>
        <pt x="438" y="900" on="1"/>
      </contour>
    </TTGlyph>
    <TTGlyph name="dollar" xMin="46" yMin="0" xMax="1006" yMax="1430">
      <contour>
        <pt x="575" y="1238" on="1"/>
        <pt x="613" y="1430" on="1"/>
        <pt x="788" y="1430" on="1"/>
        <pt x="749" y="1236" on="1"/>
        <pt x="881" y="1226" on="0"/>
        <pt x="1006" y="1190" on="1"/>
        <pt x="974" y="1030" on="1"/>
        <pt x="801" y="1090" on="0"/>
        <pt x="613" y="1090" on="1"/>
        <pt x="351" y="1090" on="0"/>
        <pt x="321" y="940" on="1"/>
        <pt x="293" y="800" on="0"/>
        <pt x="458" y="800" on="1"/>
        <pt x="608" y="800" on="1"/>
        <pt x="968" y="800" on="0"/>
        <pt x="906" y="490" on="1"/>
        <pt x="856" y="239" on="0"/>
        <pt x="542" y="198" on="1"/>
        <pt x="502" y="0" on="1"/>
        <pt x="327" y="0" on="1"/>
        <pt x="365" y="191" on="1"/>
        <pt x="200" y="196" on="0"/>
        <pt x="46" y="240" on="1"/>
        <pt x="78" y="400" on="1"/>
        <pt x="251" y="340" on="0"/>
        <pt x="440" y="340" on="1"/>
        <pt x="691" y="340" on="0"/>
        <pt x="721" y="490" on="1"/>
        <pt x="749" y="630" on="0"/>
        <pt x="574" y="630" on="1"/>
        <pt x="424" y="630" on="1"/>
        <pt x="84" y="630" on="0"/>
        <pt x="146" y="940" on="1"/>
        <pt x="201" y="1216" on="0"/>
      </contour>
    </TTGlyph>
    <TTGlyph name="dotaccent" xMin="206" yMin="1240" xMax="449" yMax="1430">
      <contour>
        <pt x="449" y="1430" on="1"/>
        <pt x="411" y="1240" on="1"/>
        <pt x="206" y="1240" on="1"/>
        <pt x="244" y="1430" on="1"/>
      </contour>
    </TTGlyph>
    <TTGlyph name="dotlessi" xMin="28" yMin="0" xMax="423" yMax="1050">
      <contour>
        <pt x="423" y="1050" on="1"/>
        <pt x="213" y="0" on="1"/>
        <pt x="28" y="0" on="1"/>
        <pt x="238" y="1050" on="1"/>
      </contour>
    </TTGlyph>
    <TTGlyph name="e" xMin="-42" yMin="0" xMax="1063" yMax="1050">
      <contour>
        <pt x="1063" y="1050" on="0"/>
        <pt x="1003" y="751" on="1"/>
        <pt x="945" y="462" on="0"/>
        <pt x="570" y="462" on="1"/>
        <pt x="235" y="462" on="1"/>
        <pt x="173" y="150" on="0"/>
        <pt x="469" y="150" on="1"/>
        <pt x="698" y="150" on="0"/>
        <pt x="863" y="280" on="1"/>
        <pt x="833" y="130" on="1"/>
        <pt x="668" y="0" on="0"/>
        <pt x="439" y="0" on="1"/>
        <pt x="-42" y="0" on="0"/>
        <pt x="65" y="537" on="1"/>
        <pt x="168" y="1050" on="0"/>
        <pt x="651" y="1050" on="1"/>
      </contour>
      <contour>
        <pt x="266" y="616" on="1"/>
        <pt x="601" y="616" on="1"/>
        <pt x="791" y="616" on="0"/>
        <pt x="819" y="754" on="1"/>
        <pt x="848" y="902" on="0"/>
        <pt x="621" y="902" on="1"/>
        <pt x="341" y="902" on="0"/>
      </contour>
    </TTGlyph>
    <TTGlyph name="eacute" xMin="-42" yMin="0" xMax="1063" yMax="1430">
      <component glyphName="e" x="0" y="0" flags="0x200"/>
      <component glyphName="acute" x="323" y="0" flags="0x0"/>
    </TTGlyph>
    <TTGlyph name="ebreve" xMin="-42" yMin="0" xMax="1063" yMax="1430">
      <component glyphName="e" x="0" y="0" flags="0x200"/>
      <component glyphName="breve" x="193" y="0" flags="0x0"/>
    </TTGlyph>
    <TTGlyph name="ecaron" xMin="-42" yMin="0" xMax="1063" yMax="1430">
      <component glyphName="e" x="0" y="0" flags="0x200"/>
      <component glyphName="caron" x="208" y="0" flags="0x0"/>
    </TTGlyph>
    <TTGlyph name="ecircumflex" xMin="-42" yMin="0" xMax="1063" yMax="1430">
      <component glyphName="e" x="0" y="0" flags="0x200"/>
      <component glyphName="circumflex" x="218" y="0" flags="0x0"/>
    </TTGlyph>
    <TTGlyph name="edieresis" xMin="-42" yMin="0" xMax="1063" yMax="1430">
      <component glyphName="e" x="0" y="0" flags="0x200"/>
      <component glyphName="dieresis" x="180" y="0" flags="0x0"/>
    </TTGlyph>
    <TTGlyph name="edotaccent" xMin="-42" yMin="0" xMax="1063" yMax="1430">
      <component glyphName="e" x="0" y="0" flags="0x200"/>
      <component glyphName="dotaccent" x="355" y="0" flags="0x0"/>
    </TTGlyph>
    <TTGlyph name="egrave" xMin="-42" yMin="0" xMax="1063" yMax="1430">
      <component glyphName="e" x="0" y="0" flags="0x200"/>
      <component glyphName="grave" x="229" y="0" flags="0x0"/>
    </TTGlyph>
    <TTGlyph name="eight" xMin="-44" yMin="-10" xMax="1247" yMax="1444">
      <contour>
        <pt x="43" y="424" on="1"/>
        <pt x="87" y="647" on="0"/>
        <pt x="319" y="745" on="1"/>
        <pt x="168" y="850" on="0"/>
        <pt x="214" y="1078" on="1"/>
        <pt x="287" y="1444" on="0"/>
        <pt x="767" y="1444" on="1"/>
        <pt x="1247" y="1444" on="0"/>
        <pt x="1174" y="1078" on="1"/>
        <pt x="1128" y="850" on="0"/>
        <pt x="930" y="745" on="1"/>
        <pt x="1127" y="647" on="0"/>
        <pt x="1083" y="424" on="1"/>
        <pt x="996" y="-10" on="0"/>
        <pt x="476" y="-10" on="1"/>
        <pt x="-44" y="-10" on="0"/>
      </contour>
      <contour>
        <pt x="937" y="820" on="0"/>
        <pt x="985" y="1058" on="1"/>
        <pt x="1031" y="1290" on="0"/>
        <pt x="728" y="1290" on="1"/>
        <pt x="441" y="1290" on="0"/>
        <pt x="395" y="1058" on="1"/>
        <pt x="347" y="820" on="0"/>
        <pt x="647" y="820" on="1"/>
      </contour>
      <contour>
        <pt x="841" y="140" on="0"/>
        <pt x="897" y="418" on="1"/>
        <pt x="947" y="670" on="0"/>
        <pt x="604" y="670" on="1"/>
        <pt x="277" y="670" on="0"/>
        <pt x="227" y="418" on="1"/>
        <pt x="171" y="140" on="0"/>
        <pt x="511" y="140" on="1"/>
      </contour>
    </TTGlyph>
    <TTGlyph name="eight.osf" xMin="-29" yMin="-10" xMax="1222" yMax="1344">
      <contour>
        <pt x="48" y="374" on="1"/>
        <pt x="92" y="597" on="0"/>
        <pt x="366" y="705" on="1"/>
        <pt x="173" y="800" on="0"/>
        <pt x="215" y="1008" on="1"/>
        <pt x="282" y="1344" on="0"/>
        <pt x="752" y="1344" on="1"/>
        <pt x="1222" y="1344" on="0"/>
        <pt x="1155" y="1008" on="1"/>
        <pt x="1113" y="800" on="0"/>
        <pt x="877" y="705" on="1"/>
        <pt x="1112" y="597" on="0"/>
        <pt x="1068" y="374" on="1"/>
        <pt x="991" y="-10" on="0"/>
        <pt x="481" y="-10" on="1"/>
        <pt x="-29" y="-10" on="0"/>
      </contour>
      <contour>
        <pt x="922" y="770" on="0"/>
        <pt x="970" y="1008" on="1"/>
        <pt x="1006" y="1190" on="0"/>
        <pt x="713" y="1190" on="1"/>
        <pt x="436" y="1190" on="0"/>
        <pt x="400" y="1008" on="1"/>
        <pt x="352" y="770" on="0"/>
        <pt x="642" y="770" on="1"/>
      </contour>
      <contour>
        <pt x="836" y="140" on="0"/>
        <pt x="884" y="378" on="1"/>
        <pt x="932" y="620" on="0"/>
        <pt x="599" y="620" on="1"/>
        <pt x="282" y="620" on="0"/>
        <pt x="234" y="378" on="1"/>
        <pt x="186" y="140" on="0"/>
        <pt x="516" y="140" on="1"/>
      </contour>
    </TTGlyph>
    <TTGlyph name="ellipsis" xMin="-42" yMin="0" xMax="980" yMax="185">
      <contour>
        <pt x="180" y="185" on="1"/>
        <pt x="143" y="0" on="1"/>
        <pt x="-42" y="0" on="1"/>
        <pt x="-5" y="185" on="1"/>
      </contour>
      <contour>
        <pt x="580" y="185" on="1"/>
        <pt x="543" y="0" on="1"/>
        <pt x="358" y="0" on="1"/>
        <pt x="395" y="185" on="1"/>
      </contour>
      <contour>
        <pt x="980" y="185" on="1"/>
        <pt x="943" y="0" on="1"/>
        <pt x="758" y="0" on="1"/>
        <pt x="795" y="185" on="1"/>
      </contour>
    </TTGlyph>
    <TTGlyph name="emacron" xMin="-42" yMin="0" xMax="1063" yMax="1430">
      <component glyphName="e" x="0" y="0" flags="0x200"/>
      <component glyphName="macron" x="208" y="0" flags="0x0"/>
    </TTGlyph>
    <TTGlyph name="emdash" xMin="48" yMin="450" xMax="1578" yMax="600">
      <contour>
        <pt x="1578" y="600" on="1"/>
        <pt x="1548" y="450" on="1"/>
        <pt x="48" y="450" on="1"/>
        <pt x="78" y="600" on="1"/>
      </contour>
    </TTGlyph>
    <TTGlyph name="endash" xMin="48" yMin="450" xMax="1078" yMax="600">
      <contour>
        <pt x="1078" y="600" on="1"/>
        <pt x="1048" y="450" on="1"/>
        <pt x="48" y="450" on="1"/>
        <pt x="78" y="600" on="1"/>
      </contour>
    </TTGlyph>
    <TTGlyph name="eng" xMin="8" yMin="-398" xMax="1123" yMax="1050">
      <contour>
        <pt x="870" y="712" on="1"/>
        <pt x="907" y="896" on="0"/>
        <pt x="724" y="896" on="1"/>
        <pt x="515" y="896" on="0"/>
        <pt x="306" y="563" on="1"/>
        <pt x="193" y="0" on="1"/>
        <pt x="8" y="0" on="1"/>
        <pt x="218" y="1050" on="1"/>
        <pt x="383" y="1050" on="1"/>
        <pt x="338" y="726" on="1"/>
        <pt x="537" y="1050" on="0"/>
        <pt x="830" y="1050" on="1"/>
        <pt x="1123" y="1050" on="0"/>
        <pt x="1055" y="709" on="1"/>
        <pt x="929" y="80" on="1"/>
        <pt x="865" y="-238" on="0"/>
        <pt x="678" y="-398" on="1"/>
        <pt x="544" y="-293" on="1"/>
        <pt x="696" y="-158" on="0"/>
        <pt x="744" y="80" on="1"/>
      </contour>
    </TTGlyph>
    <TTGlyph name="eogonek" xMin="-42" yMin="-426" xMax="1063" yMax="1050">
      <contour>
        <pt x="266" y="616" on="1"/>
        <pt x="601" y="616" on="1"/>
        <pt x="791" y="616" on="0"/>
        <pt x="819" y="754" on="1"/>
        <pt x="848" y="902" on="0"/>
        <pt x="621" y="902" on="1"/>
        <pt x="341" y="902" on="0"/>
      </contour>
      <contour>
        <pt x="634" y="27" on="1"/>
        <pt x="543" y="0" on="0"/>
        <pt x="439" y="0" on="1"/>
        <pt x="-42" y="0" on="0"/>
        <pt x="65" y="537" on="1"/>
        <pt x="168" y="1050" on="0"/>
        <pt x="651" y="1050" on="1"/>
        <pt x="1063" y="1050" on="0"/>
        <pt x="1003" y="751" on="1"/>
        <pt x="945" y="462" on="0"/>
        <pt x="570" y="462" on="1"/>
        <pt x="235" y="462" on="1"/>
        <pt x="173" y="150" on="0"/>
        <pt x="469" y="150" on="1"/>
        <pt x="698" y="150" on="0"/>
        <pt x="863" y="280" on="1"/>
        <pt x="823" y="80" on="1"/>
        <pt x="586" y="-96" on="0"/>
        <pt x="563" y="-208" on="1"/>
        <pt x="546" y="-296" on="0"/>
        <pt x="631" y="-296" on="1"/>
        <pt x="716" y="-296" on="0"/>
        <pt x="772" y="-276" on="1"/>
        <pt x="746" y="-406" on="1"/>
        <pt x="681" y="-426" on="0"/>
        <pt x="593" y="-426" on="1"/>
        <pt x="362" y="-426" on="0"/>
        <pt x="396" y="-253" on="1"/>
        <pt x="421" y="-130" on="0"/>
        <pt x="603" y="4" on="1"/>
      </contour>
    </TTGlyph>
    <TTGlyph name="epsilon" xMin="-44" yMin="-10" xMax="885" yMax="1060">
      <contour>
        <pt x="853" y="850" on="1"/>
        <pt x="715" y="910" on="0"/>
        <pt x="545" y="910" on="1"/>
        <pt x="335" y="910" on="0"/>
        <pt x="309" y="778" on="1"/>
        <pt x="277" y="620" on="0"/>
        <pt x="522" y="620" on="1"/>
        <pt x="717" y="620" on="1"/>
        <pt x="687" y="470" on="1"/>
        <pt x="489" y="470" on="1"/>
        <pt x="237" y="470" on="0"/>
        <pt x="201" y="290" on="1"/>
        <pt x="171" y="140" on="0"/>
        <pt x="391" y="140" on="1"/>
        <pt x="561" y="140" on="0"/>
        <pt x="723" y="200" on="1"/>
        <pt x="691" y="40" on="1"/>
        <pt x="531" y="-10" on="0"/>
        <pt x="361" y="-10" on="1"/>
        <pt x="-44" y="-10" on="0"/>
        <pt x="16" y="290" on="1"/>
        <pt x="56" y="490" on="0"/>
        <pt x="285" y="545" on="1"/>
        <pt x="89" y="604" on="0"/>
        <pt x="124" y="778" on="1"/>
        <pt x="180" y="1060" on="0"/>
        <pt x="585" y="1060" on="1"/>
        <pt x="745" y="1060" on="0"/>
        <pt x="885" y="1010" on="1"/>
      </contour>
    </TTGlyph>
    <TTGlyph name="epsilontonos" xMin="-44" yMin="-10" xMax="885" yMax="1430">
      <component glyphName="epsilon" x="0" y="0" flags="0x200"/>
      <component glyphName="tonos" x="228" y="0" flags="0x0"/>
    </TTGlyph>
    <TTGlyph name="equal" xMin="18" yMin="300" xMax="858" yMax="750">
      <contour>
        <pt x="798" y="450" on="1"/>
        <pt x="768" y="300" on="1"/>
        <pt x="18" y="300" on="1"/>
        <pt x="48" y="450" on="1"/>
      </contour>
      <contour>
        <pt x="858" y="750" on="1"/>
        <pt x="828" y="600" on="1"/>
        <pt x="78" y="600" on="1"/>
        <pt x="108" y="750" on="1"/>
      </contour>
    </TTGlyph>
    <TTGlyph name="eta" xMin="8" yMin="-380" xMax="1123" yMax="1050">
      <contour>
        <pt x="8" y="0" on="1"/>
        <pt x="218" y="1050" on="1"/>
        <pt x="383" y="1050" on="1"/>
        <pt x="338" y="726" on="1"/>
        <pt x="537" y="1050" on="0"/>
        <pt x="830" y="1050" on="1"/>
        <pt x="1123" y="1050" on="0"/>
        <pt x="1055" y="709" on="1"/>
        <pt x="836" y="-380" on="1"/>
        <pt x="652" y="-380" on="1"/>
        <pt x="870" y="712" on="1"/>
        <pt x="907" y="896" on="0"/>
        <pt x="724" y="896" on="1"/>
        <pt x="515" y="896" on="0"/>
        <pt x="306" y="563" on="1"/>
        <pt x="193" y="0" on="1"/>
      </contour>
    </TTGlyph>
    <TTGlyph name="etatonos" xMin="8" yMin="-380" xMax="1123" yMax="1430">
      <component glyphName="eta" x="0" y="0" flags="0x200"/>
      <component glyphName="tonos" x="368" y="0" flags="0x0"/>
    </TTGlyph>
    <TTGlyph name="eth" xMin="-44" yMin="-10" xMax="1131" yMax="1430">
      <contour>
        <pt x="838" y="576" on="1"/>
        <pt x="863" y="702" on="0"/>
        <pt x="869" y="820" on="1"/>
        <pt x="807" y="910" on="0"/>
        <pt x="613" y="910" on="1"/>
        <pt x="321" y="910" on="0"/>
        <pt x="247" y="540" on="1"/>
        <pt x="167" y="140" on="0"/>
        <pt x="460" y="140" on="1"/>
        <pt x="751" y="140" on="0"/>
      </contour>
      <contour>
        <pt x="952" y="1251" on="1"/>
        <pt x="1116" y="1040" on="0"/>
        <pt x="1024" y="580" on="1"/>
        <pt x="906" y="-10" on="0"/>
        <pt x="429" y="-10" on="1"/>
        <pt x="-44" y="-10" on="0"/>
        <pt x="66" y="540" on="1"/>
        <pt x="168" y="1050" on="0"/>
        <pt x="612" y="1050" on="1"/>
        <pt x="769" y="1050" on="0"/>
        <pt x="870" y="960" on="1"/>
        <pt x="849" y="1101" on="0"/>
        <pt x="767" y="1180" on="1"/>
        <pt x="460" y="1061" on="1"/>
        <pt x="484" y="1180" on="1"/>
        <pt x="659" y="1248" on="1"/>
        <pt x="575" y="1280" on="0"/>
        <pt x="460" y="1280" on="1"/>
        <pt x="294" y="1280" on="1"/>
        <pt x="324" y="1430" on="1"/>
        <pt x="492" y="1430" on="1"/>
        <pt x="733" y="1430" on="0"/>
        <pt x="871" y="1330" on="1"/>
        <pt x="1131" y="1430" on="1"/>
        <pt x="1107" y="1311" on="1"/>
      </contour>
    </TTGlyph>
    <TTGlyph name="exclam" xMin="8" yMin="0" xMax="479" yMax="1430">
      <contour>
        <pt x="479" y="1430" on="1"/>
        <pt x="267" y="370" on="1"/>
        <pt x="82" y="370" on="1"/>
        <pt x="294" y="1430" on="1"/>
      </contour>
      <contour>
        <pt x="230" y="185" on="1"/>
        <pt x="193" y="0" on="1"/>
        <pt x="8" y="0" on="1"/>
        <pt x="45" y="185" on="1"/>
      </contour>
    </TTGlyph>
    <TTGlyph name="exclamdown" xMin="-68" yMin="-380" xMax="403" yMax="1050">
      <contour>
        <pt x="-68" y="-380" on="1"/>
        <pt x="144" y="680" on="1"/>
        <pt x="329" y="680" on="1"/>
        <pt x="117" y="-380" on="1"/>
      </contour>
      <contour>
        <pt x="181" y="865" on="1"/>
        <pt x="218" y="1050" on="1"/>
        <pt x="403" y="1050" on="1"/>
        <pt x="366" y="865" on="1"/>
      </contour>
    </TTGlyph>
    <TTGlyph name="f" xMin="-176" yMin="-398" xMax="952" yMax="1482">
      <contour>
        <pt x="403" y="1050" on="1"/>
        <pt x="728" y="1050" on="1"/>
        <pt x="698" y="900" on="1"/>
        <pt x="373" y="900" on="1"/>
        <pt x="209" y="80" on="1"/>
        <pt x="145" y="-238" on="0"/>
        <pt x="-42" y="-398" on="1"/>
        <pt x="-176" y="-293" on="1"/>
        <pt x="-24" y="-158" on="0"/>
        <pt x="24" y="80" on="1"/>
        <pt x="228" y="1101" on="1"/>
        <pt x="304" y="1482" on="0"/>
        <pt x="716" y="1482" on="1"/>
        <pt x="845" y="1482" on="0"/>
        <pt x="952" y="1442" on="1"/>
        <pt x="922" y="1292" on="1"/>
        <pt x="821" y="1332" on="0"/>
        <pt x="685" y="1332" on="1"/>
        <pt x="459" y="1332" on="0"/>
        <pt x="414" y="1109" on="1"/>
      </contour>
    </TTGlyph>
    <TTGlyph name="fb" xMin="-176" yMin="-398" xMax="1725" yMax="1502">
      <contour>
        <pt x="838" y="183" on="1"/>
        <pt x="883" y="154" on="0"/>
        <pt x="1013" y="154" on="1"/>
        <pt x="1363" y="154" on="0"/>
        <pt x="1445" y="563" on="1"/>
        <pt x="1511" y="890" on="0"/>
        <pt x="1304" y="890" on="1"/>
        <pt x="1090" y="890" on="0"/>
        <pt x="929" y="636" on="1"/>
      </contour>
      <contour>
        <pt x="403" y="1050" on="1"/>
        <pt x="678" y="1050" on="1"/>
        <pt x="648" y="900" on="1"/>
        <pt x="373" y="900" on="1"/>
        <pt x="209" y="80" on="1"/>
        <pt x="145" y="-238" on="0"/>
        <pt x="-42" y="-398" on="1"/>
        <pt x="-176" y="-293" on="1"/>
        <pt x="-24" y="-158" on="0"/>
        <pt x="24" y="80" on="1"/>
        <pt x="228" y="1101" on="1"/>
        <pt x="308" y="1502" on="0"/>
        <pt x="780" y="1502" on="1"/>
        <pt x="939" y="1502" on="0"/>
        <pt x="1088" y="1430" on="1"/>
        <pt x="962" y="800" on="1"/>
        <pt x="1131" y="1050" on="0"/>
        <pt x="1367" y="1050" on="1"/>
        <pt x="1725" y="1050" on="0"/>
        <pt x="1628" y="566" on="1"/>
        <pt x="1515" y="0" on="0"/>
        <pt x="992" y="0" on="1"/>
        <pt x="766" y="0" on="0"/>
        <pt x="625" y="43" on="1"/>
        <pt x="884" y="1339" on="1"/>
        <pt x="812" y="1352" on="0"/>
        <pt x="749" y="1352" on="1"/>
        <pt x="463" y="1352" on="0"/>
        <pt x="414" y="1109" on="1"/>
      </contour>
    </TTGlyph>
    <TTGlyph name="ff" xMin="-176" yMin="-398" xMax="1521" yMax="1492">
      <contour>
        <pt x="1315" y="1050" on="1"/>
        <pt x="1285" y="900" on="1"/>
        <pt x="970" y="900" on="1"/>
        <pt x="806" y="80" on="1"/>
        <pt x="742" y="-238" on="0"/>
        <pt x="555" y="-398" on="1"/>
        <pt x="421" y="-293" on="1"/>
        <pt x="573" y="-158" on="0"/>
        <pt x="621" y="80" on="1"/>
        <pt x="785" y="900" on="1"/>
        <pt x="373" y="900" on="1"/>
        <pt x="209" y="80" on="1"/>
        <pt x="145" y="-238" on="0"/>
        <pt x="-42" y="-398" on="1"/>
        <pt x="-176" y="-293" on="1"/>
        <pt x="-24" y="-158" on="0"/>
        <pt x="24" y="80" on="1"/>
        <pt x="230" y="1111" on="1"/>
        <pt x="306" y="1492" on="0"/>
        <pt x="668" y="1492" on="1"/>
        <pt x="757" y="1492" on="0"/>
        <pt x="834" y="1452" on="1"/>
        <pt x="804" y="1302" on="1"/>
        <pt x="733" y="1342" on="0"/>
        <pt x="637" y="1342" on="1"/>
        <pt x="461" y="1342" on="0"/>
        <pt x="418" y="1129" on="1"/>
        <pt x="403" y="1050" on="1"/>
        <pt x="815" y="1050" on="1"/>
        <pt x="827" y="1111" on="1"/>
        <pt x="903" y="1492" on="0"/>
        <pt x="1315" y="1492" on="1"/>
        <pt x="1434" y="1492" on="0"/>
        <pt x="1521" y="1452" on="1"/>
        <pt x="1491" y="1302" on="1"/>
        <pt x="1410" y="1342" on="0"/>
        <pt x="1284" y="1342" on="1"/>
        <pt x="1058" y="1342" on="0"/>
        <pt x="1013" y="1119" on="1"/>
        <pt x="1000" y="1050" on="1"/>
      </contour>
    </TTGlyph>
    <TTGlyph name="ffb" xMin="-176" yMin="-398" xMax="2322" yMax="1502">
      <contour>
        <pt x="1435" y="183" on="1"/>
        <pt x="1480" y="154" on="0"/>
        <pt x="1610" y="154" on="1"/>
        <pt x="1960" y="154" on="0"/>
        <pt x="2042" y="563" on="1"/>
        <pt x="2108" y="890" on="0"/>
        <pt x="1901" y="890" on="1"/>
        <pt x="1687" y="890" on="0"/>
        <pt x="1526" y="636" on="1"/>
      </contour>
      <contour>
        <pt x="1275" y="1050" on="1"/>
        <pt x="1245" y="900" on="1"/>
        <pt x="970" y="900" on="1"/>
        <pt x="806" y="80" on="1"/>
        <pt x="742" y="-238" on="0"/>
        <pt x="555" y="-398" on="1"/>
        <pt x="421" y="-293" on="1"/>
        <pt x="573" y="-158" on="0"/>
        <pt x="621" y="80" on="1"/>
        <pt x="785" y="900" on="1"/>
        <pt x="373" y="900" on="1"/>
        <pt x="209" y="80" on="1"/>
        <pt x="145" y="-238" on="0"/>
        <pt x="-42" y="-398" on="1"/>
        <pt x="-176" y="-293" on="1"/>
        <pt x="-24" y="-158" on="0"/>
        <pt x="24" y="80" on="1"/>
        <pt x="230" y="1111" on="1"/>
        <pt x="306" y="1492" on="0"/>
        <pt x="668" y="1492" on="1"/>
        <pt x="757" y="1492" on="0"/>
        <pt x="834" y="1452" on="1"/>
        <pt x="804" y="1302" on="1"/>
        <pt x="733" y="1342" on="0"/>
        <pt x="637" y="1342" on="1"/>
        <pt x="461" y="1342" on="0"/>
        <pt x="418" y="1129" on="1"/>
        <pt x="403" y="1050" on="1"/>
        <pt x="815" y="1050" on="1"/>
        <pt x="825" y="1101" on="1"/>
        <pt x="905" y="1502" on="0"/>
        <pt x="1377" y="1502" on="1"/>
        <pt x="1536" y="1502" on="0"/>
        <pt x="1685" y="1430" on="1"/>
        <pt x="1559" y="800" on="1"/>
        <pt x="1728" y="1050" on="0"/>
        <pt x="1964" y="1050" on="1"/>
        <pt x="2322" y="1050" on="0"/>
        <pt x="2225" y="566" on="1"/>
        <pt x="2112" y="0" on="0"/>
        <pt x="1589" y="0" on="1"/>
        <pt x="1363" y="0" on="0"/>
        <pt x="1222" y="43" on="1"/>
        <pt x="1481" y="1339" on="1"/>
        <pt x="1409" y="1352" on="0"/>
        <pt x="1346" y="1352" on="1"/>
        <pt x="1060" y="1352" on="0"/>
        <pt x="1011" y="1109" on="1"/>
        <pt x="1000" y="1050" on="1"/>
      </contour>
    </TTGlyph>
    <TTGlyph name="ffh" xMin="-176" yMin="-398" xMax="2329" yMax="1502">
      <contour>
        <pt x="1275" y="1050" on="1"/>
        <pt x="1245" y="900" on="1"/>
        <pt x="970" y="900" on="1"/>
        <pt x="806" y="80" on="1"/>
        <pt x="742" y="-238" on="0"/>
        <pt x="555" y="-398" on="1"/>
        <pt x="421" y="-293" on="1"/>
        <pt x="573" y="-158" on="0"/>
        <pt x="621" y="80" on="1"/>
        <pt x="785" y="900" on="1"/>
        <pt x="373" y="900" on="1"/>
        <pt x="209" y="80" on="1"/>
        <pt x="145" y="-238" on="0"/>
        <pt x="-42" y="-398" on="1"/>
        <pt x="-176" y="-293" on="1"/>
        <pt x="-24" y="-158" on="0"/>
        <pt x="24" y="80" on="1"/>
        <pt x="230" y="1111" on="1"/>
        <pt x="306" y="1492" on="0"/>
        <pt x="668" y="1492" on="1"/>
        <pt x="757" y="1492" on="0"/>
        <pt x="834" y="1452" on="1"/>
        <pt x="804" y="1302" on="1"/>
        <pt x="733" y="1342" on="0"/>
        <pt x="637" y="1342" on="1"/>
        <pt x="461" y="1342" on="0"/>
        <pt x="418" y="1129" on="1"/>
        <pt x="403" y="1050" on="1"/>
        <pt x="815" y="1050" on="1"/>
        <pt x="825" y="1101" on="1"/>
        <pt x="905" y="1502" on="0"/>
        <pt x="1377" y="1502" on="1"/>
        <pt x="1536" y="1502" on="0"/>
        <pt x="1685" y="1430" on="1"/>
        <pt x="1548" y="746" on="1"/>
        <pt x="1743" y="1050" on="0"/>
        <pt x="2036" y="1050" on="1"/>
        <pt x="2329" y="1050" on="0"/>
        <pt x="2260" y="709" on="1"/>
        <pt x="2119" y="0" on="1"/>
        <pt x="1934" y="0" on="1"/>
        <pt x="2076" y="712" on="1"/>
        <pt x="2113" y="896" on="0"/>
        <pt x="1930" y="896" on="1"/>
        <pt x="1721" y="896" on="0"/>
        <pt x="1511" y="563" on="1"/>
        <pt x="1399" y="0" on="1"/>
        <pt x="1214" y="0" on="1"/>
        <pt x="1481" y="1339" on="1"/>
        <pt x="1409" y="1352" on="0"/>
        <pt x="1346" y="1352" on="1"/>
        <pt x="1060" y="1352" on="0"/>
        <pt x="1011" y="1109" on="1"/>
        <pt x="1000" y="1050" on="1"/>
      </contour>
    </TTGlyph>
    <TTGlyph name="ffi" xMin="-176" yMin="-398" xMax="1629" yMax="1502">
      <contour>
        <pt x="1596" y="1050" on="1"/>
        <pt x="1386" y="0" on="1"/>
        <pt x="1201" y="0" on="1"/>
        <pt x="1381" y="900" on="1"/>
        <pt x="970" y="900" on="1"/>
        <pt x="806" y="80" on="1"/>
        <pt x="742" y="-238" on="0"/>
        <pt x="555" y="-398" on="1"/>
        <pt x="421" y="-293" on="1"/>
        <pt x="573" y="-158" on="0"/>
        <pt x="621" y="80" on="1"/>
        <pt x="785" y="900" on="1"/>
        <pt x="373" y="900" on="1"/>
        <pt x="209" y="80" on="1"/>
        <pt x="145" y="-238" on="0"/>
        <pt x="-42" y="-398" on="1"/>
        <pt x="-176" y="-293" on="1"/>
        <pt x="-24" y="-158" on="0"/>
        <pt x="24" y="80" on="1"/>
        <pt x="230" y="1111" on="1"/>
        <pt x="306" y="1492" on="0"/>
        <pt x="668" y="1492" on="1"/>
        <pt x="757" y="1492" on="0"/>
        <pt x="834" y="1452" on="1"/>
        <pt x="804" y="1302" on="1"/>
        <pt x="733" y="1342" on="0"/>
        <pt x="637" y="1342" on="1"/>
        <pt x="461" y="1342" on="0"/>
        <pt x="418" y="1129" on="1"/>
        <pt x="403" y="1050" on="1"/>
        <pt x="815" y="1050" on="1"/>
        <pt x="825" y="1101" on="1"/>
        <pt x="905" y="1502" on="0"/>
        <pt x="1347" y="1502" on="1"/>
        <pt x="1486" y="1502" on="0"/>
        <pt x="1629" y="1442" on="1"/>
        <pt x="1599" y="1292" on="1"/>
        <pt x="1462" y="1352" on="0"/>
        <pt x="1316" y="1352" on="1"/>
        <pt x="1060" y="1352" on="0"/>
        <pt x="1013" y="1119" on="1"/>
        <pt x="1000" y="1050" on="1"/>
      </contour>
    </TTGlyph>
    <TTGlyph name="ffj" xMin="-176" yMin="-398" xMax="1629" yMax="1502">
      <contour>
        <pt x="815" y="1050" on="1"/>
        <pt x="825" y="1101" on="1"/>
        <pt x="905" y="1502" on="0"/>
        <pt x="1347" y="1502" on="1"/>
        <pt x="1486" y="1502" on="0"/>
        <pt x="1629" y="1442" on="1"/>
        <pt x="1599" y="1292" on="1"/>
        <pt x="1462" y="1352" on="0"/>
        <pt x="1316" y="1352" on="1"/>
        <pt x="1060" y="1352" on="0"/>
        <pt x="1013" y="1119" on="1"/>
        <pt x="1000" y="1050" on="1"/>
        <pt x="1596" y="1050" on="1"/>
        <pt x="1402" y="80" on="1"/>
        <pt x="1338" y="-238" on="0"/>
        <pt x="1151" y="-398" on="1"/>
        <pt x="1017" y="-293" on="1"/>
        <pt x="1169" y="-158" on="0"/>
        <pt x="1217" y="80" on="1"/>
        <pt x="1381" y="900" on="1"/>
        <pt x="970" y="900" on="1"/>
        <pt x="806" y="80" on="1"/>
        <pt x="742" y="-238" on="0"/>
        <pt x="555" y="-398" on="1"/>
        <pt x="421" y="-293" on="1"/>
        <pt x="573" y="-158" on="0"/>
        <pt x="621" y="80" on="1"/>
        <pt x="785" y="900" on="1"/>
        <pt x="373" y="900" on="1"/>
        <pt x="209" y="80" on="1"/>
        <pt x="145" y="-238" on="0"/>
        <pt x="-42" y="-398" on="1"/>
        <pt x="-176" y="-293" on="1"/>
        <pt x="-24" y="-158" on="0"/>
        <pt x="24" y="80" on="1"/>
        <pt x="230" y="1111" on="1"/>
        <pt x="306" y="1492" on="0"/>
        <pt x="668" y="1492" on="1"/>
        <pt x="757" y="1492" on="0"/>
        <pt x="834" y="1452" on="1"/>
        <pt x="804" y="1302" on="1"/>
        <pt x="733" y="1342" on="0"/>
        <pt x="637" y="1342" on="1"/>
        <pt x="461" y="1342" on="0"/>
        <pt x="418" y="1129" on="1"/>
        <pt x="403" y="1050" on="1"/>
      </contour>
    </TTGlyph>
    <TTGlyph name="ffk" xMin="-176" yMin="-398" xMax="2354" yMax="1502">
      <contour>
        <pt x="1275" y="1050" on="1"/>
        <pt x="1245" y="900" on="1"/>
        <pt x="970" y="900" on="1"/>
        <pt x="806" y="80" on="1"/>
        <pt x="742" y="-238" on="0"/>
        <pt x="555" y="-398" on="1"/>
        <pt x="421" y="-293" on="1"/>
        <pt x="573" y="-158" on="0"/>
        <pt x="621" y="80" on="1"/>
        <pt x="785" y="900" on="1"/>
        <pt x="373" y="900" on="1"/>
        <pt x="209" y="80" on="1"/>
        <pt x="145" y="-238" on="0"/>
        <pt x="-42" y="-398" on="1"/>
        <pt x="-176" y="-293" on="1"/>
        <pt x="-24" y="-158" on="0"/>
        <pt x="24" y="80" on="1"/>
        <pt x="230" y="1111" on="1"/>
        <pt x="306" y="1492" on="0"/>
        <pt x="668" y="1492" on="1"/>
        <pt x="757" y="1492" on="0"/>
        <pt x="834" y="1452" on="1"/>
        <pt x="804" y="1302" on="1"/>
        <pt x="733" y="1342" on="0"/>
        <pt x="637" y="1342" on="1"/>
        <pt x="461" y="1342" on="0"/>
        <pt x="418" y="1129" on="1"/>
        <pt x="403" y="1050" on="1"/>
        <pt x="815" y="1050" on="1"/>
        <pt x="825" y="1101" on="1"/>
        <pt x="905" y="1502" on="0"/>
        <pt x="1377" y="1502" on="1"/>
        <pt x="1536" y="1502" on="0"/>
        <pt x="1685" y="1430" on="1"/>
        <pt x="1552" y="768" on="1"/>
        <pt x="1762" y="1050" on="0"/>
        <pt x="2032" y="1050" on="1"/>
        <pt x="2354" y="1050" on="0"/>
        <pt x="2295" y="757" on="1"/>
        <pt x="2251" y="537" on="0"/>
        <pt x="1915" y="399" on="1"/>
        <pt x="2180" y="0" on="1"/>
        <pt x="1946" y="0" on="1"/>
        <pt x="1719" y="385" on="1"/>
        <pt x="1737" y="478" on="1"/>
        <pt x="2070" y="559" on="0"/>
        <pt x="2108" y="748" on="1"/>
        <pt x="2139" y="900" on="0"/>
        <pt x="1979" y="900" on="1"/>
        <pt x="1746" y="900" on="0"/>
        <pt x="1520" y="606" on="1"/>
        <pt x="1399" y="0" on="1"/>
        <pt x="1214" y="0" on="1"/>
        <pt x="1481" y="1339" on="1"/>
        <pt x="1409" y="1352" on="0"/>
        <pt x="1346" y="1352" on="1"/>
        <pt x="1060" y="1352" on="0"/>
        <pt x="1011" y="1109" on="1"/>
        <pt x="1000" y="1050" on="1"/>
      </contour>
    </TTGlyph>
    <TTGlyph name="ffl" xMin="-176" yMin="-398" xMax="1685" yMax="1502">
      <contour>
        <pt x="1275" y="1050" on="1"/>
        <pt x="1245" y="900" on="1"/>
        <pt x="970" y="900" on="1"/>
        <pt x="806" y="80" on="1"/>
        <pt x="742" y="-238" on="0"/>
        <pt x="555" y="-398" on="1"/>
        <pt x="421" y="-293" on="1"/>
        <pt x="573" y="-158" on="0"/>
        <pt x="621" y="80" on="1"/>
        <pt x="785" y="900" on="1"/>
        <pt x="373" y="900" on="1"/>
        <pt x="209" y="80" on="1"/>
        <pt x="145" y="-238" on="0"/>
        <pt x="-42" y="-398" on="1"/>
        <pt x="-176" y="-293" on="1"/>
        <pt x="-24" y="-158" on="0"/>
        <pt x="24" y="80" on="1"/>
        <pt x="230" y="1111" on="1"/>
        <pt x="306" y="1492" on="0"/>
        <pt x="668" y="1492" on="1"/>
        <pt x="757" y="1492" on="0"/>
        <pt x="834" y="1452" on="1"/>
        <pt x="804" y="1302" on="1"/>
        <pt x="733" y="1342" on="0"/>
        <pt x="637" y="1342" on="1"/>
        <pt x="461" y="1342" on="0"/>
        <pt x="418" y="1129" on="1"/>
        <pt x="403" y="1050" on="1"/>
        <pt x="815" y="1050" on="1"/>
        <pt x="825" y="1101" on="1"/>
        <pt x="905" y="1502" on="0"/>
        <pt x="1377" y="1502" on="1"/>
        <pt x="1536" y="1502" on="0"/>
        <pt x="1685" y="1430" on="1"/>
        <pt x="1399" y="0" on="1"/>
        <pt x="1214" y="0" on="1"/>
        <pt x="1481" y="1339" on="1"/>
        <pt x="1409" y="1352" on="0"/>
        <pt x="1346" y="1352" on="1"/>
        <pt x="1060" y="1352" on="0"/>
        <pt x="1011" y="1109" on="1"/>
        <pt x="1000" y="1050" on="1"/>
      </contour>
    </TTGlyph>
    <TTGlyph name="fh" xMin="-176" yMin="-398" xMax="1732" yMax="1502">
      <contour>
        <pt x="403" y="1050" on="1"/>
        <pt x="678" y="1050" on="1"/>
        <pt x="648" y="900" on="1"/>
        <pt x="373" y="900" on="1"/>
        <pt x="209" y="80" on="1"/>
        <pt x="145" y="-238" on="0"/>
        <pt x="-42" y="-398" on="1"/>
        <pt x="-176" y="-293" on="1"/>
        <pt x="-24" y="-158" on="0"/>
        <pt x="24" y="80" on="1"/>
        <pt x="228" y="1101" on="1"/>
        <pt x="308" y="1502" on="0"/>
        <pt x="780" y="1502" on="1"/>
        <pt x="939" y="1502" on="0"/>
        <pt x="1088" y="1430" on="1"/>
        <pt x="951" y="746" on="1"/>
        <pt x="1146" y="1050" on="0"/>
        <pt x="1439" y="1050" on="1"/>
        <pt x="1732" y="1050" on="0"/>
        <pt x="1663" y="709" on="1"/>
        <pt x="1522" y="0" on="1"/>
        <pt x="1337" y="0" on="1"/>
        <pt x="1479" y="712" on="1"/>
        <pt x="1516" y="896" on="0"/>
        <pt x="1333" y="896" on="1"/>
        <pt x="1124" y="896" on="0"/>
        <pt x="914" y="563" on="1"/>
        <pt x="802" y="0" on="1"/>
        <pt x="617" y="0" on="1"/>
        <pt x="884" y="1339" on="1"/>
        <pt x="812" y="1352" on="0"/>
        <pt x="749" y="1352" on="1"/>
        <pt x="463" y="1352" on="0"/>
        <pt x="414" y="1109" on="1"/>
      </contour>
    </TTGlyph>
    <TTGlyph name="fi" xMin="-176" yMin="-398" xMax="1032" yMax="1502">
      <contour>
        <pt x="228" y="1101" on="1"/>
        <pt x="308" y="1502" on="0"/>
        <pt x="750" y="1502" on="1"/>
        <pt x="889" y="1502" on="0"/>
        <pt x="1032" y="1442" on="1"/>
        <pt x="1002" y="1292" on="1"/>
        <pt x="865" y="1352" on="0"/>
        <pt x="719" y="1352" on="1"/>
        <pt x="463" y="1352" on="0"/>
        <pt x="416" y="1119" on="1"/>
        <pt x="403" y="1050" on="1"/>
        <pt x="989" y="1050" on="1"/>
        <pt x="779" y="0" on="1"/>
        <pt x="594" y="0" on="1"/>
        <pt x="774" y="900" on="1"/>
        <pt x="373" y="900" on="1"/>
        <pt x="209" y="80" on="1"/>
        <pt x="145" y="-238" on="0"/>
        <pt x="-42" y="-398" on="1"/>
        <pt x="-176" y="-293" on="1"/>
        <pt x="-24" y="-158" on="0"/>
        <pt x="24" y="80" on="1"/>
      </contour>
    </TTGlyph>
    <TTGlyph name="five" xMin="-7" yMin="-10" xMax="1163" yMax="1430">
      <contour>
        <pt x="299" y="1430" on="1"/>
        <pt x="1163" y="1430" on="1"/>
        <pt x="1133" y="1280" on="1"/>
        <pt x="427" y="1280" on="1"/>
        <pt x="315" y="838" on="1"/>
        <pt x="436" y="860" on="0"/>
        <pt x="565" y="860" on="1"/>
        <pt x="1105" y="860" on="0"/>
        <pt x="1023" y="450" on="1"/>
        <pt x="931" y="-10" on="0"/>
        <pt x="371" y="-10" on="1"/>
        <pt x="181" y="-10" on="0"/>
        <pt x="-7" y="50" on="1"/>
        <pt x="25" y="210" on="1"/>
        <pt x="211" y="140" on="0"/>
        <pt x="411" y="140" on="1"/>
        <pt x="776" y="140" on="0"/>
        <pt x="838" y="450" on="1"/>
        <pt x="890" y="710" on="0"/>
        <pt x="535" y="710" on="1"/>
        <pt x="310" y="710" on="0"/>
        <pt x="117" y="670" on="1"/>
      </contour>
    </TTGlyph>
    <TTGlyph name="five.osf" xMin="-33" yMin="-290" xMax="1037" yMax="1050">
      <contour>
        <pt x="273" y="1050" on="1"/>
        <pt x="1037" y="1050" on="1"/>
        <pt x="1007" y="900" on="1"/>
        <pt x="400" y="900" on="1"/>
        <pt x="287" y="498" on="1"/>
        <pt x="408" y="520" on="0"/>
        <pt x="507" y="520" on="1"/>
        <pt x="1007" y="520" on="0"/>
        <pt x="929" y="130" on="1"/>
        <pt x="845" y="-290" on="0"/>
        <pt x="285" y="-290" on="1"/>
        <pt x="105" y="-290" on="0"/>
        <pt x="-33" y="-230" on="1"/>
        <pt x="-1" y="-70" on="1"/>
        <pt x="135" y="-140" on="0"/>
        <pt x="325" y="-140" on="1"/>
        <pt x="690" y="-140" on="0"/>
        <pt x="744" y="130" on="1"/>
        <pt x="792" y="370" on="0"/>
        <pt x="477" y="370" on="1"/>
        <pt x="282" y="370" on="0"/>
        <pt x="77" y="320" on="1"/>
      </contour>
    </TTGlyph>
    <TTGlyph name="fj" xMin="-176" yMin="-398" xMax="1032" yMax="1502">
      <contour>
        <pt x="228" y="1101" on="1"/>
        <pt x="308" y="1502" on="0"/>
        <pt x="750" y="1502" on="1"/>
        <pt x="889" y="1502" on="0"/>
        <pt x="1032" y="1442" on="1"/>
        <pt x="1002" y="1292" on="1"/>
        <pt x="865" y="1352" on="0"/>
        <pt x="719" y="1352" on="1"/>
        <pt x="463" y="1352" on="0"/>
        <pt x="416" y="1119" on="1"/>
        <pt x="403" y="1050" on="1"/>
        <pt x="989" y="1050" on="1"/>
        <pt x="795" y="80" on="1"/>
        <pt x="731" y="-238" on="0"/>
        <pt x="544" y="-398" on="1"/>
        <pt x="410" y="-293" on="1"/>
        <pt x="562" y="-158" on="0"/>
        <pt x="610" y="80" on="1"/>
        <pt x="774" y="900" on="1"/>
        <pt x="373" y="900" on="1"/>
        <pt x="209" y="80" on="1"/>
        <pt x="145" y="-238" on="0"/>
        <pt x="-42" y="-398" on="1"/>
        <pt x="-176" y="-293" on="1"/>
        <pt x="-24" y="-158" on="0"/>
        <pt x="24" y="80" on="1"/>
      </contour>
    </TTGlyph>
    <TTGlyph name="fk" xMin="-176" yMin="-398" xMax="1757" yMax="1502">
      <contour>
        <pt x="403" y="1050" on="1"/>
        <pt x="678" y="1050" on="1"/>
        <pt x="648" y="900" on="1"/>
        <pt x="373" y="900" on="1"/>
        <pt x="209" y="80" on="1"/>
        <pt x="145" y="-238" on="0"/>
        <pt x="-42" y="-398" on="1"/>
        <pt x="-176" y="-293" on="1"/>
        <pt x="-24" y="-158" on="0"/>
        <pt x="24" y="80" on="1"/>
        <pt x="228" y="1101" on="1"/>
        <pt x="308" y="1502" on="0"/>
        <pt x="780" y="1502" on="1"/>
        <pt x="939" y="1502" on="0"/>
        <pt x="1088" y="1430" on="1"/>
        <pt x="955" y="768" on="1"/>
        <pt x="1165" y="1050" on="0"/>
        <pt x="1435" y="1050" on="1"/>
        <pt x="1757" y="1050" on="0"/>
        <pt x="1698" y="757" on="1"/>
        <pt x="1654" y="537" on="0"/>
        <pt x="1318" y="399" on="1"/>
        <pt x="1583" y="0" on="1"/>
        <pt x="1349" y="0" on="1"/>
        <pt x="1122" y="385" on="1"/>
        <pt x="1140" y="478" on="1"/>
        <pt x="1473" y="559" on="0"/>
        <pt x="1511" y="748" on="1"/>
        <pt x="1542" y="900" on="0"/>
        <pt x="1382" y="900" on="1"/>
        <pt x="1149" y="900" on="0"/>
        <pt x="923" y="606" on="1"/>
        <pt x="802" y="0" on="1"/>
        <pt x="617" y="0" on="1"/>
        <pt x="884" y="1339" on="1"/>
        <pt x="812" y="1352" on="0"/>
        <pt x="749" y="1352" on="1"/>
        <pt x="463" y="1352" on="0"/>
        <pt x="414" y="1109" on="1"/>
      </contour>
    </TTGlyph>
    <TTGlyph name="fl" xMin="-176" yMin="-398" xMax="1088" yMax="1502">
      <contour>
        <pt x="802" y="0" on="1"/>
        <pt x="617" y="0" on="1"/>
        <pt x="884" y="1339" on="1"/>
        <pt x="812" y="1352" on="0"/>
        <pt x="749" y="1352" on="1"/>
        <pt x="463" y="1352" on="0"/>
        <pt x="414" y="1109" on="1"/>
        <pt x="403" y="1050" on="1"/>
        <pt x="678" y="1050" on="1"/>
        <pt x="648" y="900" on="1"/>
        <pt x="373" y="900" on="1"/>
        <pt x="209" y="80" on="1"/>
        <pt x="145" y="-238" on="0"/>
        <pt x="-42" y="-398" on="1"/>
        <pt x="-176" y="-293" on="1"/>
        <pt x="-24" y="-158" on="0"/>
        <pt x="24" y="80" on="1"/>
        <pt x="228" y="1101" on="1"/>
        <pt x="308" y="1502" on="0"/>
        <pt x="780" y="1502" on="1"/>
        <pt x="939" y="1502" on="0"/>
        <pt x="1088" y="1430" on="1"/>
      </contour>
    </TTGlyph>
    <TTGlyph name="florin" xMin="-168" yMin="-384" xMax="1141" yMax="1434">
      <contour>
        <pt x="1111" y="1280" on="1"/>
        <pt x="1081" y="1286" on="0"/>
        <pt x="1054" y="1286" on="1"/>
        <pt x="883" y="1286" on="0"/>
        <pt x="797" y="1070" on="1"/>
        <pt x="749" y="950" on="1"/>
        <pt x="959" y="950" on="1"/>
        <pt x="899" y="800" on="1"/>
        <pt x="689" y="800" on="1"/>
        <pt x="361" y="-20" on="1"/>
        <pt x="215" y="-384" on="0"/>
        <pt x="-103" y="-384" on="1"/>
        <pt x="-135" y="-384" on="0"/>
        <pt x="-168" y="-380" on="1"/>
        <pt x="-138" y="-230" on="1"/>
        <pt x="-108" y="-236" on="0"/>
        <pt x="-81" y="-236" on="1"/>
        <pt x="90" y="-236" on="0"/>
        <pt x="176" y="-20" on="1"/>
        <pt x="504" y="800" on="1"/>
        <pt x="314" y="800" on="1"/>
        <pt x="374" y="950" on="1"/>
        <pt x="564" y="950" on="1"/>
        <pt x="612" y="1070" on="1"/>
        <pt x="758" y="1434" on="0"/>
        <pt x="1076" y="1434" on="1"/>
        <pt x="1108" y="1434" on="0"/>
        <pt x="1141" y="1430" on="1"/>
      </contour>
    </TTGlyph>
    <TTGlyph name="four" xMin="-14" yMin="0" xMax="1086" yMax="1430">
      <contour>
        <pt x="855" y="0" on="1"/>
        <pt x="670" y="0" on="1"/>
        <pt x="738" y="340" on="1"/>
        <pt x="-14" y="340" on="1"/>
        <pt x="16" y="490" on="1"/>
        <pt x="779" y="1430" on="1"/>
        <pt x="973" y="1430" on="1"/>
        <pt x="209" y="490" on="1"/>
        <pt x="768" y="490" on="1"/>
        <pt x="870" y="998" on="1"/>
        <pt x="1055" y="998" on="1"/>
        <pt x="953" y="490" on="1"/>
        <pt x="1086" y="414" on="1"/>
        <pt x="1071" y="340" on="1"/>
        <pt x="923" y="340" on="1"/>
      </contour>
    </TTGlyph>
    <TTGlyph name="four.osf" xMin="-76" yMin="-280" xMax="984" yMax="1049">
      <contour>
        <pt x="759" y="-280" on="1"/>
        <pt x="574" y="-280" on="1"/>
        <pt x="636" y="29" on="1"/>
        <pt x="-76" y="29" on="1"/>
        <pt x="-46" y="179" on="1"/>
        <pt x="673" y="1049" on="1"/>
        <pt x="867" y="1049" on="1"/>
        <pt x="147" y="179" on="1"/>
        <pt x="666" y="179" on="1"/>
        <pt x="762" y="657" on="1"/>
        <pt x="947" y="657" on="1"/>
        <pt x="851" y="179" on="1"/>
        <pt x="984" y="103" on="1"/>
        <pt x="969" y="29" on="1"/>
        <pt x="821" y="29" on="1"/>
      </contour>
    </TTGlyph>
    <TTGlyph name="fraction" xMin="-42" yMin="0" xMax="1314" yMax="1430">
      <contour>
        <pt x="143" y="0" on="1"/>
        <pt x="-42" y="0" on="1"/>
        <pt x="1129" y="1430" on="1"/>
        <pt x="1314" y="1430" on="1"/>
      </contour>
    </TTGlyph>
</ttFont>
